<svg version="1.2" baseProfile="tiny-ps" xmlns="http://www.w3.org/2000/svg" viewBox="0 0 1080 630" width="340" height="199">
	<style>
		tspan{white-space:pre}.ribbon-50{fill:#6A05C4}.ribbon-51{fill:#1d202d}.ribbon-52{fill:#4d657b}.ribbon-53{fill:#ffd10b}.ribbon-54{fill:#021f53}
	</style>
	<path class="ribbon-50" d="M532.5 9c-2.2.44-18.62 6.86-36.5 14.29-17.87 7.42-56.12 23.27-85 35.22-28.87 11.95-54.3 22.76-56.5 24.03-2.2 1.26-5.91 4.36-8.25 6.88-2.34 2.52-5.32 6.72-6.63 9.33-1.3 2.61-8.56 19.82-16.12 38.25-7.56 18.43-21.62 52.4-31.24 75.5-9.62 23.1-18.58 45.15-19.92 49-1.36 3.91-2.68 10.53-3 15-.31 4.4-.11 10.48.45 13.5.56 3.02 2.82 10.23 5.02 16 2.21 5.77 13.66 34.13 25.46 63 11.79 28.88 22.86 55.99 24.59 60.25L328 437c9.69 3 17 5.23 22.5 6.89 5.5 1.65 16.07 4.57 23.5 6.49 7.43 1.91 21.15 5.05 30.5 6.97 9.35 1.93 24.43 4.65 33.5 6.05 9.07 1.41 22.57 3.23 30 4.05 7.43.83 20.36 1.96 28.75 2.53 8.39.56 28.41 1.02 44.5 1.02 16.09-.01 35.55-.46 43.25-1.02 7.7-.55 22.1-1.93 32-3.05 9.9-1.13 25.88-3.38 35.5-5 9.63-1.62 26.5-4.95 37.5-7.41 11-2.45 24.05-5.62 29-7.05 4.95-1.42 13.95-4.14 20-6.03l11-3.44c40.97-98.81 54.43-131.32 56.34-136 2.79-6.85 3.56-10.25 3.95-17.5.31-5.57 0-11.1-.8-14.5-.7-3.02-4.64-13.82-8.74-24-4.1-10.18-13.54-33.35-20.97-51.5-7.44-18.15-17.34-42-22-53s-11.36-25.96-14.88-33.25c-5.22-10.8-7.47-14.31-12.21-19-3.2-3.16-8.93-7.39-12.75-9.39-3.82-2-25.84-11.52-48.94-21.16-23.1-9.63-58.54-24.3-78.75-32.61-20.21-8.3-39.34-15.77-42.5-16.6-3.16-.82-6.87-1.45-8.25-1.39-1.37.07-4.3.47-6.5.9z">
	</path>
	<path class="ribbon-51" d="M546.47 82.42c-1.86 1.33-1.99 2.86-2.28 26.25-.19 15.81.08 25.83.75 27.58.69 1.78 2.03 2.95 3.81 3.33 1.92.41 3.29.03 4.53-1.25 1.62-1.66 1.78-4.22 1.75-28.08-.03-26.09-.04-26.26-2.28-27.76-1.24-.83-2.71-1.5-3.28-1.5-.56.01-1.91.65-3 1.43zm-82.97 21.15c-.9.87-1.6 2.55-1.54 3.75.05 1.2 4.43 9.83 9.72 19.18 5.3 9.35 10.46 18.24 11.47 19.75 1.08 1.61 2.78 2.76 4.1 2.78 1.24.02 3.03-.77 3.97-1.75.95-.98 1.74-2.57 1.75-3.53.02-.96-4.74-10.19-10.57-20.5s-11.34-19.32-12.25-20.02c-.91-.69-2.41-1.26-3.33-1.25-.92.01-2.42.73-3.32 1.59zm165.32.13c-.87.99-6.43 10.35-12.37 20.8-10.31 18.17-10.72 19.11-9.34 21.5.9 1.54 2.5 2.6 4.17 2.75 2.07.19 3.28-.52 5.08-3 1.29-1.79 6.8-11.07 12.25-20.62 9.63-16.92 9.85-17.44 8.36-20-.89-1.53-2.59-2.75-4.06-2.93-1.48-.17-3.17.45-4.09 1.5zM396 145.2c-.77.66-1.32 2.35-1.22 3.75.12 1.76 3.04 5.4 9.45 11.76 5.1 5.07 10.06 9.23 11.02 9.25.96.02 2.65-.86 3.75-1.96s1.98-2.79 1.96-3.75c-.02-.96-4.18-5.92-9.25-11.02-6.87-6.92-9.86-9.27-11.76-9.25-1.4.01-3.18.56-3.95 1.22zm292 7.61c-5.44 5.56-8.7 9.71-8.84 11.25-.13 1.34.58 3.26 1.56 4.27 1.16 1.2 2.64 1.66 4.28 1.32 1.42-.29 6.28-4.43 11.25-9.58 4.81-4.99 8.75-9.75 8.75-10.57 0-.82-.45-2.4-1-3.5-.69-1.37-2-2-4.19-2-2.69 0-4.53 1.37-11.81 8.81zM451.5 168.6c-3.85.78-11.27 3.54-16.5 6.12-7.93 3.92-11 6.2-18.59 13.74-7.68 7.65-9.8 10.5-13.74 18.54-2.56 5.22-5.44 12.2-6.4 15.5-1.58 5.47-1.76 14.04-2 96.75-.27 89.6-.24 90.78 1.73 92.75 1.98 1.98 3.35 2 110.75 2.02l108.75.03c49.6-28.13 65.02-37.25 66.28-38.42l2.27-2.13c-.08-147.17-.36-165.33-1.45-170.5-.74-3.57-2.49-8.75-3.87-11.5-1.39-2.75-4.29-7.03-6.46-9.5-2.17-2.47-6.37-6.06-9.35-7.97-2.98-1.91-8.01-4.27-11.17-5.25-5.35-1.66-12.27-1.77-99.5-1.7-77.19.07-94.99.34-100.75 1.52z">
	</path>
	<path class="ribbon-52" d="M451.5 179.55c-2.75.76-8.37 3.05-12.5 5.1-5.43 2.69-9.57 5.8-15.02 11.28-4.81 4.85-8.85 10.09-11.2 14.57-2.03 3.85-4.61 10.6-5.74 15-1.4 5.43-2.06 11.13-2.05 17.75L405 253l69.5.01c1.07-18.34 2.12-25.1 3.49-29.51 1.2-3.85 6.19-15.44 11.1-25.75 4.9-10.31 8.91-18.97 8.91-19.25 0-.28-9.34-.46-20.75-.41-14.27.06-22.31.52-25.75 1.46z">
	</path>
	<path class="ribbon-53" d="M508.34 181.75c-.86 2.06-4.94 10.72-9.05 19.25-4.12 8.53-8.67 18.65-10.11 22.5l-2.62 7L486 316c12.52 12.98 16.75 16.43 18.75 17.03 2.11.63 4.39.62 6.5-.02 1.79-.54 6.07-3.8 9.52-7.25 4.54-4.53 6.54-7.37 7.23-10.26.52-2.2.96-20.99.98-41.75.01-29.14.35-39.29 1.47-44.5.8-3.71 2.31-9.22 3.36-12.25 1.05-3.03 3.16-7.97 4.68-11 1.53-3.03 5.87-10.34 9.64-16.25 3.78-5.91 6.87-10.97 6.87-11.25 0-.28-10.14-.5-22.54-.5h-22.54l-1.58 3.75z">
	</path>
	<path class="ribbon-52" d="M559.28 192.25c-4.96 7.84-10.13 16.5-11.51 19.25-1.37 2.75-3.45 7.93-4.61 11.5-1.17 3.57-2.57 9.65-3.12 13.5-.55 3.85-1.01 9.14-1.02 11.75L539 253l69.5-.5c.32-33.7.88-42.36 1.96-47.5.87-4.12 2.6-9.75 3.86-12.5 1.25-2.75 4.28-7.16 6.73-9.79l4.45-4.79-57.22.08-9 14.25zM648 182.06c-3.02.44-7.52 1.38-10 2.09-2.74.79-6.11 2.87-8.61 5.32-2.5 2.45-4.92 6.19-6.16 9.53-1.12 3.03-2.53 9.89-3.14 15.25-.6 5.36-1.09 15.38-1.09 22.25 0 6.88.34 12.51.75 12.52.41 0 12.57-5.51 27.01-12.25l26.25-12.27c.01-13.18-.65-19.25-1.46-22-.8-2.75-2.95-7.22-4.76-9.94-1.81-2.72-5.31-6.42-7.79-8.23-2.48-1.8-4.73-3.24-5-3.18-.27.05-2.98.46-6 .91z">
	</path>
	<path class="ribbon-53" d="M642.75 250.52L614 264h-75v26l74.5-.01 59-32.62c.42-15.79.2-20.36-.23-20.35-.42 0-13.71 6.08-29.52 13.5zM405 277v13h70v-26h-70v13z">
	</path>
	<path class="ribbon-52" d="M645.5 284.5l-26 14.39c-.41 56.36-.16 68.02.5 67.86.55-.14 12.69-6.55 26.97-14.25l25.98-14c.04-53.09-.29-68.48-.7-68.45-.41.03-12.45 6.53-26.75 14.45z">
	</path>
	<path class="ribbon-51" d="M502.86 281.65c-.99 1.21-1.36 5.15-1.36 14.58 0 11.79.18 13.06 2 14.37 1.1.79 2.76 1.43 3.68 1.42.92-.01 2.38-.7 3.25-1.52 1.28-1.22 1.57-4.03 1.57-15 0-12.5-.15-13.57-2-14.5-1.1-.55-2.85-1-3.89-1s-2.5.74-3.25 1.65z">
	</path>
	<path class="ribbon-52" d="M405 336v35h204l-.5-69.5-69.32-.53c-.15 13.86-.77 18.43-1.77 20.78-.87 2.06-4.81 7.06-8.75 11.1-3.94 4.04-8.96 8.25-11.16 9.36-2.75 1.38-5.8 1.98-9.75 1.9-3.48-.07-7.23-.86-9.5-2.02-2.06-1.04-7.4-5.66-11.86-10.25-4.46-4.58-8.84-9.8-9.75-11.59-1.11-2.21-1.64-5.81-1.64-11.25v-8h-70v35z">
	</path>
	<path class="ribbon-53" d="M646.02 365.42l-26.48 14.39c-.42 14.87-.2 19.18.21 19.16.41-.02 12.56-6.77 27-15L673 369c0-13.95-.11-17.99-.25-17.98-.14.01-12.17 6.49-26.73 14.4zM405 392.5V403h204v-21H405v10.5zM97.05 407.25c-.59 2.89-3.53 18.3-6.54 34.25-4.2 22.25-5.89 29.35-7.29 30.5-1 .82-14.72 9.82-30.5 20s-28.71 18.73-28.73 19c-.02.27 5.26 4.39 11.73 9.14 6.48 4.75 16.95 11.99 23.28 16.09 6.33 4.1 16 10.09 21.5 13.31 5.5 3.22 17.76 9.59 27.25 14.16 9.49 4.56 18.38 8.53 19.75 8.8l2.5.5c-.9-13.56-1.46-23.78-1.83-31.45l-.67-13.94c37.8-52.79 50.27-70.13 52.1-72.61l3.33-4.5c-10.41-4.49-18.38-8.24-24.43-11.24-6.05-2.99-15.28-7.95-20.5-11.01-5.22-3.07-13.55-8.28-18.5-11.58-4.95-3.3-11.59-7.95-14.75-10.34-3.16-2.38-5.95-4.33-6.19-4.33-.24 0-.92 2.36-1.51 5.25zm881.45-2.68c-1.65 1.38-8.17 6.02-14.5 10.31-6.33 4.3-15.77 10.32-21 13.37-5.23 3.06-14.45 8.02-20.5 11.01-6.05 3-14.02 6.75-17.72 8.34l-6.71 2.9c5.19 6.98 17.79 24.52 31.35 43.5 21.75 30.44 24.6 34.85 24.16 37.5-.28 1.65-.76 9.52-1.07 17.5-.32 7.98-.79 16.86-1.04 19.75-.42 4.67-.28 5.18 1.28 4.63.96-.34 10.75-5.04 21.75-10.44 11-5.4 25.17-12.91 31.5-16.68 6.33-3.77 16.45-10.17 22.5-14.22 6.05-4.05 14.95-10.33 19.78-13.95 4.83-3.63 8.76-6.82 8.74-7.09-.02-.27-13.59-9.27-30.15-20-16.57-10.73-30.26-19.73-30.42-20-.17-.27-3.04-14.9-6.37-32.5-3.34-17.6-6.3-33.01-6.58-34.25-.27-1.24-.84-2.23-1.25-2.21-.41.02-2.1 1.16-3.75 2.53zm-755.38 13.59c-3.37 4.59-21.8 30.16-40.96 56.84-29.97 41.71-34.62 48.66-33.25 49.63.87.63 12.39 6.53 25.59 13.12 13.2 6.59 28.72 14.02 34.5 16.51 5.78 2.5 15.68 6.66 22 9.26 6.32 2.61 18.25 7.2 26.5 10.21 8.25 3.01 22.65 7.93 32 10.94 9.35 3.01 23.3 7.2 31 9.31 7.7 2.11 18.95 5.03 25 6.48 6.05 1.45 16.18 3.75 22.5 5.12s19.15 3.8 28.5 5.41c9.35 1.6 23.52 3.83 31.5 4.94 7.98 1.12 21.25 2.7 29.5 3.52 8.25.82 22.2 1.93 31 2.47 8.8.54 24.33 1.26 34.5 1.6 10.17.34 30.2.14 44.5-.46 14.3-.59 31.85-1.53 39-2.1 7.15-.57 19.08-1.69 26.5-2.47 7.42-.79 19.8-2.36 27.5-3.49 7.7-1.12 21.42-3.4 30.5-5.06 9.08-1.66 22.58-4.36 30-6 7.42-1.65 21.83-5.21 32-7.93 10.17-2.72 26.83-7.61 37-10.87 10.17-3.26 24.58-8.16 32-10.9 7.42-2.74 20.92-8.01 30-11.71 9.08-3.69 23.92-10.1 33-14.22 9.08-4.13 23.81-11.29 32.75-15.91L934 524c-4.26-6-22.6-31.65-43.5-60.86-25.96-36.27-38.48-52.98-39.5-52.71-.83.21-10.5 4.67-21.5 9.89-11 5.23-27.87 12.64-37.5 16.47-9.62 3.83-25.83 9.7-36 13.05-10.17 3.35-25.7 8.11-34.5 10.58-8.8 2.48-20.84 5.64-26.75 7.04-5.91 1.4-16.49 3.63-23.5 4.97-7.01 1.33-17.25 3.12-22.75 3.97-5.5.85-13.37 2-17.5 2.55-4.12.56-13.8 1.68-21.5 2.49-7.7.8-23.45 2-35 2.65-13 .73-31.66.94-49 .56-15.5-.35-36.93-1.52-48-2.62-11-1.1-27.65-3.11-37-4.47-9.35-1.36-21.95-3.43-28-4.59-6.05-1.17-17.75-3.67-26-5.57-8.25-1.89-23.55-5.89-34-8.88-10.45-2.99-24.85-7.44-32-9.89-7.15-2.44-21.1-7.68-31-11.63-9.9-3.95-27-11.45-38-16.67-11-5.22-20.51-9.72-21.14-10-.62-.28-3.88 3.24-7.24 7.83z">
	</path>
	<path class="ribbon-54" d="M352 500.5c0 .27-2.93 11.3-6.5 24.5s-6.51 24.56-6.52 25.25c-.01.72 3.47 2.22 8.25 3.54 4.55 1.26 8.32 2.16 8.38 2 .06-.16.85-3.55 1.75-7.54 1.27-5.62 2.03-7.25 3.39-7.24.96 0 5.23 1.02 9.49 2.25s7.95 2.01 8.22 1.74c.26-.27 1.28-3.52 2.26-7.22l1.78-6.72c-7.75-2.26-11.91-3.39-14.25-3.98-2.98-.76-4.25-1.6-4.23-2.83 0-.96.43-2.42.93-3.25.81-1.31 2.23-1.14 10.99 1.25 5.53 1.51 10.29 2.75 10.56 2.75.27 0 1.21-3.26 2.08-7.25.87-3.99 1.43-7.36 1.25-7.48-.18-.13-8.59-2.49-18.69-5.25-10.1-2.76-18.54-5.02-18.75-5.02-.22 0-.39.23-.39.5zm357.75 3.58c-2.06.51-5.44 1.76-7.5 2.78-2.06 1.03-4.99 3.28-6.5 5-1.51 1.73-3.04 4.38-3.38 5.89-.35 1.51-.43 4.33-.18 6.25s1.55 5.05 2.88 6.93c1.34 1.89 4.01 4.08 5.93 4.87s7.39 1.72 12.15 2.07c4.76.35 9.04.99 9.5 1.43.47.44.35 1.57-.27 2.5-.62.94-2.64 2.09-4.5 2.56-1.86.47-7.09.59-11.63.25-4.54-.34-8.25-.27-8.25.14.01.41.84 3.67 1.85 7.25 1.77 6.26 1.98 6.53 5.74 7.41 2.53.59 6.74.51 11.91-.23 4.82-.7 10.17-2.25 13.45-3.92 3.25-1.64 6.4-4.18 7.78-6.26 1.63-2.46 2.32-4.92 2.3-8.25-.02-2.61-.82-6.38-1.78-8.37-.96-1.99-3.1-4.46-4.75-5.5-1.96-1.23-6.37-2.22-12.75-2.88-5.36-.55-10.2-1.23-10.75-1.5-.55-.27-1-.95-1-1.5s1.69-1.73 3.75-2.62c2.66-1.14 5.86-1.51 11.02-1.25l7.27.37c-1.02-4.65-1.83-7.8-2.47-10l-1.15-4c-11.56-.26-16.61.08-18.67.58zm-320.66 33.19c-2.84 14.43-5.04 26.27-4.88 26.33.16.05 8.94 1.85 19.5 4 10.57 2.14 19.46 3.67 19.77 3.4.31-.27 1.22-3.31 2.04-6.75 1.17-4.93 1.22-6.34.23-6.69-.69-.25-5.07-1.18-9.75-2.07-4.68-.89-9.29-1.82-10.25-2.06-1.33-.33-1.61-1.09-1.17-3.18.32-1.51.66-2.86.75-2.99.09-.13 4.44.62 9.67 1.67 5.23 1.05 9.59 1.83 9.71 1.74.12-.09.79-2.74 1.5-5.88.71-3.14 1.06-5.94.79-6.22-.27-.27-4.32-1.25-9-2.18-4.68-.92-8.88-1.95-9.34-2.28-.47-.34-.59-1.73-.27-3.11l.57-2.5c18.11 3.26 22.36 3.63 22.57 3 .19-.55.82-3.48 1.4-6.5.59-3.02.96-5.62.82-5.77-.14-.15-8.12-1.82-17.75-3.72-9.62-1.89-18.45-3.68-19.62-3.96-2.02-.49-2.35.65-7.29 25.72zm274.49-21.59c-14.72 2.92-17.89 3.85-17.74 5.19.1.9 2.23 12.21 4.72 25.13 2.5 12.92 4.69 23.95 4.89 24.5.21.61 8.09-.47 20.2-2.77 10.92-2.07 19.93-3.87 20.02-4 .1-.13-.45-3.15-1.23-6.73-.77-3.58-1.52-6.57-1.67-6.65-.15-.08-5.08.82-10.96 2-5.88 1.18-10.9 1.92-11.17 1.65-.26-.27-.76-1.62-1.12-3-.63-2.46-.46-2.53 9.45-4.5 5.67-1.13 9.9-2.44 9.65-3-.23-.55-.81-3.37-1.27-6.27-.47-2.89-1.3-5.24-1.85-5.21-.55.03-3.92.69-7.5 1.48s-7.74 1.45-9.25 1.46c-2.34.03-2.75-.37-2.76-2.71-.02-2.7.16-2.78 10.61-4.75 5.85-1.1 10.76-2.23 10.92-2.5.17-.27-.24-3.2-.9-6.5-.95-4.76-1.6-6.04-3.16-6.19-1.08-.11-10.02 1.41-19.88 3.37zm-222.83 31.26c-7.01 13.78-12.64 25.25-12.5 25.48.14.24 4.18.8 8.98 1.25l8.72.83 2.55-6.74c8.52 1.01 12.69 1.51 14.75 1.77 3.41.43 3.8.79 4.25 3.97.32 2.23 1.14 3.66 2.25 3.93.96.23 5.13.75 9.25 1.15l7.5.72c-1.12-3.72-4.17-16.05-7.5-29.8l-6.04-25c-5.78-1.08-10.16-1.67-13.46-2l-6-.62-12.75 25.06zm162.59-22.61c-5.04.64-9.41 1.4-9.71 1.67-.3.27.83 12.2 2.5 26.5 1.68 14.3 3.12 26.07 3.21 26.16.09.09 4.08-.36 8.88-1 7.91-1.05 8.68-1.35 8.3-3.16-.23-1.1-.66-4.59-.97-7.75-.54-5.61-.49-5.75 1.95-5.75 1.38 0 3.06.83 3.75 1.84.69 1.02 3.39 4.17 6 7L632 575c13.97-1.94 18.04-2.73 18.05-3 .01-.27-.95-1.4-2.13-2.5s-4.34-4.59-7.03-7.75L636 556c3.88-4.65 5.45-7.8 6-10 .55-2.2.71-5.69.37-7.75-.35-2.06-1.25-4.99-2-6.5-.76-1.51-3.02-3.99-5.04-5.5-3.35-2.51-4.49-2.76-13.25-2.92-5.27-.1-13.7.35-18.74 1zm-112.63 3.82c-.37 1.29-.7 4.6-.71 7.35-.04 4.99-.03 5 3.73 5.74 2.07.41 5.23.74 7.02.75l3.25.01-1.5 37.84c13.17.53 17.23.53 17.5.33.27-.19.8-7.39 1.17-16.01.37-8.61.71-16.9.75-18.41.08-2.73.13-2.75 7.08-2.75 6.59 0 7-.13 7.01-2.25 0-1.24.34-4.57.75-7.4l.74-5.16c-13.17-.89-23.55-1.43-31.55-1.77l-14.55-.61-.69 2.34zm85.54-1.47L571 527l.5 35.17c-3.87 3.03-6.01 3.9-7.25 3.87-1.24-.02-3.3-1.05-4.57-2.29-2.2-2.12-2.36-3.21-2.99-19.25-.37-9.35-.78-17.05-.93-17.12-.14-.07-4.09.11-8.76.39l-8.5.51c1.13 31.45 1.74 37.27 2.96 40.22.9 2.2 2.86 5.25 4.34 6.78 1.49 1.53 4.72 3.56 7.2 4.5 2.91 1.11 7.14 1.69 12 1.64 5.81-.06 8.6-.63 12.38-2.5 2.69-1.33 6.29-4.15 8-6.26 3.05-3.76 3.13-4.11 3.48-16 .19-6.69.16-16.32-.07-21.41l-.43-9.25c-5.32.29-9.22.51-12.11.68z">
	</path>
	<path class="ribbon-53" d="M614.25 537.64c-1.75.28-2.14.86-1.76 2.61.26 1.24.49 3.49.5 5 .01 2.61.2 2.72 3.76 2.2 2.06-.31 4.54-.76 5.5-1 .96-.25 2.01-1.69 2.33-3.2.41-1.92.03-3.29-1.25-4.53-1.01-.98-2.95-1.71-4.33-1.62-1.37.1-3.51.34-4.75.54zm-156.91 10.85c-1.56 3.57-2.61 6.66-2.34 6.86.27.21 2.41.66 4.75 1.01 3.08.46 4.25.29 4.24-.61-.01-.69-.46-4.06-1-7.5-.54-3.44-1.4-6.25-1.9-6.25s-2.19 2.92-3.75 6.49z">
	</path>
</svg>
