<svg version="1.2" baseProfile="tiny-ps" xmlns="http://www.w3.org/2000/svg" viewBox="0 0 1204 260" width="1204" height="260">
	<style>
		tspan{white-space:pre}.aleeert-logo0{fill:#e1ecf2}
	</style>
	<path class="aleeert-logo0" d="M1123.9 93.37V61.86l51.53-11.96v43.47h26.14v41.03h-26.14v27.11c0 7.32 4.64 10.99 13.93 10.99 5.53 0 10.17-.65 13.92-1.96v39.57c-11.56 3.09-22.55 4.64-32.98 4.64-13.35 0-24.42-3.34-33.21-10.02-8.8-6.83-13.19-18.48-13.19-34.92V134.4h-16.37V93.37h16.37zM1052.94 93.37v13.67c9.77-12.86 24.34-18.23 43.72-16.11v48.35c-6.52-2.11-13.52-2.6-21.01-1.46-7.33 1.14-12.78 3.66-16.36 7.57v65.21h-51.54V93.37h45.19z">
	</path>
	<path fill-rule="evenodd" class="aleeert-logo0" d="M873.95 151.25c0-10.91 2.04-20.52 6.11-28.82 4.07-8.47 9.28-14.98 15.63-19.54 6.51-4.56 13.27-7.89 20.27-10.01 7.01-2.28 14.01-3.42 21.01-3.42 10.1 0 19.05 1.55 26.87 4.64 7.98 2.93 14.16 6.84 18.56 11.72 4.56 4.89 8.22 10.59 10.99 17.1 2.77 6.35 4.07 13.02 3.91 20.03 0 7-.57 13.92-1.71 20.75h-72.3c1.96 4.73 6.03 8.39 12.21 10.99 6.19 2.45 13.27 3.67 21.25 3.67 12.7 0 23.94-1.55 33.71-4.64v34.68c-11.89 4.07-26.13 6.1-42.74 6.1-13.19 0-25.16-2.03-35.91-6.1-10.74-4.07-19.78-10.99-27.11-20.76-7.16-9.93-10.75-22.06-10.75-36.39zm48.85-11.24h31.02c.65-4.07-.16-7.81-2.44-11.23-2.28-3.58-6.19-5.37-11.72-5.37-5.05 0-9.12 1.54-12.22 4.64-3.09 3.09-4.64 7.08-4.64 11.96zM742.92 151.25c0-10.91 2.03-20.52 6.1-28.82 4.07-8.47 9.28-14.98 15.64-19.54 6.51-4.56 13.27-7.89 20.27-10.01 7-2.28 14-3.42 21-3.42 10.1 0 19.05 1.55 26.87 4.64 7.98 2.93 14.17 6.84 18.56 11.72 4.56 4.89 8.23 10.59 10.99 17.1 2.77 6.35 4.07 13.02 3.91 20.03 0 7-.57 13.92-1.71 20.75h-72.29c1.95 4.73 6.02 8.39 12.21 10.99 6.19 2.45 13.27 3.67 21.25 3.67 12.7 0 23.93-1.55 33.7-4.64v34.68c-11.88 4.07-26.13 6.1-42.74 6.1-13.19 0-25.16-2.03-35.9-6.1-10.75-4.07-19.79-10.99-27.12-20.76-7.16-9.93-10.74-22.06-10.74-36.39zm48.85-11.24h31.02c.65-4.07-.17-7.81-2.45-11.23-2.28-3.58-6.18-5.37-11.72-5.37-5.05 0-9.12 1.54-12.21 4.64-3.1 3.09-4.64 7.08-4.64 11.96zM611.88 151.25c0-10.91 2.04-20.52 6.11-28.82 4.07-8.47 9.28-14.98 15.63-19.54 6.51-4.56 13.27-7.89 20.27-10.01 7-2.28 14-3.42 21.01-3.42 10.09 0 19.05 1.55 26.86 4.64 7.98 2.93 14.17 6.84 18.57 11.72 4.56 4.89 8.22 10.59 10.99 17.1 2.77 6.35 4.07 13.02 3.91 20.03 0 7-.57 13.92-1.71 20.75h-72.3c1.95 4.73 6.02 8.39 12.21 10.99 6.19 2.45 13.27 3.67 21.25 3.67 12.7 0 23.94-1.55 33.71-4.64v34.68c-11.89 4.07-26.14 6.1-42.75 6.1-13.19 0-25.15-2.03-35.9-6.1s-19.79-10.99-27.11-20.76c-7.17-9.93-10.75-22.06-10.75-36.39zm48.85-11.24h31.02c.65-4.07-.16-7.81-2.44-11.23-2.28-3.58-6.19-5.37-11.73-5.37-5.04 0-9.12 1.54-12.21 4.64-3.09 3.09-4.64 7.08-4.64 11.96z">
	</path>
	<path class="aleeert-logo0" d="M549.81 210.6V32.31h51.54V210.6h-51.54z">
	</path>
	<path fill-rule="evenodd" class="aleeert-logo0" d="M527.34 146.36v27.11c0 4.24 2.28 6.35 6.84 6.35 1.14 0 2.68-.16 4.64-.49v30.04c-7 2.93-15.63 4.4-25.89 4.4-13.68 0-23.45-4.15-29.31-12.46-10.75 8.8-23.78 13.19-39.08 13.19-11.56 0-21.25-3.09-29.07-9.28-7.81-6.18-11.72-14.9-11.72-26.13 0-7.16 1.46-13.27 4.4-18.32 3.09-5.21 7.24-9.2 12.45-11.96 5.21-2.77 10.67-4.73 16.37-5.86 5.7-1.31 11.8-1.96 18.32-1.96 8.63 0 16.36.73 23.2 2.2v-2.69c0-8.63-7.74-12.94-23.2-12.94-13.03 0-27.12 2.77-42.26 8.3V97.27c17.42-5.21 33.46-7.81 48.12-7.81 21.82 0 38.26 4.15 49.34 12.46 11.23 8.14 16.85 22.95 16.85 44.44zm-59.11 18.08c-4.07 0-7.57.89-10.5 2.68-2.77 1.63-4.15 4.24-4.15 7.82 0 2.77 1.05 5.05 3.17 6.84 2.28 1.63 5.05 2.44 8.31 2.44 4.88 0 9.36-1.3 13.43-3.91V165.9c-2.61-.97-6.03-1.46-10.26-1.46zM69.53 91.75c-2.49-8.61-3.83-17.58-3.83-26.78 0-9.19 1.34-18.16 3.82-26.78.99-3.42 4.27-5.7 7.83-5.7h17.12c5.59 0 9.45 5.49 7.54 10.75a63.55 63.55 0 0 0-3.83 21.73c0 7.54 1.33 14.85 3.83 21.74 1.91 5.25-1.95 10.75-7.54 10.75H77.35c-3.56 0-6.84-2.28-7.82-5.71zm-23.16-79.9c-8.4 15.8-25.18 58.86.09 106.23 2.87 5.4-.98 11.87-7.09 11.87H21.69c-3.14 0-6.09-1.79-7.42-4.64C2.31 99.66.72 77.54.72 64.97c0-21.49 4.77-41.85 13.15-60.24C15.19 1.82 18.17 0 21.35 0h17.93c6.1 0 9.95 6.46 7.09 11.85zm266.08-7.13c8.39 18.39 13.17 38.75 13.17 60.25 0 21.51-4.79 41.87-13.18 60.26-1.32 2.9-4.3 4.72-7.48 4.72h-17.88c-6.15 0-9.97-6.52-7.06-11.94 24.43-45.59 9.13-88.8-.15-106.21-2.86-5.37 1.04-11.8 7.12-11.8h17.98c3.18 0 6.16 1.82 7.48 4.72zm-63.46 27.77c3.56 0 6.84 2.28 7.82 5.7 2.49 8.62 3.83 17.59 3.83 26.78 0 9.2-1.34 18.17-3.82 26.78-.99 3.43-4.26 5.71-7.83 5.71h-17.12c-5.59 0-9.45-5.5-7.54-10.75 2.5-6.89 3.83-14.2 3.83-21.74 0-7.53-1.33-14.84-3.83-21.73-1.91-5.26 1.95-10.75 7.54-10.75h17.12zm-59.04 50.82L256.2 242.4c1.72 4.13-.23 8.89-4.37 10.61l-14.98 6.25a8.103 8.103 0 0 1-10.61-4.37l-24.98-59.97h-76.18l-24.98 59.97a8.103 8.103 0 0 1-10.61 4.37l-14.98-6.25c-4.14-1.72-6.1-6.48-4.37-10.61l66.25-159.09c-3.58-5.23-5.69-11.53-5.69-18.34 0-17.94 14.54-32.48 32.47-32.48 17.94 0 32.47 14.54 32.47 32.48 0 6.81-2.11 13.11-5.69 18.34zm-2.22 79.12l-24.56-58.98-24.56 58.98h49.12z">
	</path>
</svg>
