<svg version="1.2" baseProfile="tiny-ps" xmlns="http://www.w3.org/2000/svg" viewBox="0 0 1080 630" width="340" height="199">
	<style>
		tspan{white-space:pre}.ribbon-60{fill:#6a05c5}.ribbon-61{fill:#ffd10b}.ribbon-62{fill:#021f53}
	</style>
	<path class="ribbon-60" d="M525.5 8.33c-3.3 1.29-42.23 17.32-86.5 35.63-44.27 18.3-82.19 34.13-84.25 35.16-2.06 1.03-5.61 3.57-7.88 5.63-2.28 2.06-5.35 5.55-6.83 7.75-1.48 2.2-8.22 17.5-14.97 34-6.76 16.5-22.1 53.63-34.09 82.5-11.99 28.88-22.37 54.52-23.07 57-.7 2.48-1.27 9-1.27 14.5-.01 6.22.58 11.89 1.54 15 .85 2.75 14.02 35.6 29.26 73 15.25 37.4 28.24 68.51 28.89 69.13.64.62 5.44 2.52 10.67 4.21 5.23 1.69 16.02 4.88 24 7.09s21.25 5.59 29.5 7.51c8.25 1.91 21.3 4.64 29 6.05 7.7 1.41 22.1 3.65 32 4.98 9.9 1.33 24.52 3 32.5 3.72 9.26.84 29.86 1.3 57 1.29 33.11-.02 46.37-.41 60-1.78 9.63-.97 22.67-2.45 29-3.28 6.33-.84 18.92-2.87 28-4.51 9.08-1.64 23.48-4.53 32-6.42 8.52-1.9 21.35-5.05 28.5-7.01 7.15-1.97 17.39-4.9 22.75-6.52 7.33-2.23 10.04-3.52 10.91-5.21.65-1.24 13.52-31.95 28.62-68.25 15.09-36.3 28.33-68.7 29.42-72 1.08-3.3 2.2-9.37 2.49-13.5.35-5.07 0-9.69-1.09-14.25-.88-3.71-8.98-24.86-18-47s-21.57-52.62-27.88-67.75c-6.31-15.12-14.69-34.47-18.6-43-3.92-8.53-9.07-17.97-11.43-21-2.37-3.03-7.43-7.61-11.25-10.2-5.32-3.6-26.49-12.78-90.94-39.43l-84-34.73c-16.57-.6-18.95-.28-24 1.69z">
	</path>
	<path class="ribbon-61" d="M532.47 95.42c-1.8 1.29-2.01 2.95-2.47 19.25l-.5 17.83c-4.65.41-10.5 1.25-16 2.13-5.5.89-14.5 3.08-20 4.87-5.5 1.78-14.27 5.38-19.5 7.98-5.23 2.61-13.1 7.14-17.5 10.07-4.4 2.93-10.84 7.95-14.3 11.14l-6.3 5.81c-28.22-28.23-31.96-31.42-34.15-31.46-1.51-.02-3.65.86-4.75 1.96s-2.01 3.01-2.03 4.25c-.02 1.6 4.58 6.78 16 18L427 183c-10.86 14.34-16.68 23.68-19.95 30-3.27 6.32-7.54 16.34-9.5 22.25-2.19 6.64-4.17 15.43-5.16 23-.88 6.74-1.78 13.26-2 14.5-.38 2.21-.65 2.25-14.39 2.25-7.7 0-15.24.48-16.75 1.08-1.51.59-3.08 1.6-3.48 2.25-.41.64-.75 2.41-.75 3.92-.01 1.75.8 3.3 2.23 4.26 1.76 1.18 5.56 1.5 17.5 1.5 15.02-.01 15.26.02 15.69 2.24.25 1.24.74 5.63 1.09 9.75.36 4.13 1.9 12.45 3.43 18.5 1.53 6.05 4.45 15.05 6.49 20 2.04 4.95 5.75 12.6 8.25 17s6.97 11.26 9.92 15.25c2.96 3.99 5.38 7.48 5.38 7.75 0 .27-6.76 7.14-15.02 15.25-10.63 10.44-15.01 15.41-15 17 .01 1.24 1.03 3.16 2.27 4.27 1.24 1.11 3.38 1.99 4.75 1.96 1.83-.05 6.46-3.95 17.25-14.52L434 388c11.24 9.76 18.1 15.01 22.5 17.98 4.4 2.96 12.27 7.52 17.5 10.13 5.23 2.62 13.55 6.1 18.5 7.75 4.95 1.65 12.38 3.68 16.5 4.52 4.13.84 10.54 1.88 14.26 2.32l6.76.8c-.08 26.14.15 28.24 1.7 29.78 1.17 1.17 2.97 1.68 5.26 1.5 2.55-.21 3.81-.95 4.73-2.78.81-1.61 1.27-7.03 1.28-15.25L543 432c8.91-.77 16.9-1.91 23.5-3.05 6.6-1.13 15.38-3.18 19.5-4.56 4.13-1.37 12.45-4.86 18.5-7.75 6.05-2.89 13.92-7.21 17.5-9.6 3.58-2.39 9.58-6.86 13.34-9.94l6.84-5.6c6.44 6.2 12.36 11.92 17.32 16.71 5.03 4.87 9.88 8.73 11 8.76 1.1.02 3.01-.63 4.25-1.46 1.57-1.05 2.25-2.49 2.23-4.76-.01-2.85-1.61-4.78-13.01-15.75l-13-12.5c7.24-8.52 11.84-14.82 14.89-19.5 3.05-4.68 7.43-12.55 9.74-17.5 2.31-4.95 5.39-12.6 6.84-17 1.45-4.4 3.48-12.27 4.51-17.5 1.03-5.23 2.14-12.54 2.46-16.25L690 288c28.67 0 30.18-.18 32-2 1.1-1.1 2.01-3.01 2.03-4.25.02-1.24-.93-3.15-2.1-4.25-1.91-1.79-3.71-2.03-17.03-2.25L690 275c-.93-10.46-2.1-17.77-3.21-23-1.11-5.22-3.59-14-5.51-19.5s-5.08-13.15-7.01-17c-1.93-3.85-5.85-10.6-8.7-15-2.85-4.4-7.75-11.04-10.88-14.75L649 179c25.74-24.41 27.95-26.97 28-29.5.04-1.65-.74-3.78-1.72-4.72-.98-.95-2.9-1.72-4.28-1.72-1.79.01-5.21 2.64-12 9.21-5.23 5.06-11.62 11.23-14.22 13.71l-4.72 4.52c-7.41-6.26-11.81-9.69-14.56-11.66-2.75-1.97-8.37-5.48-12.5-7.81-4.12-2.33-11.77-5.95-17-8.06-5.23-2.1-13.1-4.74-17.5-5.85-4.4-1.12-12.27-2.73-17.5-3.57-5.23-.85-11.41-1.54-13.75-1.55H543c-.48-32.22-.69-33.99-2.5-35.93-1.1-1.17-2.91-2.12-4.03-2.1-1.11.02-2.91.67-4 1.45z">
	</path>
	<path class="ribbon-60" d="M543.04 201.2l-.07 32.3c7.39 1 12.45 2.49 16.03 3.95 3.58 1.46 6.95 2.86 7.5 3.1.55.24 11.35-9.6 24-21.87l23-22.31c-9.3-7.31-17.4-12.12-24-15.41-9.22-4.6-14.55-6.54-23-8.38-6.05-1.32-13.79-2.69-17.19-3.04l-6.2-.64-.07 32.3zM517 171.61c-3.58.78-9.43 2.37-13 3.54-3.57 1.17-9.65 3.71-13.5 5.63-3.85 1.93-9.93 5.45-13.5 7.84-3.57 2.38-8.3 5.85-10.5 7.7l-4 3.37c29.45 28.65 39.91 38.62 42.25 40.64L509 244c8.91-5.4 13.64-7.53 16.26-8.23l4.77-1.27L530 170c-5.04.16-9.42.84-13 1.61zm82.74 55.42L577 249c4.5 5.81 6.93 9.75 8.31 12.5 1.37 2.75 3.1 6.92 3.84 9.27l1.35 4.28L653 275c-.69-3.49-1.16-6.75-1.5-9.5-.33-2.75-1.74-9.05-3.13-14-1.39-4.95-4.21-12.6-6.27-17-2.05-4.4-5.84-11.15-8.42-15-2.58-3.85-6.16-8.67-7.94-10.72l-3.25-3.71-22.75 21.96zM452.19 211.3c-1.09 1.21-4.14 5.58-6.78 9.7-2.64 4.13-6.26 10.65-8.04 14.5-1.78 3.85-4.38 11.28-5.78 16.5-1.4 5.23-2.89 12.55-3.32 16.28l-.77 6.77 62.61-.55c3.4-10.17 5.6-14.89 7.07-17.06l2.68-3.94-45.69-44.41-1.98 2.21zM532 266.26c-1.37.75-3.78 2.24-5.34 3.3-1.56 1.07-4 4.42-5.42 7.44-2.01 4.31-2.48 6.62-2.15 10.65.29 3.61 1.3 6.43 3.42 9.5 2 2.9 4.84 5.27 8.5 7.12 3.02 1.52 7.07 2.76 8.99 2.76s5.97-1.24 8.99-2.76c3.66-1.85 6.5-4.22 8.5-7.12 2.12-3.07 3.13-5.89 3.42-9.5.33-4.04-.14-6.34-2.16-10.65-1.81-3.85-3.88-6.39-6.92-8.46-3.48-2.38-5.61-3.03-10.83-3.3-4.19-.22-7.39.15-9 1.02zm-104.01 24.49c-.01 1.51.65 6.57 1.45 11.25.8 4.68 2.65 11.88 4.12 16 1.46 4.13 4.64 11.32 7.06 16 2.43 4.68 5.98 10.64 7.89 13.25 1.92 2.61 3.88 4.64 4.35 4.5.48-.14 10.49-9.58 22.25-20.99l21.39-20.75c-4.24-8.92-5.81-13.88-6.23-16.77l-.77-5.27-61.5.03-.01 2.75zm161.85 3.5c-.69 3.44-2.85 9.51-4.8 13.49l-3.54 7.24 42.57 41.52c3.21-3.1 6.54-7.6 9.47-12 2.94-4.4 6.91-11.37 8.82-15.5 1.92-4.12 4.6-11.32 5.96-16 1.36-4.68 2.77-11.2 3.13-14.5.36-3.3.86-7.01 1.1-8.25L653 288h-61.91l-1.25 6.25zM482.7 340.69l-21.53 20.81c5.68 5.89 10.71 9.92 14.83 12.75 4.13 2.84 11.55 7.08 16.5 9.43 4.95 2.34 13.27 5.34 18.5 6.67 5.23 1.32 11.64 2.68 14.25 3.03l4.75.62v-60c-8.14-2.45-12.52-4.34-15-5.79-2.48-1.45-5.91-3.92-7.64-5.49l-3.14-2.85-21.52 20.82zm86.8-15.04c-1.1.87-4.7 2.84-8 4.37-3.3 1.53-8.82 3.39-12.27 4.13l-6.27 1.35.02 59c12.03-1.1 20.02-2.57 25.52-3.99 5.5-1.41 14.05-4.49 19-6.83 4.95-2.35 12.38-6.58 16.5-9.4 4.13-2.83 8.3-5.96 9.29-6.96 1.72-1.75 1.01-2.58-19.5-22.6-11.71-11.44-21.52-20.76-21.79-20.72-.27.03-1.4.78-2.5 1.65z">
	</path>
	<path class="ribbon-61" d="M86.97 437.6c-3.56 19.03-6.69 34.91-6.97 35.29-.28.38-14 9.41-30.5 20.06C33 503.61 19.27 512.53 19 512.76c-.27.24 1.07 1.76 3 3.37 1.93 1.62 8.22 6.26 14 10.32 5.78 4.05 16.13 10.96 23 15.36 6.88 4.39 20.38 12.2 30.01 17.34 9.64 5.14 21.67 11.15 26.75 13.35 5.08 2.2 9.4 3.77 9.6 3.5.21-.27-.19-10.62-.87-23l-1.25-22.5c42.05-58.77 54.6-76.44 55.01-77.17.53-.94-.65-1.95-4-3.45-2.61-1.16-10.15-4.67-16.75-7.8s-17.85-9.16-25-13.41c-7.15-4.25-18.62-11.76-25.5-16.68-6.87-4.93-12.74-8.97-13.03-8.98-.3 0-3.45 15.56-7 34.59zm892.95-29.78c-3.53 2.66-10.47 7.53-15.42 10.83-4.95 3.3-13.5 8.64-19 11.86-5.5 3.22-15.4 8.42-22 11.56-6.6 3.13-14.14 6.65-16.75 7.81L902 452c4.49 6.59 17.12 24.25 30.97 43.5l25.17 35c-.83 8.52-1.33 17.75-1.66 26-.32 8.25-.79 16.01-1.03 17.25-.25 1.24 0 2.25.55 2.25s6.74-2.61 13.75-5.8c7.01-3.18 18.6-8.95 25.75-12.82 7.15-3.86 19.3-10.96 27-15.77 7.7-4.81 19.95-13.11 27.23-18.43l13.23-9.68c-45.31-29.41-59.37-38.86-60.49-39.98-1.64-1.63-3.21-8.54-8.28-36.27-3.44-18.84-6.61-34.25-7.05-34.25-.44 0-3.69 2.17-7.22 4.82zm-757.71 8.43c-2.12 2.89-20.62 28.65-41.11 57.25s-37.05 52.45-36.79 53c.25.55 10.52 6.02 22.82 12.16 12.31 6.14 28.67 13.95 36.37 17.35 7.7 3.41 20.53 8.8 28.5 11.99 7.97 3.18 21.47 8.27 30 11.31 8.52 3.03 22.25 7.61 30.5 10.17 8.25 2.57 19.95 6.01 26 7.65 6.05 1.65 18.43 4.74 27.5 6.87 9.07 2.12 24.38 5.44 34 7.36 9.63 1.93 26.95 4.87 38.5 6.54s27.75 3.71 36 4.53c8.25.82 22.2 2.07 31 2.78 9.4.76 31.68 1.28 54 1.27 20.9-.01 45.88-.59 55.5-1.29 9.63-.69 23.8-1.94 31.5-2.76 7.7-.83 20.98-2.41 29.5-3.51 8.52-1.1 25.17-3.79 37-5.99 11.83-2.2 30.27-6.07 41-8.59 10.73-2.52 27.83-6.98 38-9.89 10.17-2.92 25.92-7.86 35-10.98 9.08-3.12 23.02-8.14 31-11.14 7.98-3.01 22.38-8.84 32-12.95 9.63-4.11 28.47-12.97 41.88-19.68 13.41-6.71 24.55-12.76 24.75-13.45.21-.69-17.94-26.79-40.31-58-22.38-31.21-40.71-56.86-40.75-57-.04-.13-7.05 3.08-15.57 7.14s-22.92 10.53-32 14.37c-9.08 3.84-23.92 9.7-33 13-9.08 3.31-21.67 7.62-28 9.57-6.33 1.96-18.02 5.34-26 7.52-7.98 2.19-19.45 5.15-25.5 6.6-6.05 1.44-19.33 4.15-29.5 6.01-10.17 1.87-23.67 4.09-30 4.93-6.33.85-17.8 2.21-25.5 3.03-7.7.82-23.67 2.02-35.5 2.67-13.2.72-32.31.93-49.5.55-15.4-.35-37.23-1.52-48.5-2.61-11.27-1.09-27.02-2.91-35-4.06-7.98-1.14-22.6-3.66-32.5-5.59-9.9-1.93-21.82-4.4-26.5-5.49-4.68-1.09-15.7-4-24.5-6.47-8.8-2.47-22.3-6.55-30-9.08-7.7-2.52-21.2-7.29-30-10.6-8.8-3.3-23.2-9.13-32-12.94-8.8-3.82-21.29-9.61-27.75-12.87-6.46-3.26-11.96-5.93-12.22-5.93-.26 0-2.21 2.36-4.32 5.25z">
	</path>
	<path class="ribbon-62" d="M292.18 485.75c-.54 1.51-3.31 9.27-6.15 17.25-3.5 9.84-5.17 16.11-5.2 19.5-.03 2.75.62 6.35 1.42 8 .81 1.65 3.45 4.7 5.86 6.79 2.42 2.08 6.75 4.67 9.64 5.75 3.07 1.15 7.74 1.96 11.25 1.96 3.3 0 7.24-.48 8.75-1.06 1.51-.59 4.23-2.5 6.04-4.25 2.01-1.96 4.38-6.09 6.13-10.69 1.56-4.12 4.58-12.33 6.71-18.24 2.13-5.91 3.64-10.89 3.37-11.08-.27-.19-4.1-1.56-8.5-3.06-4.4-1.49-8.04-2.58-8.09-2.42-.05.17-2.75 7.67-6 16.68-4.2 11.64-6.49 16.67-7.91 17.35-1.1.54-3.12.67-4.5.29-1.37-.37-3.3-1.43-4.28-2.35-.98-.92-1.77-2.79-1.76-4.17.01-1.37 2.23-8.58 4.92-16 2.69-7.43 5.05-14.33 5.25-15.34.3-1.47-1.14-2.41-7.21-4.75-4.16-1.6-7.84-2.91-8.17-2.91-.33 0-1.04 1.24-1.57 2.75zm483.32.95c-1.65.22-5.7 1.26-9 2.32-3.3 1.06-7.91 3.52-10.25 5.46-2.68 2.22-4.67 4.91-5.37 7.27-.62 2.06-.84 5.32-.5 7.25.34 1.93 1.52 4.96 2.62 6.75s3.46 4 5.25 4.92c2.15 1.11 6.9 1.87 14 2.25 8.62.46 10.77.88 10.79 2.08.02.83-1.44 2.17-3.25 3-2.17.99-6.44 1.5-12.53 1.5-8.76 0-9.2.1-8.64 2 .33 1.1 1.56 4.48 2.74 7.5 2.05 5.27 2.31 5.51 6.14 5.83 2.2.18 6.7-.2 10-.84 3.3-.64 8.81-2.47 12.25-4.08 3.71-1.73 7.22-4.23 8.64-6.16 1.32-1.79 2.69-4.6 3.07-6.25.37-1.65.21-4.8-.34-7-.56-2.2-1.94-5.24-3.07-6.75-1.13-1.51-3.51-3.49-5.3-4.4-2.43-1.23-5.7-1.61-13-1.5-7.67.12-9.96-.17-10.75-1.35-.76-1.15-.36-1.91 1.7-3.25 1.92-1.24 5.14-1.82 11-2 4.57-.14 8.3-.59 8.3-1 0-.41-1.01-3.54-2.25-6.96-1.53-4.22-2.89-6.37-4.25-6.73-1.1-.29-2.67-.47-3.5-.4-.83.08-2.85.32-4.5.54zm-54 17.78c-9.9 2.93-17.94 5.72-17.86 6.18.07.46 2.69 9.84 5.81 20.84 3.12 11 6.34 22.25 7.14 25l1.47 5c29.02-8.22 38-10.81 38.69-11.05.97-.35.88-1.73-.4-6.2-.91-3.16-1.93-6.12-2.25-6.57-.33-.45-5.55.55-11.6 2.22-6.05 1.67-11.11 2.94-11.24 2.82-.13-.12-.36-1.51-.5-3.09-.25-2.79-.02-2.93 8.74-5.55 4.95-1.48 8.99-3.12 8.98-3.64-.01-.51-.57-3.3-1.25-6.19-.68-2.89-1.57-5.25-1.98-5.26-.41 0-4.8 1.15-9.75 2.55s-9.29 2.19-9.64 1.76c-.35-.44-.92-1.7-1.26-2.8-.56-1.8.41-2.29 9.64-4.89 5.64-1.59 10.63-3.17 11.07-3.5.45-.34 0-3.44-1-6.89-1.22-4.23-2.3-6.25-3.31-6.18-.83.05-9.6 2.5-19.5 5.44zM348 506.24c-3.32 1.67-5.09 3.44-6.76 6.76-1.24 2.48-2.25 5.85-2.23 7.5.01 1.65 1.04 4.8 2.29 7 1.45 2.57 4.93 5.84 9.73 9.15 4.75 3.27 7.47 5.82 7.47 7 0 1.41-.72 1.83-3 1.77-1.65-.05-5.02-1.04-7.5-2.21-2.48-1.17-6.3-3.68-8.5-5.59l-4-3.46c-3.49 11.5-4.52 14.95-4.55 15.09-.02.14 2.34 1.91 5.25 3.94 2.92 2.03 8.11 4.62 11.55 5.75 3.54 1.17 8.96 2.07 12.5 2.09 4.87.02 7.02-.48 9.75-2.27 1.93-1.27 4.29-3.87 5.25-5.78.96-1.91 1.75-5.39 1.75-7.73 0-2.34-.5-5.26-1.12-6.5-.62-1.24-2.31-3.52-3.75-5.07-1.45-1.56-5.11-4.31-8.13-6.13-3.02-1.82-5.81-3.92-6.2-4.68-.38-.75-.42-1.71-.08-2.12.34-.41 1.66-.75 2.95-.75 1.28 0 4.02.71 6.08 1.58 2.06.87 5.44 2.89 7.5 4.5 2.06 1.61 3.92 2.81 4.13 2.67.21-.14 1.11-2.84 2-6 .89-3.16 1.62-6.42 1.62-7.25 0-.83-2.14-2.87-4.75-4.54s-7.68-3.93-11.25-5.02c-3.57-1.09-8.07-1.98-10-1.97-1.93.01-5.52 1.03-8 2.27zm324.5 9.78c-2.75 1.05-6.49 3.39-8.32 5.19-1.82 1.81-3.71 4.87-4.21 6.79-.54 2.12-.52 5.08.06 7.5.53 2.2 1.63 5.01 2.46 6.25.83 1.24 3.42 3.12 5.76 4.19 2.34 1.07 7.85 2.4 12.25 2.97 4.4.57 8.45 1.5 9 2.07.67.69.41 1.61-.79 2.78-1.36 1.33-3.49 1.74-9 1.74-3.96 0-9.01-.35-11.21-.77l-4-.78c2.82 14.25 3.31 15.26 5.5 15.86 1.38.38 6.1.62 10.5.54 4.49-.08 10.19-.89 13-1.84 2.75-.93 6.44-2.66 8.19-3.85 1.76-1.19 3.9-3.4 4.75-4.91.86-1.51 1.57-5.11 1.59-8 .02-3.82-.59-6.19-2.25-8.69-1.25-1.9-3.63-4.24-5.28-5.2-1.65-.97-6.37-2.25-10.5-2.85-4.12-.59-8.51-1.29-9.75-1.55-1.24-.25-2.25-1.13-2.25-1.96 0-.83 1.13-1.95 2.5-2.5 1.38-.55 4.86-1 7.75-1 2.89 0 6.71.45 8.5 1 2.67.82 3.25.73 3.25-.5 0-.83-.5-3.86-1.12-6.75-.61-2.89-1.62-5.83-2.25-6.54-.78-.9-3.91-1.27-10.13-1.2-6.26.06-10.52.68-14 2.01zm-269.82 4.73c-1.29 2.06-7.56 12.3-13.94 22.75-6.37 10.45-11.85 19.79-12.17 20.75-.31.96-.34 1.75-.07 1.75s3.99.66 8.25 1.47c6.1 1.15 8.03 1.21 9.06.25.71-.67 1.56-2.12 1.87-3.22.5-1.74 1.11-1.91 4.7-1.3 2.26.39 6.48 1.18 9.37 1.75 5.06 1.01 5.27 1.18 5.78 4.8.53 3.74.54 3.75 7.25 5.06 3.7.72 7.62 1.52 8.72 1.77 1.92.45 1.81-.69-2.72-27.8-2.6-15.56-4.85-28.38-5-28.5-.15-.12-3.77-.91-8.03-1.75s-8.42-1.53-9.24-1.53c-.82 0-2.54 1.69-3.83 3.75zm223.92 3.62c-5.03.72-8.2 1.67-8.74 2.63-.46.83-3.52 13.42-6.8 28s-5.87 26.55-5.76 26.62c.11.07 4.03-.38 8.7-1l8.5-1.12c1.75-6.46 2.63-7.52 4.5-7.88 1.38-.27 5.48-.86 9.11-1.31l6.61-.81c3.27 6.47 3.33 6.5 9.03 5.93 3.16-.32 7.17-.88 8.92-1.25l3.16-.68c-20.75-38.75-27.35-50.06-28.05-50.13-.7-.08-4.83.37-9.18 1zM462 526.11c-2.48.52-6.72 2.17-9.43 3.67-3.15 1.74-5.95 4.34-7.77 7.22-1.57 2.48-3.29 6.08-3.82 8-.53 1.92-.97 6.09-.97 9.25-.01 3.16.69 7.44 1.55 9.5.86 2.06 2.66 5.21 4 7 1.34 1.79 4.24 4.38 6.44 5.75 2.2 1.38 6.81 3.23 10.25 4.12 4.29 1.12 8.45 1.46 13.25 1.09 3.85-.3 7.68-.81 8.5-1.13 1.12-.43 1.88-4.02 3-14.17.82-7.47 1.27-13.72 1-13.88-.27-.16-3.87-.6-8-.99l-7.5-.71c-1.18 5.17-1.52 8.36-1.51 10.42 0 2.06-.55 4.02-1.24 4.35-.69.33-3.05-.23-5.25-1.25-3.16-1.46-4.32-2.75-5.5-6.1-1.33-3.78-1.33-4.71 0-8.41.82-2.29 2.77-5.1 4.33-6.25 2.18-1.61 4.25-2.08 9-2.03 4.17.04 7.63.75 10.67 2.21 2.48 1.19 4.6 2.07 4.73 1.95.12-.12.64-3.37 1.14-7.22.79-6.02.69-7.18-.73-8.29-.9-.72-3.89-1.92-6.64-2.69-2.75-.76-7.25-1.6-10-1.87s-7.02-.06-9.5.46zm109 4.13c-3.28 1.27-7.21 3.87-9.75 6.45-2.92 2.96-4.72 5.96-5.76 9.56-.83 2.89-1.51 7.27-1.51 9.75 0 2.48.68 6.86 1.51 9.75.84 2.93 2.99 6.91 4.86 9 1.84 2.06 5.78 4.83 8.75 6.15 3.42 1.53 7.96 2.56 12.4 2.83 5.01.3 8.7-.1 13-1.44 5.4-1.67 6.03-2.16 6.34-4.83.18-1.63.07-5.32-.25-8.21L600 564c-5.04 2.59-8.3 3.55-10.5 3.8-2.2.25-5.58.19-7.5-.13s-4.74-1.85-6.26-3.38c-1.52-1.53-3.03-4.37-3.37-6.29-.41-2.4-.01-4.74 1.26-7.42 1.15-2.41 3.22-4.63 5.37-5.75 1.92-1.01 5.3-1.83 7.5-1.83 2.2.01 5.8.48 8 1.05 2.2.57 4.11.91 4.24.75.14-.17-.09-3.58-.5-7.58-.74-7.27-.75-7.29-4.24-8.25-1.92-.53-6.65-.94-10.5-.91-4.67.03-8.83.76-12.5 2.18zm-75.36 4.5c-.31 3.17-.86 15.21-1.21 26.76l-.63 21c19.14 1.17 28.41 1.5 32.95 1.5H535c.56-9.69.56-12.84.36-13.25-.2-.41-4.52-.76-9.61-.76-5.09-.01-10.26-.24-11.5-.5-1.73-.38-2.25-1.19-2.25-3.49v-3l20.5.5c.61-11.53.46-12.06-1.68-12.74-1.28-.4-5.81-.74-10.07-.75L513 550v-6l22.8.5c.71-10.08.64-13.28.31-13.62-.34-.35-9.45-.91-20.25-1.27l-19.65-.64-.57 5.77z">
	</path>
	<path class="ribbon-61" d="M406.64 544.25l-3.5 6.25c7.25 1.28 9.49 1.5 9.65 1.32.16-.17.05-3.36-.26-7.07-.31-3.71-.97-6.75-1.47-6.75s-2.49 2.81-4.42 6.25zM628.13 550c-.62 3.85-1.12 7.34-1.11 7.75.01.41 1.25.61 2.75.44 1.5-.17 3.74-.51 4.98-.75L637 557c-4.67-10.85-6.41-14-6.89-14-.47 0-1.36 3.15-1.98 7z">
	</path>
</svg>
