<svg xmlns="http://www.w3.org/2000/svg" viewBox="0 0 600 600"><style>tspan{white-space:pre}.svg-binance0{fill:#f3ba2f}</style><path class="svg-binance0" d="M207.25 91.26C157.06 141.44 115.99 183.18 116 184c0 .82 14.96 16.46 33.25 34.75 18.29 18.28 33.7 33.25 34.25 33.25.55 0 26.99-25.99 58.75-57.75L300 136.5C389.51 226.01 415.95 252 416.5 252c.55 0 15.96-14.96 34.25-33.25 18.28-18.29 33.25-33.7 33.25-34.25 0-.55-41.29-42.29-91.75-92.75S300.05 0 299.5.01c-.55 0-42.06 41.06-92.25 91.25zm57.74 174.24L230.5 300l69.5 69.5 69.5-69.5c-53.48-53.48-69.23-69-69.51-69-.27 0-16.02 15.53-35 34.5zM33 265.28C14.6 283.59-.36 299-.23 299.53c.12.54 15.53 16.27 34.23 34.97l34 34c51.93-51.93 67-67.68 67-68.5 0-.82-14.96-16.46-33.25-34.75C83.46 246.97 68.04 232 67.48 232c-.56 0-16.08 14.98-34.48 33.28zm465-.02c-18.53 18.4-33.38 33.92-33.25 34.75.14.82 15.21 16.45 33.5 34.74 18.29 18.28 33.48 33.25 33.77 33.25.28 0 15.7-15.19 34.25-33.75 18.56-18.56 33.74-33.98 33.74-34.25 0-.27-15.19-15.69-33.76-34.25-18.56-18.56-33.98-33.75-34.26-33.75-.27 0-15.57 14.96-33.99 33.26zM148.75 381.75l-33.74 33.75C257.99 558.49 299.73 600.01 300 600c.27 0 42.01-41.51 92.75-92.25L485 415.5c-52.31-52.31-67.95-67.5-68.49-67.5-.54 0-26.98 25.99-58.75 57.75L300 463.5C210.49 373.99 184.05 348 183.49 348c-.55 0-16.18 15.19-34.74 33.75z"/></svg>