<svg version="1.2" baseProfile="tiny-ps" xmlns="http://www.w3.org/2000/svg" viewBox="0 0 809 810" width="120" height="120">
	<style>
		tspan{white-space:pre}.svg-btc0{fill:#ffcb00}.svg-btc1{fill:#dc9400}.svg-btc2{fill:#d18c00}.svg-btc3{fill:#ffe271}.svg-btc4{fill:#b17700}
	</style>
	<path class="svg-btc0" d="M372 2.69c-2.48.18-10.57 1.03-18 1.87-7.43.84-20.25 2.88-28.5 4.53-8.25 1.64-19.27 4.13-24.5 5.53-5.23 1.4-15.12 4.36-22 6.57-6.87 2.21-19.25 6.75-27.5 10.09s-20.62 8.89-27.5 12.34c-6.87 3.44-17.68 9.34-24 13.1s-15.78 9.71-21 13.22c-5.22 3.5-13.97 9.79-19.43 13.96-5.45 4.18-13.78 10.97-18.5 15.08-4.71 4.11-12.79 11.54-17.95 16.5-5.16 4.96-14.33 14.65-20.38 21.52-6.05 6.88-14.7 17.45-19.22 23.5-4.53 6.05-11.62 16.18-15.77 22.5s-10.82 17.35-14.81 24.5c-4 7.15-10.05 19.07-13.46 26.5s-8.24 18.9-10.74 25.5c-2.5 6.6-6.14 17.18-8.09 23.5-1.95 6.32-4.66 16-6.03 21.5s-3.61 15.85-4.99 23c-1.37 7.15-3.31 19.3-4.31 27-1.44 11.08-1.82 20.77-1.8 46.5.01 17.88.39 36.1.83 40.5.51 5.1 1.1 7.46 1.63 6.5.55-1 1.21.82 1.98 5.5.64 3.85 2.74 13.52 4.68 21.5 1.93 7.98 5.76 21.25 8.51 29.5s7.49 20.85 10.53 28c3.05 7.15 7.35 16.6 9.56 21 2.22 4.4 6.28 12.05 9.04 17 2.75 4.95 9.64 15.98 15.29 24.5 5.65 8.52 14.05 20.23 18.67 26 4.61 5.77 13.12 15.67 18.91 22 5.79 6.33 14.98 15.56 20.44 20.53 5.45 4.97 12.61 11.3 15.91 14.07 3.3 2.77 9.6 7.74 14 11.04 4.4 3.3 10.93 8.02 14.5 10.5 3.57 2.47 11.79 7.73 18.25 11.68 6.46 3.95 17.94 10.28 25.5 14.07 7.56 3.78 19.26 9.18 26 12 6.74 2.81 18.44 7.15 26 9.64 7.56 2.5 20.95 6.3 29.75 8.46 8.8 2.15 23.43 5.06 32.5 6.46 9.07 1.4 25.95 3.08 37.5 3.73 16.31.92 25.47.92 41-.01 11-.67 27.2-2.3 36-3.64 8.8-1.33 21.18-3.6 27.5-5.04 6.32-1.43 16.23-3.97 22-5.64 5.77-1.67 16.13-5.07 23-7.55 6.88-2.49 18.58-7.2 26-10.48 7.42-3.29 17.77-8.27 23-11.08 5.23-2.82 13.55-7.56 18.5-10.54 4.95-2.99 13.95-8.82 20-12.96 6.05-4.15 16.4-11.84 23-17.1 6.6-5.26 20.12-17.68 30.04-27.6 9.92-9.92 22.34-23.44 27.6-30.04 5.26-6.6 12.95-16.95 17.1-23 4.14-6.05 9.97-15.05 12.96-20 2.98-4.95 7.72-13.27 10.54-18.5 2.81-5.23 7.79-15.58 11.08-23 3.28-7.42 7.99-19.12 10.48-26 2.48-6.87 5.88-17.23 7.55-23s4.21-15.68 5.64-22c1.44-6.32 3.71-18.7 5.04-27.5 1.34-8.8 2.97-25 3.64-36 .93-15.53.93-24.69.01-41-.65-11.55-2.33-28.43-3.73-37.5s-4.31-23.7-6.46-32.5c-2.16-8.8-5.96-22.19-8.46-29.75-2.49-7.56-6.83-19.26-9.64-26-2.82-6.74-8.22-18.44-12-26-3.79-7.56-10.12-19.04-14.07-25.5-3.95-6.46-9.21-14.68-11.68-18.25-2.48-3.57-7.2-10.1-10.5-14.5s-8.27-10.7-11.04-14c-2.77-3.3-9.1-10.46-14.07-15.91-4.97-5.46-14.2-14.65-20.53-20.44-6.33-5.79-16.23-14.3-22-18.91-5.77-4.62-17.48-13.02-26-18.67-8.52-5.65-19.55-12.54-24.5-15.29-4.95-2.76-12.6-6.82-17-9.04-4.4-2.21-13.85-6.51-21-9.56-7.15-3.04-19.75-7.78-28-10.53-8.25-2.75-21.52-6.58-29.5-8.51-7.98-1.93-20.35-4.5-27.5-5.71-9.17-1.54-12.56-2.46-11.5-3.13.99-.62-.47-.74-4.25-.37-3.42.34-5.95.17-6.25-.43-.32-.63-9.41-.94-24.75-.83-13.34.1-26.27.33-28.75.52z">
	</path>
	<path class="svg-btc1" d="M436.13 3.86c-.86.51 3.46 1.66 11.5 3.04 7.08 1.22 19.39 3.81 27.37 5.74 7.98 1.93 21.25 5.76 29.5 8.51s20.85 7.49 28 10.53c7.15 3.05 16.6 7.35 21 9.56 4.4 2.22 12.05 6.28 17 9.04 4.95 2.75 15.98 9.64 24.5 15.29 8.52 5.65 20.23 14.05 26 18.67 5.77 4.61 15.67 13.12 22 18.91 6.33 5.79 15.56 14.98 20.53 20.44 4.97 5.45 11.3 12.61 14.07 15.91 2.77 3.3 7.74 9.6 11.04 14 3.3 4.4 8.02 10.93 10.5 14.5 2.47 3.57 7.73 11.79 11.68 18.25 3.95 6.46 10.28 17.94 14.07 25.5 3.78 7.56 9.18 19.26 12 26 2.81 6.74 7.15 18.44 9.64 26 2.5 7.56 6.3 20.95 8.46 29.75 2.15 8.8 5.06 23.43 6.46 32.5 1.4 9.07 3.08 25.95 3.73 37.5.92 16.31.92 25.47-.01 41-.67 11-2.3 27.2-3.64 36-1.33 8.8-3.6 21.18-5.04 27.5-1.43 6.32-3.97 16.23-5.64 22-1.67 5.77-5.07 16.13-7.55 23-2.49 6.88-7.2 18.58-10.48 26-3.29 7.42-8.27 17.77-11.08 23-2.82 5.23-7.56 13.55-10.54 18.5-2.99 4.95-8.82 13.95-12.96 20-4.15 6.05-11.84 16.4-17.1 23-5.26 6.6-17.68 20.12-27.6 30.04-9.92 9.92-23.44 22.34-30.04 27.6-6.6 5.26-16.95 12.95-23 17.1-6.05 4.14-15.05 9.97-20 12.96-4.95 2.98-13.27 7.72-18.5 10.54-5.23 2.81-15.58 7.79-23 11.08-7.42 3.28-19.12 7.99-26 10.48-6.87 2.48-17.23 5.88-23 7.55s-15.68 4.21-22 5.64c-6.32 1.44-18.7 3.71-27.5 5.04-8.8 1.34-25 2.97-36 3.64-15.53.93-24.69.93-41 .01-11.55-.65-28.43-2.33-37.5-3.73s-23.7-4.31-32.5-6.46c-8.8-2.16-22.19-5.96-29.75-8.46-7.56-2.49-19.26-6.83-26-9.64-6.74-2.82-18.44-8.22-26-12-7.56-3.79-19.04-10.12-25.5-14.07-6.46-3.95-14.68-9.21-18.25-11.68-3.57-2.48-10.1-7.2-14.5-10.5s-10.7-8.27-14-11.04c-3.3-2.77-10.46-9.1-15.91-14.07-5.46-4.97-14.65-14.2-20.44-20.53-5.79-6.33-14.3-16.23-18.91-22-4.62-5.77-13.02-17.48-18.67-26-5.65-8.52-12.54-19.55-15.29-24.5-2.76-4.95-6.82-12.6-9.04-17-2.21-4.4-6.51-13.85-9.56-21-3.04-7.15-7.78-19.75-10.53-28-2.75-8.25-6.58-21.52-8.51-29.5-1.94-7.98-4.05-17.65-4.69-21.5-.88-5.2-1.4-6.55-2.06-5.25-.49.96-.67 2.2-.39 2.75.28.55.72 3.7 1 7s1.65 11.96 3.07 19.25c1.41 7.29 3.68 17.75 5.04 23.25 1.37 5.5 4.3 15.85 6.53 23 2.22 7.15 6.52 19.3 9.55 27 3.03 7.7 9.07 21.2 13.42 30s11.39 21.75 15.65 28.77c4.26 7.03 11.42 18.05 15.92 24.5 4.5 6.45 12.84 17.36 18.54 24.23 5.7 6.88 14.84 17.17 20.32 22.87 5.48 5.71 15.07 14.93 21.32 20.5s16.15 13.85 22 18.4c5.85 4.55 14.92 11.13 20.14 14.62 5.22 3.49 13.78 8.95 19 12.12 5.22 3.17 14.9 8.59 21.5 12.05 6.6 3.46 18.53 9.07 26.5 12.46 7.97 3.4 20.13 8.1 27 10.45 6.88 2.35 17.45 5.66 23.5 7.36 6.05 1.7 18.65 4.65 28 6.55 9.35 1.91 23.3 4.29 31 5.29 11.18 1.45 20.94 1.81 48.5 1.81s37.32-.36 48.5-1.81c7.7-1 21.65-3.38 31-5.29 9.35-1.9 21.95-4.85 28-6.55 6.05-1.7 16.74-5.05 23.75-7.46 7.01-2.4 19.61-7.31 28-10.9 8.39-3.6 21.33-9.81 28.75-13.81 7.42-4 18.45-10.38 24.5-14.17 6.05-3.79 14.83-9.61 19.5-12.92 4.67-3.32 12.77-9.45 18-13.62s14.67-12.31 21-18.08c6.33-5.78 15.86-15.2 21.19-20.94 5.33-5.74 13.15-14.7 17.39-19.93 4.23-5.23 10.2-12.87 13.25-17 3.06-4.12 8.79-12.45 12.74-18.5 3.95-6.05 10.46-16.85 14.47-24 4.01-7.15 9.86-18.62 12.99-25.5 3.13-6.87 7.74-17.67 10.24-24 2.49-6.33 6.36-17.35 8.59-24.5 2.22-7.15 5.16-17.5 6.53-23 1.36-5.5 3.6-15.85 4.98-23 1.37-7.15 3.31-19.3 4.31-27 1.45-11.17 1.82-20.87 1.81-48-.01-26.9-.39-36.92-1.82-48-1-7.7-2.93-19.85-4.31-27-1.37-7.15-3.79-18.18-5.38-24.5-1.59-6.32-4.77-17.35-7.06-24.5-2.29-7.15-6.54-18.85-9.43-26-2.89-7.15-7.76-18.18-10.82-24.5-3.05-6.32-8.32-16.45-11.71-22.5-3.38-6.05-10.33-17.3-15.43-25-5.1-7.7-12.77-18.5-17.06-24-4.28-5.5-12.17-14.95-17.52-21-5.35-6.05-13.94-15.06-19.09-20.02-5.15-4.96-13.22-12.39-17.93-16.5-4.72-4.11-13.05-10.9-18.5-15.08-5.46-4.17-14.2-10.46-19.43-13.96-5.23-3.51-14.67-9.46-21-13.22s-17.12-9.66-24-13.1c-6.87-3.45-19.25-9-27.5-12.35-8.25-3.34-21.3-8.1-29-10.56-7.7-2.47-19.62-5.86-26.5-7.53-6.87-1.67-17.45-3.96-23.5-5.08-6.05-1.13-16.62-2.73-23.5-3.58-6.87-.84-12.95-1.52-13.5-1.51-.55.01-1.62.39-2.37.85z">
	</path>
	<path class="svg-btc2" d="M358 73.03c-5.23.49-15.57 1.85-23 3.03-7.43 1.18-18.79 3.44-25.25 5.04-6.46 1.59-16.14 4.29-21.5 5.99-5.36 1.7-15.82 5.6-23.25 8.66-7.43 3.06-17.78 7.81-23 10.55-5.22 2.74-12.65 6.79-16.5 9-3.85 2.22-10.37 6.3-14.5 9.07-4.12 2.77-11.32 7.95-16 11.51-4.68 3.55-13.68 11.08-20 16.72-6.32 5.63-16.26 15.57-22.08 22.07-5.82 6.51-13.49 15.65-17.04 20.33-3.56 4.68-8.74 11.88-11.51 16-2.77 4.13-6.85 10.65-9.07 14.5-2.21 3.85-6.26 11.28-9 16.5-2.74 5.22-7.49 15.57-10.55 23-3.06 7.43-6.96 17.89-8.66 23.25-1.7 5.36-4.39 15.04-5.99 21.5-1.59 6.46-3.83 17.6-4.96 24.75-1.14 7.15-2.58 19.07-3.2 26.5-.64 7.61-.89 21.35-.58 31.5.3 9.9 1.5 24.75 2.65 33 1.16 8.25 3.24 19.95 4.62 26 1.39 6.05 3.63 14.82 4.99 19.5 1.35 4.68 4.07 13 6.04 18.5 1.97 5.5 6 15.4 8.95 22 2.96 6.6 8.01 16.73 11.22 22.5 3.21 5.77 8.6 14.77 11.98 20 3.38 5.23 6.16 8.94 6.17 8.25.01-.69-1.14-3.84-2.56-7-1.42-3.16-3.7-8.67-5.07-12.25s-3.76-10.33-5.31-15c-1.56-4.67-3.76-11.87-4.9-16-1.13-4.12-3.19-13.12-4.57-20-1.38-6.87-3.27-18.35-4.21-25.5-1.2-9.18-1.69-20.04-1.68-37 .01-18.85.47-27.33 2.14-39.5 1.17-8.52 3.26-20.79 4.65-27.25 1.39-6.46 3.63-15.46 4.97-20 1.34-4.54 3.82-12.3 5.52-17.25 1.7-4.95 5.31-14.18 8.03-20.5 2.71-6.32 7.65-16.56 10.97-22.75 3.32-6.19 8.47-15.19 11.44-20 2.96-4.81 10.1-15.05 15.85-22.75 5.75-7.7 16.03-19.81 22.85-26.91 6.82-7.1 16.68-16.55 21.9-21 5.22-4.46 11.53-9.7 14-11.66 2.47-1.96 8.78-6.51 14-10.11 5.22-3.59 13.78-9.03 19-12.07 5.23-3.04 14-7.79 19.5-10.55 5.5-2.77 14.05-6.7 19-8.75 4.95-2.05 12.82-5.04 17.5-6.65 4.68-1.61 12.1-3.98 16.5-5.27 4.4-1.29 13.18-3.5 19.5-4.91 6.32-1.41 18.7-3.53 27.5-4.72 12.5-1.68 21.25-2.16 40-2.2 17.04-.03 27.77.45 37 1.66 7.15.93 19.52 3.03 27.5 4.66 7.98 1.62 21.02 5.04 29 7.58s19 6.43 24.5 8.63c5.5 2.2 15.4 6.7 22 9.99s16.95 8.97 23 12.61c6.05 3.65 16.17 10.41 22.5 15.04 6.33 4.63 16 12.36 21.5 17.17 5.5 4.81 11.58 10.38 13.5 12.37 1.92 2 3.84 3.62 4.25 3.61.41-.01-2.06-3.9-5.5-8.65-3.44-4.74-10.34-13.41-15.33-19.25-5-5.84-14.45-15.67-21-21.85-6.56-6.17-16.19-14.65-21.42-18.84-5.23-4.18-14.45-10.89-20.5-14.91-6.05-4.02-15.95-10.06-22-13.42-6.05-3.36-16.4-8.53-23-11.49-6.6-2.95-16.5-6.98-22-8.95-5.5-1.97-13.82-4.69-18.5-6.04-4.68-1.36-13.45-3.6-19.5-4.99-6.05-1.38-17.75-3.47-26-4.64-10.29-1.46-21.75-2.24-36.5-2.49-11.82-.21-25.77.03-31 .53z">
	</path>
	<path class="svg-btc3" d="M181.82 81.21c-2.38.45-6.79 1.97-9.82 3.38-3.03 1.42-9.1 5.12-13.5 8.23-4.4 3.12-10.93 8.17-14.5 11.24-3.57 3.07-9.91 8.93-14.07 13.01-4.16 4.09-10.72 11.03-14.57 15.43-3.85 4.4-9.7 11.38-13 15.5-3.29 4.13-8.94 11.78-12.54 17-3.61 5.22-8.94 13.32-11.85 18s-8.27 13.9-11.92 20.5c-3.64 6.6-9.18 17.63-12.3 24.5-3.12 6.88-7.08 16.78-8.79 22-1.71 5.22-3.37 12.65-3.68 16.5-.36 4.4-.14 7.84.58 9.25.8 1.58 2.03 2.25 4.14 2.25 1.65 0 3.74-.34 4.64-.75.91-.41 3.1-2.77 4.88-5.25 1.78-2.48 8.53-13.73 15-25 6.48-11.28 15.6-26.35 20.27-33.5 4.67-7.15 11.68-17.28 15.58-22.5 3.9-5.22 10.28-13.32 14.17-18 3.9-4.68 10.93-12.55 15.64-17.5 4.7-4.95 16.14-15.75 25.42-24 9.27-8.25 19.96-17.92 23.74-21.5 3.78-3.58 8.18-8.75 9.76-11.5s2.88-6.12 2.89-7.5c0-1.37-.9-3.96-1.99-5.75-1.2-1.94-3.11-3.48-4.75-3.83-1.51-.32-3.28-.69-3.93-.81-.66-.12-3.13.15-5.5.6z">
	</path>
	<path class="svg-btc1" d="M394 114.98c-5.77.46-15.9 1.57-22.5 2.47-6.6.91-17.18 2.79-23.5 4.19-6.32 1.4-15.1 3.6-19.5 4.89-4.4 1.29-11.82 3.66-16.5 5.27-4.68 1.61-12.55 4.6-17.5 6.65-4.95 2.05-13.5 5.98-19 8.75-5.5 2.76-14.27 7.51-19.5 10.55-5.22 3.04-13.78 8.48-19 12.07-5.22 3.6-11.53 8.15-14 10.11-2.47 1.96-8.78 7.2-14 11.66-5.22 4.45-15.08 13.9-21.9 21-6.82 7.1-17.1 19.21-22.85 26.91-5.75 7.7-12.89 17.94-15.85 22.75-2.97 4.81-8.12 13.81-11.44 20-3.32 6.19-8.26 16.43-10.97 22.75-2.72 6.32-6.33 15.55-8.03 20.5-1.7 4.95-4.18 12.71-5.52 17.25-1.34 4.54-3.58 13.54-4.97 20-1.39 6.46-3.48 18.73-4.65 27.25-1.67 12.17-2.13 20.65-2.14 39.5-.01 16.96.48 27.82 1.68 37 .94 7.15 2.83 18.63 4.21 25.5 1.38 6.88 3.43 15.88 4.56 20 1.14 4.13 3.57 12 5.41 17.5 1.85 5.5 4.76 13.38 6.47 17.5 1.72 4.13 3.86 9.52 4.76 12 .89 2.48 4.65 8.55 8.34 13.5 3.69 4.95 11.16 13.95 16.61 20 5.44 6.05 14.15 14.92 19.34 19.72 5.19 4.79 13.94 12.21 19.44 16.5 5.5 4.28 14.5 10.76 20 14.4 5.5 3.63 12.7 8.2 16 10.14 3.3 1.95 10.95 6.02 17 9.05 6.05 3.03 14.82 7.08 19.5 9.01 4.68 1.92 13 5.06 18.5 6.97 5.5 1.9 14.27 4.62 19.5 6.04s15.13 3.69 22 5.06c6.88 1.36 19.48 3.24 28 4.18 12.09 1.32 20.67 1.57 39 1.15 16.27-.38 27.65-1.19 37-2.62 7.43-1.14 17.77-3.02 23-4.19 5.23-1.17 13.1-3.17 17.5-4.44 4.4-1.27 12.05-3.65 17-5.29 4.95-1.63 14.85-5.52 22-8.64 7.15-3.12 17.27-7.95 22.5-10.74 5.23-2.8 13.77-7.82 19-11.17 5.23-3.35 12.88-8.49 17-11.42 4.13-2.93 11.77-8.87 17-13.19s14.99-13.4 21.71-20.19c6.71-6.78 15.18-15.93 18.82-20.33 3.64-4.4 9.18-11.6 12.31-16 3.13-4.4 8.44-12.27 11.79-17.5 3.35-5.23 8.37-13.77 11.17-19 2.79-5.23 7.62-15.35 10.74-22.5s7.01-17.05 8.64-22c1.64-4.95 4.02-12.6 5.29-17 1.27-4.4 3.27-12.27 4.44-17.5 1.17-5.23 3.05-15.57 4.19-23 1.43-9.35 2.24-20.73 2.62-37 .42-18.33.17-26.91-1.15-39-.94-8.52-2.82-21.12-4.18-28-1.37-6.87-3.64-16.77-5.06-22-1.42-5.23-4.14-14-6.04-19.5-1.91-5.5-5.05-13.82-6.97-18.5-1.93-4.68-5.99-13.45-9.03-19.5-3.03-6.05-7.37-14.15-9.65-18-2.27-3.85-5.48-9.04-7.13-11.54-1.66-2.49-6.61-7.91-11.01-12.03-4.4-4.12-11.15-10.23-15-13.58-3.85-3.35-12.17-9.87-18.5-14.49-6.33-4.62-16.45-11.38-22.5-15.03-6.05-3.64-16.4-9.32-23-12.61-6.6-3.29-16.5-7.79-22-9.99s-16.52-6.09-24.5-8.63c-7.98-2.54-21.02-5.96-29-7.58-7.98-1.63-20.12-3.66-27-4.5-6.87-.85-20.6-1.73-30.5-1.96-9.9-.23-22.73-.04-28.5.42z">
	</path>
	<path class="svg-btc0" d="M313.5 147.55c-2.2.8-5.07 2.47-6.38 3.7-1.31 1.24-2.99 3.71-3.75 5.5-.97 2.3-1.37 7.94-1.37 19.25v16c-56.05-.04-56.57-.01-61 2.32-3.19 1.68-5.16 3.66-6.77 6.78-1.99 3.86-2.27 5.88-2.27 16.4 0 10.69.26 12.49 2.36 16.5 1.68 3.19 3.66 5.16 6.78 6.77 3.78 1.96 5.9 2.27 15.15 2.25L267 243v272c-23.36-.05-24.82.16-27.9 2.22-1.87 1.25-4.26 3.86-5.31 5.78-1.64 3-1.86 5.2-1.6 15.55.24 9.39.7 12.64 2.06 14.75.96 1.48 3.21 3.6 5 4.7 3.06 1.87 5.02 1.99 33 2H302c.04 26.74.48 36.3 1 38.5.54 2.26 2.37 5.42 4.22 7.28 1.86 1.85 5.02 3.68 7.28 4.22 2.2.52 8.05.96 13 .97 4.95.01 10.8-.49 13-1.1 2.2-.62 5.4-2.53 7.12-4.25 1.72-1.72 3.63-4.92 4.25-7.12.63-2.25 1.12-11.56 1.12-21.25L353 560l30.5.5c.41 30.75.9 37.17 1.93 40 .96 2.63 2.91 5.03 5.68 7 3.97 2.83 4.86 3.02 15.3 3.35 6.12.2 12.99-.14 15.34-.75 2.34-.6 5.6-2.22 7.25-3.6 1.95-1.63 3.53-4.33 4.51-7.75 1.08-3.75 1.5-9.98 1.49-21.75l-.01-16.5c16.67-1.26 26.35-2.5 32.26-3.56 5.91-1.07 14.46-3.23 19-4.8 4.54-1.57 11.18-4.33 14.75-6.13 3.57-1.79 8.96-4.9 11.96-6.89 3-1.99 7.99-6.1 11.08-9.12 3.1-3.02 7.97-9.1 10.84-13.5s6.59-11.6 8.27-16c1.67-4.4 3.97-12.27 5.1-17.5 1.62-7.47 2.06-13.14 2.08-26.5.02-15.13-.27-18.19-2.65-27.75-1.48-5.91-4.21-14.01-6.08-18-1.86-3.99-5.72-10.18-8.56-13.75-2.84-3.57-7.27-8.32-9.85-10.54-2.58-2.23-6.94-5.51-9.69-7.3-2.75-1.79-7.7-4.53-11-6.1-3.3-1.56-9.82-3.97-14.5-5.37s-9.96-2.8-11.75-3.11c-1.79-.32-3.26-.92-3.27-1.33-.02-.41 1.67-1.29 3.75-1.95 2.07-.66 7.82-3.21 12.77-5.67 4.95-2.47 12.15-7.13 16-10.36 3.85-3.23 9.14-8.55 11.76-11.82 2.62-3.27 6.08-8.43 7.68-11.45 1.6-3.02 4.03-8.87 5.41-13 1.37-4.12 3.02-12 3.67-17.5.67-5.75.89-13.61.5-18.5-.37-4.68-1.32-11.43-2.13-15-.8-3.57-2.37-8.97-3.5-12-1.12-3.03-3.46-7.97-5.2-11-1.74-3.03-5.87-8.36-9.18-11.86-3.3-3.51-9.16-8.47-13.01-11.05-3.85-2.57-10.6-6.17-15-7.99-4.4-1.83-12.27-4.41-17.5-5.74-5.23-1.32-15.01-2.96-21.75-3.63l-12.26-1.23c-.03-22.47-.48-30.91-1.01-33.25-.54-2.34-1.99-5.62-3.23-7.29-1.41-1.9-4.31-3.81-7.75-5.09-4.58-1.71-7.26-1.99-16-1.69-8.96.31-11.12.73-14.74 2.84-2.34 1.37-5.14 4.05-6.22 5.98-1.74 3.09-1.98 5.47-2.01 20.25L384 192h-31c-.01-22.86-.51-31.3-1.12-33.5-.62-2.2-2.53-5.36-4.25-7.02-1.77-1.71-5.19-3.56-7.88-4.25-2.61-.68-8.69-1.21-13.5-1.19-5.06.03-10.44.66-12.75 1.51z">
	</path>
	<path class="svg-btc4" d="M342.01 146.75c.01.41 1.58 1.76 3.5 3s4.27 3.71 5.23 5.5c1.43 2.65 1.8 6.32 2 20L353 192h23c0-28.83-.28-31.63-2-35.5-1.1-2.47-3.24-5.35-4.75-6.39-1.51-1.03-4.55-2.38-6.75-2.99-2.2-.61-7.71-1.11-12.25-1.11-4.54-.01-8.24.33-8.24.74zM424 147c0 .55 1.01 1.45 2.25 2.01 1.24.55 3.26 2.35 4.5 4 1.24 1.64 2.69 4.9 3.23 7.24.53 2.34.98 10.78.99 18.75l.01 14.5c14.35 1.24 19.53 1.8 20.77 2.05l2.25.45c0-25.3-.51-33.99-1.22-36.75-.72-2.83-2.45-5.96-4.27-7.75-1.68-1.65-4.84-3.56-7.03-4.23-2.19-.68-7.92-1.24-12.73-1.25-5.18-.01-8.75.39-8.75.98zm92.98 78.62c2.3 2.68 5.46 7.13 7.03 9.88 1.56 2.75 3.76 7.47 4.88 10.5 1.13 3.03 2.7 8.43 3.5 12 .81 3.57 1.76 10.32 2.13 15 .39 4.89.17 12.75-.5 18.5-.65 5.5-2.3 13.38-3.67 17.5-1.38 4.13-3.81 9.98-5.41 13-1.6 3.02-5.06 8.18-7.68 11.45-2.62 3.27-7.91 8.59-11.76 11.82-3.85 3.23-11.05 7.89-16 10.36-4.95 2.46-10.7 5.01-12.77 5.67-2.08.66-3.77 1.54-3.75 1.95.01.41 2.16 1.17 4.77 1.68 2.61.52 8.13 2.04 12.25 3.38 4.13 1.35 9.07 3.16 11 4.03 3.39 1.53 3.7 1.48 10-1.53 3.58-1.71 8.98-4.79 12-6.85 3.02-2.05 7.52-5.71 10-8.13 2.48-2.41 5.42-5.5 6.54-6.86 1.12-1.36 2.36-3.26 2.75-4.22.39-.96 1.16-1.75 1.71-1.75s1-.45 1-1 .99-2.46 2.21-4.25 3.42-6.4 4.9-10.25c1.48-3.85 3-9.02 3.38-11.5.38-2.48.87-4.84 1.1-5.25.23-.41.67-5.14 1-10.5.32-5.36.13-12.9-.42-16.75-.55-3.85-1.27-8.69-1.59-10.75-.32-2.06-1.3-5.89-2.18-8.5-.87-2.61-2.96-7.45-4.63-10.75s-4.7-8.25-6.73-11c-2.03-2.75-6-7.03-8.81-9.5-2.81-2.47-7.5-5.92-10.42-7.66-2.92-1.73-6.37-3.48-7.66-3.88-2.01-.62-1.76-.04 1.83 4.16zM232.13 239.9c.32 5.93.81 7.45 3.47 10.75 1.75 2.18 4.79 4.47 7 5.26 2.3.84 8.01 1.45 13.9 1.5l10 .09.5-14.5c-19.88-.03-22.16-.36-25.89-2.26-2.41-1.23-5.11-3.48-6-5-.89-1.52-2-2.76-2.48-2.75-.48 0-.7 3.12-.5 6.91zm129.37-2.21c-2.75.18-6.01.55-7.25.82L352 239l.5 107.48c12.4 1.84 17.46 2.4 19.25 2.44l3.25.08-.03-95.5c8.16-1.15 16.94-1.49 24.78-1.49 7.84-.01 19.54.72 26 1.61 6.46.89 12.43 1.72 13.25 1.86.82.13 2.85.76 4.5 1.41 1.65.64 3.56 1.38 4.25 1.64s1.48.02 1.75-.53-2.09-2.7-5.25-4.78-9.35-5.29-13.75-7.13c-4.4-1.85-12.05-4.17-17-5.18-4.95-1-13.73-2.29-19.5-2.87-5.77-.58-14.32-.97-19-.87-4.68.11-10.75.34-13.5.52z">
	</path>
	<path class="svg-btc1" d="M378.75 252.74L375 253l.5 95.5c9.8.77 17.67.71 23.82.35 6.15-.36 15.23-1.62 20.18-2.78 4.95-1.17 12.6-3.9 17-6.06 4.6-2.26 10.09-5.96 12.92-8.72 2.71-2.63 6.21-6.81 7.79-9.29 1.57-2.48 3.8-7.43 4.94-11 1.55-4.83 2.09-9.2 2.12-17 .03-8.91-.37-11.64-2.64-18-1.47-4.12-4.46-9.86-6.65-12.75-2.19-2.89-4.43-5.02-4.98-4.75-.55.27-3.81-.37-7.25-1.44-3.44-1.06-8.05-2.18-10.25-2.47-2.2-.3-8.05-1.03-13-1.62-4.95-.6-15.3-.95-23-.79-7.7.16-15.69.41-17.75.56z">
	</path>
	<path class="svg-btc4" d="M527.1 389.72c.89.98 3.61 4.26 6.06 7.28 2.45 3.02 6.11 8.99 8.15 13.25 2.03 4.26 4.89 12.59 6.37 18.5 2.38 9.56 2.67 12.62 2.65 27.75-.02 13.36-.46 19.03-2.08 26.5-1.13 5.23-3.43 13.1-5.1 17.5-1.68 4.4-5.4 11.6-8.27 16-2.87 4.4-7.74 10.48-10.84 13.5-3.09 3.02-8.08 7.13-11.08 9.12-3 1.99-8.39 5.1-11.96 6.89-3.57 1.8-10.21 4.56-14.75 6.13-4.54 1.57-13.09 3.73-19 4.8-5.91 1.06-15.59 2.3-21.51 2.75l-10.75.81c.02 28.27-.4 34.5-1.48 38.25-.98 3.42-2.56 6.12-4.51 7.75-1.65 1.38-4.91 3-7.25 3.6-2.35.61-9.22.95-15.34.75-10.07-.32-11.44-.59-15-3.03-2.15-1.47-4.57-3.95-5.37-5.5l-1.45-2.82c-.56 4.65-.04 7.8.8 10 .84 2.2 3.12 5.69 5.07 7.75 1.95 2.06 5.23 4.54 7.29 5.5 3.17 1.48 6.77 1.75 23.25 1.75 19.23 0 19.56-.04 24-2.62 2.48-1.45 5.74-4.26 7.25-6.25 1.51-2 2.74-4.19 2.72-4.88-.01-.69.32-1.63.75-2.1.43-.46.95-1.59 1.17-2.5.21-.91.56-7.95.79-15.65.22-7.7.55-14.45.73-15 .18-.55 3.88-1.15 8.21-1.32 4.33-.18 11.7-.94 16.38-1.69s9.4-1.57 10.5-1.84c1.1-.27 4.02-.99 6.5-1.61 2.48-.61 4.95-1.25 5.5-1.42.55-.17 2.35-.66 4-1.1 1.65-.44 3.45-1.12 4-1.52.55-.4 2.35-1.05 4-1.45 1.65-.39 3.23-1.02 3.5-1.38.27-.37 3.54-2.13 7.25-3.92s6.75-3.7 6.75-4.25c0-.55.67-1 1.5-1s5.01-3.49 9.31-7.75c4.29-4.26 9.02-9.44 10.5-11.5 1.48-2.06 2.69-3.98 2.69-4.25s.85-1.74 1.89-3.25 3.09-5.67 4.56-9.25c1.46-3.58 3.05-8.3 3.52-10.5.48-2.2 1.16-5.12 1.53-6.5.37-1.37 1.04-4.3 1.5-6.5.46-2.2 1.14-9.18 1.52-15.5.41-6.9.23-15.5-.46-21.5-.62-5.5-1.82-12.48-2.66-15.5-.84-3.02-1.89-6.4-2.33-7.5-.45-1.1-2.74-6.05-5.1-11-3.67-7.69-5.66-10.35-13.63-18.25-5.14-5.09-10.01-9.25-10.84-9.25-.83 0-1.61-.35-1.75-.79-.14-.43-2.39-2-5-3.5-2.61-1.49-5.09-2.72-5.5-2.74-.41-.02-.03.77.85 1.75zM366 397.66c-1.93.19-5.87.6-8.76.91l-5.26.57L352 519c3.49.75 8.66.98 13.75.99l9.25.01-.02-106.5c10.48-1.15 19.37-1.49 26.52-1.5 7.15-.01 17.73.46 23.5 1.03 5.77.57 15.23 2.17 21 3.54s10.61 2.36 10.75 2.21c.13-.15-1.67-1.7-4-3.44-2.34-1.74-7.62-4.76-11.75-6.72-4.12-1.96-11.77-4.7-17-6.08s-15.57-3.19-23-4.01c-7.43-.83-17.55-1.44-22.5-1.36-4.95.08-10.57.3-12.5.49z">
	</path>
	<path class="svg-btc1" d="M383.9 412.45c-.22.23-2.31.56-4.65.74l-4.26.31L375 520c13.56 0 22.68-.65 29-1.45 6.32-.8 15.32-2.42 20-3.59 4.68-1.18 13.23-4.39 19-7.14 8.5-4.05 11.77-6.27 17.15-11.66 4.4-4.4 7.7-8.86 9.74-13.16 1.83-3.84 3.58-9.77 4.29-14.5.93-6.2.94-10.02.01-17-.84-6.41-2.16-11.01-4.56-16-1.86-3.85-5.01-8.91-7.01-11.25-1.99-2.34-3.96-4.04-4.37-3.78-.41.26-1.65-.2-2.75-1.01s-3.01-1.47-4.25-1.47c-1.24.01-3.04-.39-4-.89-.96-.49-3.32-1.16-5.25-1.49-1.93-.32-4.62-.8-6-1.06-1.37-.26-4.3-.74-6.5-1.06-2.2-.32-13.27-.78-24.6-1.02-11.33-.25-20.78-.26-21-.02z">
	</path>
	<path class="svg-btc4" d="M232.01 556.75c-.01 3.44.55 7.26 1.24 8.5.69 1.24 1.93 3.08 2.75 4.08.82 1.01 3.07 2.59 5 3.5 3.01 1.44 7.47 1.67 32 1.67h28.5l.5-14.5c-53.72 0-59.54-.27-62-1.5-1.65-.83-4.12-2.96-5.49-4.75l-2.49-3.25-.01 6.25zm121.01 20.47c-.02 9.63-.53 19.05-1.15 21.28-.62 2.2-2.53 5.4-4.25 7.12-1.72 1.72-4.92 3.63-7.12 4.25-2.2.61-8.05 1.11-13 1.1-4.95-.01-10.8-.43-13-.93-2.79-.63-5.29-2.29-8.25-5.48L302 600c.6 5.81 1.68 9.3 2.8 11.5 1.11 2.2 3.53 5.4 5.36 7.1 1.84 1.71 5.25 3.85 7.59 4.75 3.33 1.29 7.86 1.65 21 1.67 10.09.01 18.14-.45 20.25-1.15 1.93-.64 5.41-2.67 7.75-4.51 2.41-1.91 5.21-5.41 6.48-8.11 1.96-4.18 2.26-6.64 2.5-20.5L376 575l7.5-.5v-14l-30.45-.55-.03 17.27z">
	</path>
</svg>
