<svg xmlns="http://www.w3.org/2000/svg" viewBox="0 0 1080 1080" width="1080" height="1080"><style>tspan{white-space:pre}.icon-20{fill:#fff}.icon-21{fill:#4d657b}</style><path class="icon-20" d="M497.79 1.11c-5.34.46-15.69 1.55-23 2.42-7.31.87-19.36 2.7-26.79 4.06-7.43 1.37-19.57 3.86-27 5.53-7.43 1.68-19.8 4.78-27.5 6.9-7.7 2.11-19.85 5.84-27 8.29-7.15 2.44-17.73 6.26-23.5 8.47-5.77 2.21-16.12 6.53-23 9.58-6.87 3.06-20.15 9.55-29.5 14.43-9.35 4.88-22.85 12.38-30 16.66-7.15 4.29-18.85 11.86-26 16.83-7.15 4.97-18.85 13.54-26 19.05-7.15 5.51-18.17 14.55-24.5 20.09-6.32 5.55-18.22 16.83-26.44 25.08-8.22 8.25-20.15 21.07-26.51 28.5-6.36 7.43-15.18 18.22-19.61 24-4.43 5.78-11.69 15.68-16.14 22-4.44 6.32-11.8 17.57-16.35 25-4.54 7.43-12.22 21.15-17.06 30.5-4.84 9.35-11.56 23.07-14.94 30.5-3.38 7.43-8.52 19.8-11.43 27.5-2.91 7.7-7.34 20.3-9.85 28-2.5 7.7-6.34 20.98-8.54 29.5-2.19 8.52-5.34 22.25-6.99 30.5-1.66 8.25-3.72 19.95-4.59 26-.87 6.05-2.27 16.63-3.12 23.5-.91 7.4-1.78 25.34-2.12 44-.37 20.47-.14 37.45.64 48.5.67 9.35 2.08 23.75 3.13 32 1.06 8.25 2.86 20.17 4 26.5 1.15 6.33 3.42 17.35 5.04 24.5 1.61 7.15 4.49 18.63 6.38 25.5 1.89 6.88 5.88 19.7 8.87 28.5 2.99 8.8 7.55 21.4 10.13 28 2.59 6.6 9.18 21.23 14.66 32.5s13.18 26.13 17.1 33c3.92 6.88 10.28 17.45 14.12 23.5 3.84 6.05 10.34 15.73 14.44 21.5 4.09 5.77 10.42 14.33 14.05 19 3.64 4.67 11.81 14.58 18.16 22 6.36 7.42 18.08 20.02 26.05 28 7.97 7.98 19.88 19.26 26.46 25.07 6.58 5.81 17.14 14.61 23.46 19.54 6.32 4.94 18.03 13.51 26 19.05 7.97 5.53 21.7 14.33 30.5 19.56 8.8 5.23 23.43 13.22 32.5 17.77 9.07 4.54 21 10.26 26.5 12.7 5.5 2.45 15.85 6.73 23 9.52 7.15 2.78 19.98 7.28 28.5 9.99s22.25 6.67 30.5 8.8c8.25 2.13 23.55 5.5 34 7.48 10.45 1.99 27.55 4.75 38 6.15 15.95 2.13 24.45 2.62 53 3.08 22.27.36 39.17.14 49-.64 8.25-.65 21.75-2.09 30-3.18 8.25-1.1 23.33-3.57 33.5-5.5 10.17-1.94 25.25-5.26 33.5-7.39s21.98-6.09 30.5-8.8c8.52-2.71 21.35-7.21 28.5-9.99 7.15-2.79 17.73-7.16 23.5-9.72 5.77-2.56 16.69-7.77 24.25-11.57 7.56-3.81 19.04-9.92 25.5-13.59 6.46-3.67 16.7-9.83 22.75-13.69 6.05-3.87 15.5-10.19 21-14.05 5.5-3.86 15.17-11.06 21.5-15.99s16.88-13.72 23.46-19.53c6.59-5.81 18.48-17.09 26.44-25.07 7.97-7.98 19.69-20.58 26.05-28 6.37-7.42 14.54-17.33 18.18-22 3.63-4.67 9.96-13.23 14.05-19 4.1-5.77 10.6-15.45 14.44-21.5 3.84-6.05 10.2-16.62 14.12-23.5 3.92-6.87 11.62-21.73 17.1-33 5.48-11.27 12.07-25.9 14.65-32.5 2.59-6.6 6.93-18.52 9.65-26.5 2.73-7.98 6.72-20.8 8.88-28.5 2.16-7.7 5.25-19.85 6.87-27 1.61-7.15 3.88-18.17 5.03-24.5 1.14-6.33 2.94-18.25 4-26.5 1.05-8.25 2.46-22.65 3.13-32 .78-11.05 1.01-28.03.64-48.5-.34-18.66-1.21-36.6-2.12-44-.85-6.87-2.25-17.45-3.12-23.5-.87-6.05-2.93-17.75-4.59-26-1.65-8.25-4.8-21.98-6.99-30.5-2.2-8.52-6.04-21.8-8.54-29.5-2.51-7.7-6.94-20.3-9.86-28-2.92-7.7-7.41-18.73-9.98-24.5-2.57-5.77-8.67-18.37-13.55-28-4.88-9.62-13.05-24.48-18.16-33-5.11-8.53-13.08-20.9-17.73-27.5-4.64-6.6-12.06-16.72-16.49-22.5-4.43-5.78-13.25-16.57-19.61-24-6.36-7.43-18.29-20.26-26.51-28.51-8.22-8.26-20.79-20.11-27.94-26.34-7.15-6.22-19.75-16.4-28-22.61-8.25-6.21-19.95-14.6-26-18.65-6.05-4.05-16.85-10.89-24-15.19-7.15-4.31-23.58-13.1-36.5-19.55-12.92-6.44-29.58-14.1-37-17.02-7.42-2.92-20.02-7.55-28-10.28-7.98-2.73-20.8-6.7-28.5-8.83-7.7-2.13-20.08-5.25-27.5-6.94-7.42-1.69-19.58-4.17-27-5.51-7.42-1.34-19.35-3.14-26.5-3.99-7.15-.86-19.3-2.02-27-2.57-7.7-.55-26.83-.94-42.5-.87-15.67.08-32.87.51-38.21.97z"></path><path class="icon-21" d="M427.5 227.08c-5.5.44-14.5 1.97-20 3.39-5.5 1.42-14.05 4.51-19 6.87-4.95 2.35-12.6 6.7-17 9.65s-11.82 9.24-16.5 13.96c-4.68 4.73-10.6 11.74-13.16 15.57-2.56 3.84-6.72 11.25-9.23 16.48-2.52 5.23-5.71 13.77-7.1 19-1.39 5.23-2.97 14.45-3.51 20.5-.54 6.05-.99 38.23-1 71.5-.01 38.49-.39 61.95-1.05 64.5-.57 2.2-1.78 5.8-2.69 8-.91 2.2-3.48 6.64-5.71 9.88-2.23 3.23-6.3 7.65-9.05 9.81-2.75 2.17-7.25 4.99-10 6.26-2.75 1.28-7.36 2.82-10.25 3.44-3.19.67-17 1.11-35.25 1.11h-30v66c59.54-.04 63.12.14 69 1.93 3.57 1.09 9.2 3.71 12.5 5.83 3.3 2.12 7.72 5.86 9.82 8.3 2.09 2.44 5.09 6.69 6.65 9.44 1.56 2.75 3.56 7.48 4.45 10.5 1.39 4.78 1.6 13.44 1.6 66 0 33.27.45 65.67 1.01 72 .56 6.33 2.15 15.77 3.54 21 1.39 5.23 4.56 13.77 7.05 19s6.47 12.42 8.84 16c2.38 3.58 6.51 8.93 9.18 11.89 2.67 2.97 8.24 8.2 12.36 11.62 4.13 3.42 10.43 7.99 14 10.15 3.57 2.16 9.2 5.11 12.5 6.56 3.3 1.46 9.38 3.77 13.5 5.15 4.13 1.38 10.43 3.03 14 3.66 3.57.63 16.74 1.45 29.25 1.81l22.75.66V788l-45.5-.5c-13.3-6.5-17.88-9.71-21.57-13.41-3.06-3.08-6.76-7.61-8.22-10.09-1.46-2.48-3.67-7.2-4.91-10.5-2.25-5.97-2.26-6.36-2.82-77.5l-.57-71.5c-4.21-15.5-7.79-24.73-10.67-30.5s-5.79-10.5-6.46-10.5c-.67 0-4.39 2.48-8.26 5.5s-9.84 7.2-13.28 9.27c-4.49 2.71-7.36 3.76-10.24 3.74-2.21-.01-5.45-.91-7.25-2.01-1.79-1.1-4.15-3.46-5.25-5.25-1.17-1.9-1.99-5.01-2-7.5 0-2.34.56-5.41 1.25-6.83.69-1.41 5.98-5.8 11.75-9.74 5.77-3.94 14.1-10.77 18.51-15.17 4.41-4.41 10.55-11.84 13.66-16.51 3.11-4.67 6.86-11.2 8.34-14.5 1.48-3.3 3.57-8.48 4.64-11.5 1.07-3.02 2.69-8.2 3.58-11.5 1.4-5.17 1.71-15.86 2.21-77.5.59-71.47.59-71.5 2.9-78 1.27-3.57 3.74-8.71 5.49-11.42 1.74-2.7 4.78-6.53 6.75-8.5 1.97-1.97 5.8-5.02 8.5-6.79 2.71-1.76 7.62-4.2 10.92-5.43 5.37-1.99 8.23-2.25 27.25-2.54L469 291v-65c-24.41.22-36 .64-41.5 1.08zm186.88 31.53l.12 32.89c39.91.98 44.93 1.42 49 2.92 2.75 1.01 7.25 3.28 10 5.06 2.75 1.77 7.29 5.65 10.09 8.62 2.8 2.97 6.24 7.65 7.64 10.4 1.4 2.75 3.13 6.8 3.85 9 1 3.06 1.45 20.45 1.93 74 .53 59.47.86 71.13 2.26 77.5.9 4.13 2.56 10.2 3.7 13.5 1.14 3.3 4.08 10.16 6.55 15.25 2.46 5.09 4.93 9.25 5.48 9.25.55 0 3.6-2.14 6.77-4.75 3.17-2.61 8.91-6.75 12.75-9.2 4.53-2.9 8.38-4.58 10.98-4.81 2.51-.22 5.3.32 7.48 1.46 1.91.99 4.54 3.37 5.84 5.3 1.89 2.8 2.29 4.53 2.02 8.66-.25 3.8-1 5.87-2.84 7.86-1.37 1.49-6.55 5.46-11.5 8.81-4.95 3.35-12.6 9.72-17 14.15s-10.1 11.2-12.67 15.04c-2.57 3.84-6.72 11.25-9.22 16.48-2.51 5.23-5.78 14-7.29 19.5l-2.73 10c-1.05 125.86-1.51 143.96-2.49 147-.71 2.2-2.71 6.65-4.45 9.89-1.73 3.23-5.66 8.41-8.72 11.5-3.46 3.47-8.41 7.03-13 9.35-4.4 2.21-10.08 4.14-13.93 4.74-3.58.55-14.26 1.01-23.75 1.01L614 789v65.5c39.2-1.14 49.95-1.93 54.5-2.94 3.85-.86 9.92-2.52 13.5-3.68 3.58-1.17 10.55-4.04 15.5-6.38 4.95-2.34 12.15-6.62 16-9.51 3.85-2.89 9.87-8.01 13.37-11.37 3.5-3.37 8.91-9.49 12-13.62 3.1-4.12 7.52-11.1 9.82-15.5 2.3-4.4 5.58-12.27 7.3-17.5 1.72-5.23 3.76-14 4.55-19.5 1.11-7.81 1.43-23.93 1.44-73.5.01-53.79.24-64.42 1.55-69.5.84-3.3 2.72-8.48 4.18-11.5 1.51-3.15 5.46-8.33 9.22-12.11 3.61-3.63 8.82-7.74 11.57-9.13 2.75-1.39 6.8-3.12 9-3.84 2.79-.91 13.85-1.47 36.5-1.86l32.5-.56v-65c-64.33-1.01-66.28-1.15-71.5-3.29-3.02-1.24-7.71-3.71-10.41-5.48-2.7-1.78-7.13-5.71-9.84-8.73-2.72-3.02-6-7.75-7.31-10.5-1.31-2.75-3.07-7.7-3.91-11-1.31-5.09-1.54-15.73-1.54-70 0-52.3-.28-65.83-1.53-74-.83-5.5-2.89-14.05-4.56-19-1.67-4.95-4.92-12.6-7.22-17-2.29-4.4-6.68-11.37-9.75-15.5-3.07-4.12-8.47-10.36-12-13.84-3.54-3.49-9.13-8.28-12.43-10.65-3.3-2.36-9.37-6.12-13.5-8.36-4.12-2.24-11.33-5.4-16-7.02-4.67-1.62-11.87-3.69-16-4.6-5.17-1.13-14.84-1.83-31.12-2.23l-23.62-.58.12 32.89z"></path></svg>