<svg xmlns="http://www.w3.org/2000/svg" viewBox="0 0 393 394" width="393" height="394">
	<style>
		tspan{white-space:pre}.captain-20{fill:#8c6b37}.captain-21{fill:#1d202d}.captain-22{fill:#ffdd95}.captain-23{fill:#ffd10b}.captain-24{fill:#f0f5f8}.captain-25{fill:#99783d}
	</style>
	<path class="captain-20" d="M247.44 387.15h-86.67c-49.62 0-89.84-40.22-89.84-89.84V169.35h266.35v127.96c0 49.62-40.23 89.84-89.84 89.84z">
	</path>
	<path fill-rule="evenodd" class="captain-21" d="M160.77 393.98c-53.3 0-96.67-43.37-96.67-96.67V169.35c0-3.77 3.06-6.83 6.83-6.83h266.35c3.77 0 6.83 3.06 6.83 6.83v127.96c0 53.3-43.37 96.67-96.67 96.67h-86.67zM77.75 176.17v121.14c0 45.78 37.25 83.01 83.02 83.01h86.67c45.77 0 83.02-37.23 83.02-83.01V176.17H77.75z">
	</path>
	<path class="captain-22" d="M274.97 318.88H133.9c-23.04 0-41.72-18.67-41.72-41.72V155.04h224.51v122.12c0 23.05-18.68 41.72-41.72 41.72z">
	</path>
	<path fill-rule="evenodd" class="captain-21" d="M133.89 325.71c-26.76 0-48.53-21.78-48.53-48.54V155.04c0-3.77 3.05-6.83 6.82-6.83h224.51c3.77 0 6.83 3.06 6.83 6.83v122.13c0 26.76-21.79 48.54-48.55 48.54H133.89zM99.01 161.87v115.3c0 19.24 15.65 34.88 34.88 34.88h141.08c19.24 0 34.89-15.64 34.89-34.88v-115.3H99.01z">
	</path>
	<path class="captain-22" d="M348.42 271.1h-11.14v-81.92h11.14c8.87 0 16.06 7.19 16.06 16.05v49.81c0 8.87-7.19 16.06-16.06 16.06z">
	</path>
	<path fill-rule="evenodd" class="captain-21" d="M337.28 277.92c-3.77 0-6.82-3.05-6.82-6.82v-81.92c0-3.77 3.05-6.83 6.82-6.83h11.13c12.63 0 22.89 10.27 22.89 22.88v49.81c0 12.62-10.26 22.88-22.89 22.88h-11.13zm6.83-13.65h4.3c5.1 0 9.23-4.14 9.23-9.23v-49.81c0-5.08-4.13-9.23-9.23-9.23h-4.3v68.27z">
	</path>
	<path class="captain-23" d="M337.28 167.91c-96.5 50.55-185.29 50.55-266.35 0v-60.65h266.35v60.65z">
	</path>
	<path fill-rule="evenodd" class="captain-21" d="M198.31 212.53c-45.72 0-89.48-12.94-130.99-38.83-2-1.24-3.22-3.43-3.22-5.79v-60.65c0-3.78 3.06-6.83 6.83-6.83h266.35c3.77 0 6.83 3.05 6.83 6.83v60.65c0 2.54-1.41 4.87-3.66 6.05-49.09 25.71-96.59 38.57-142.14 38.57zm132.14-48.77v-49.67H77.75v50c76.64 46.34 161.6 46.23 252.7-.33zm6.83 4.15h.07-.07z">
	</path>
	<path class="captain-22" d="M70.93 271.1H59.68c-8.87 0-16.06-7.19-16.06-16.06v-49.81c0-8.87 7.19-16.05 16.06-16.05h11.25v81.92z">
	</path>
	<path fill-rule="evenodd" class="captain-21" d="M59.68 277.92c-12.62 0-22.89-10.26-22.89-22.88v-49.81c0-12.61 10.27-22.88 22.89-22.88h11.25c3.77 0 6.82 3.06 6.82 6.83v81.92c0 3.77-3.05 6.82-6.82 6.82H59.68zm-9.23-72.69v49.81c0 5.09 4.14 9.23 9.23 9.23h4.42V196h-4.42c-5.09 0-9.23 4.15-9.23 9.23z">
	</path>
	<path class="captain-24" d="M174.38 11.68c-26.46 11.8-74.09 28.54-133.25 29.72-13.8.28-24.81 11.65-24.81 25.45 0 6.04 2.11 11.88 6.03 16.47 16.36 19.18 63.52 69.64 110.68 74.36h128.38c47.17-4.72 94.33-55.18 110.69-74.36 3.91-4.59 6.03-10.43 6.03-16.47 0-13.8-11.02-25.17-24.82-25.45-59.15-1.18-106.79-17.92-133.25-29.72-3.58-1.6-7.33-2.81-11.16-3.63-3.84-.82-7.76-1.23-11.68-1.23s-7.84.41-11.68 1.23c-3.83.82-7.58 2.03-11.16 3.63z">
	</path>
	<path fill-rule="evenodd" class="captain-21" d="M133.03 164.5c-49.79-4.95-97.6-55.32-115.87-76.75-4.95-5.79-7.67-13.21-7.67-20.89C9.49 49.4 23.62 34.92 41 34.57c56.47-1.12 102.19-16.46 130.6-29.12 4.02-1.79 8.22-3.16 12.52-4.07 4.31-.92 8.7-1.38 13.1-1.38s8.79.46 13.1 1.38c4.3.91 8.5 2.28 12.52 4.07 28.41 12.67 74.13 28 130.61 29.12 17.37.35 31.5 14.83 31.5 32.29 0 7.68-2.72 15.1-7.66 20.89-18.27 21.43-66.09 71.8-115.2 76.72l-64.87.03h-64.19zM41.26 48.23c-9.99.2-18.12 8.55-18.12 18.63 0 4.44 1.56 8.71 4.4 12.03 13.43 15.74 60.76 67.45 106.17 71.99l127.7-.03c44.74-4.51 92.06-56.22 105.49-71.96 2.84-3.32 4.4-7.59 4.4-12.03 0-10.08-8.12-18.43-18.12-18.63-58.76-1.17-106.34-17.13-135.9-30.32-3.15-1.4-6.44-2.47-9.81-3.18-3.37-.72-6.8-1.08-10.25-1.08s-6.88.36-10.25 1.08c-3.37.71-6.66 1.78-9.81 3.18-29.56 13.19-77.14 29.15-135.9 30.32z">
	</path>
	<path class="captain-21" d="M255.58 234.53c-3.77 0-6.83-3.06-6.83-6.83v-23.34c0-3.77 3.06-6.82 6.83-6.82 3.78 0 6.83 3.05 6.83 6.82v23.34c0 3.77-3.05 6.83-6.83 6.83zm-95.57 0c-3.78 0-6.83-3.06-6.83-6.83v-23.34c0-3.77 3.05-6.82 6.83-6.82 3.77 0 6.83 3.05 6.83 6.82v23.34c0 3.77-3.06 6.83-6.83 6.83z">
	</path>
	<path class="captain-25" d="M218.81 281.02h-31.22c-7.23 0-14.34 2.96-18.79 8.65-10.25 13.09-31.59 13.09-31.59 13.09v10.87c41.9 27.18 65.85 0 65.85 0s23.94 27.18 65.84 0v-10.87s-21.58 0-31.76-13.31c-4.28-5.61-11.28-8.43-18.33-8.43z">
	</path>
	<path fill-rule="evenodd" class="captain-21" d="M133.5 319.36a7.16 7.16 0 0 1-1.3-1.09c-.38-.42-.71-.88-.98-1.38a6.784 6.784 0 0 1-.83-3.26v-10.87c0-3.77 3.05-6.83 6.82-6.83.17 0 18.18-.21 26.2-10.47 5.53-7.06 14.57-11.27 24.18-11.27h31.22c9.56 0 18.44 4.15 23.76 11.11 7.96 10.42 26.16 10.63 26.35 10.63 3.76.03 6.81 3.07 6.81 6.83v10.87c0 2.32-1.18 4.47-3.12 5.73-15.1 9.8-28.27 13.1-39.17 13.1-14.28 0-24.66-5.67-30.39-9.88-10.1 7.42-34.66 19.42-69.55-3.22zm74.68-10.24c.77.85 19.71 21 53.89.72v-.8c-8.28-1.15-22.1-4.66-30.35-15.45-2.75-3.6-7.58-5.75-12.91-5.75h-31.22c-5.45 0-10.46 2.26-13.42 6.04-8.26 10.56-21.92 14.02-30.13 15.16v.79c34.56 20.51 53.7-.49 53.9-.71.32-.36.67-.69 1.06-.98.39-.29.8-.54 1.24-.73.44-.2.9-.36 1.37-.46.48-.1.96-.15 1.44-.15 1.97 0 3.83.84 5.13 2.32z">
	</path>
	<path class="captain-21" d="M200.64 127.73c-3.78 0-6.83-3.05-6.83-6.82V58.99c0-3.77 3.05-6.83 6.83-6.83 3.77 0 6.82 3.06 6.82 6.83v61.92c0 3.77-3.05 6.82-6.82 6.82z">
	</path>
	<path class="captain-21" d="M200.64 127.73c-22.59 0-40.96-18.37-40.96-40.95 0-3.77 3.05-6.83 6.82-6.83 3.77 0 6.83 3.06 6.83 6.83 0 15.05 12.24 27.3 27.31 27.3 15.06 0 27.3-12.25 27.3-27.3 0-3.77 3.06-6.83 6.83-6.83s6.82 3.06 6.82 6.83c0 22.58-18.37 40.95-40.95 40.95zM201 72c-10.51 0-19-8.49-19-19s8.49-19 19-19 19 8.49 19 19-8.49 19-19 19z">
	</path>
	<path class="captain-24" d="M201 60.25c-4.01 0-7.25-3.24-7.25-7.25s3.24-7.25 7.25-7.25 7.25 3.24 7.25 7.25-3.24 7.25-7.25 7.25z">
	</path>
</svg>
