<svg xmlns="http://www.w3.org/2000/svg" viewBox="0 0 1080 1080" width="1080" height="1080"><style>tspan{white-space:pre}.icon-10{fill:#fff}.icon-11{fill:#ffd10b}.icon-12{fill:#4d657b}.icon-13{fill:#7800e4}</style><path class="icon-10" d="M497.79 1.11c-5.34.46-15.69 1.55-23 2.42-7.31.87-19.36 2.7-26.79 4.06-7.43 1.37-19.57 3.86-27 5.53-7.43 1.68-19.8 4.78-27.5 6.9-7.7 2.11-19.85 5.84-27 8.29-7.15 2.44-17.73 6.26-23.5 8.47-5.77 2.21-16.12 6.53-23 9.58-6.87 3.06-20.15 9.55-29.5 14.43-9.35 4.88-22.85 12.38-30 16.66-7.15 4.29-18.85 11.86-26 16.83-7.15 4.97-18.85 13.54-26 19.05-7.15 5.51-18.17 14.55-24.5 20.09-6.32 5.55-18.22 16.83-26.44 25.08-8.22 8.25-20.15 21.07-26.51 28.5-6.36 7.43-15.18 18.22-19.61 24-4.43 5.78-11.69 15.68-16.14 22-4.44 6.32-11.8 17.57-16.35 25-4.54 7.43-12.22 21.15-17.06 30.5-4.84 9.35-11.56 23.07-14.94 30.5-3.38 7.43-8.52 19.8-11.43 27.5-2.91 7.7-7.34 20.3-9.85 28-2.5 7.7-6.34 20.98-8.54 29.5-2.19 8.52-5.34 22.25-6.99 30.5-1.66 8.25-3.72 19.95-4.59 26-.87 6.05-2.27 16.63-3.12 23.5-.91 7.4-1.78 25.34-2.12 44-.37 20.47-.14 37.45.64 48.5.67 9.35 2.08 23.75 3.13 32 1.06 8.25 2.86 20.17 4 26.5 1.15 6.33 3.42 17.35 5.04 24.5 1.61 7.15 4.49 18.63 6.38 25.5 1.89 6.88 5.88 19.7 8.87 28.5 2.99 8.8 7.55 21.4 10.13 28 2.59 6.6 9.18 21.23 14.66 32.5s13.18 26.13 17.1 33c3.92 6.88 10.28 17.45 14.12 23.5 3.84 6.05 10.34 15.73 14.44 21.5 4.09 5.77 10.42 14.33 14.05 19 3.64 4.67 11.81 14.58 18.16 22 6.36 7.42 18.08 20.02 26.05 28 7.97 7.98 19.88 19.26 26.46 25.07 6.58 5.81 17.14 14.61 23.46 19.54 6.32 4.94 18.03 13.51 26 19.05 7.97 5.53 21.7 14.33 30.5 19.56 8.8 5.23 23.43 13.22 32.5 17.77 9.07 4.54 21 10.26 26.5 12.7 5.5 2.45 15.85 6.73 23 9.52 7.15 2.78 19.98 7.28 28.5 9.99s22.25 6.67 30.5 8.8c8.25 2.13 23.55 5.5 34 7.48 10.45 1.99 27.55 4.75 38 6.15 15.95 2.13 24.45 2.62 53 3.08 22.27.36 39.17.14 49-.64 8.25-.65 21.75-2.09 30-3.18 8.25-1.1 23.33-3.57 33.5-5.5 10.17-1.94 25.25-5.26 33.5-7.39s21.98-6.09 30.5-8.8c8.52-2.71 21.35-7.21 28.5-9.99 7.15-2.79 17.73-7.16 23.5-9.72 5.77-2.56 16.69-7.77 24.25-11.57 7.56-3.81 19.04-9.92 25.5-13.59 6.46-3.67 16.7-9.83 22.75-13.69 6.05-3.87 15.5-10.19 21-14.05 5.5-3.86 15.17-11.06 21.5-15.99s16.88-13.72 23.46-19.53c6.59-5.81 18.48-17.09 26.44-25.07 7.97-7.98 19.69-20.58 26.05-28 6.37-7.42 14.54-17.33 18.18-22 3.63-4.67 9.96-13.23 14.05-19 4.1-5.77 10.6-15.45 14.44-21.5 3.84-6.05 10.2-16.62 14.12-23.5 3.92-6.87 11.62-21.73 17.1-33 5.48-11.27 12.07-25.9 14.65-32.5 2.59-6.6 6.93-18.52 9.65-26.5 2.73-7.98 6.72-20.8 8.88-28.5 2.16-7.7 5.25-19.85 6.87-27 1.61-7.15 3.88-18.17 5.03-24.5 1.14-6.33 2.94-18.25 4-26.5 1.05-8.25 2.46-22.65 3.13-32 .78-11.05 1.01-28.03.64-48.5-.34-18.66-1.21-36.6-2.12-44-.85-6.87-2.25-17.45-3.12-23.5-.87-6.05-2.93-17.75-4.59-26-1.65-8.25-4.8-21.98-6.99-30.5-2.2-8.52-6.04-21.8-8.54-29.5-2.51-7.7-6.94-20.3-9.86-28-2.92-7.7-7.41-18.73-9.98-24.5-2.57-5.77-8.67-18.37-13.55-28-4.88-9.62-13.05-24.48-18.16-33-5.11-8.53-13.08-20.9-17.73-27.5-4.64-6.6-12.06-16.72-16.49-22.5-4.43-5.78-13.25-16.57-19.61-24-6.36-7.43-18.29-20.26-26.51-28.51-8.22-8.26-20.79-20.11-27.94-26.34-7.15-6.22-19.75-16.4-28-22.61-8.25-6.21-19.95-14.6-26-18.65-6.05-4.05-16.85-10.89-24-15.19-7.15-4.31-23.58-13.1-36.5-19.55-12.92-6.44-29.58-14.1-37-17.02-7.42-2.92-20.02-7.55-28-10.28-7.98-2.73-20.8-6.7-28.5-8.83-7.7-2.13-20.08-5.25-27.5-6.94-7.42-1.69-19.58-4.17-27-5.51-7.42-1.34-19.35-3.14-26.5-3.99-7.15-.86-19.3-2.02-27-2.57-7.7-.55-26.83-.94-42.5-.87-15.67.08-32.87.51-38.21.97z"></path><path class="icon-11" d="M592.5 89.54c-2.2.79-5.58 2.73-7.5 4.3-1.92 1.57-4.84 5.51-6.47 8.76-2.2 4.38-2.97 7.32-2.98 11.4-.01 3.03.73 7.53 1.65 10 1.08 2.92 3.53 6.19 6.98 9.33 3.73 3.38 6.96 5.29 10.82 6.39 4.56 1.31 6.44 1.38 11 .41 3.02-.65 7.41-2.29 9.75-3.65 2.34-1.37 5.49-4.15 7-6.2 1.51-2.05 3.29-5.31 3.96-7.25.66-1.94 1.22-6 1.24-9.03.02-3.77-.72-7.08-2.34-10.5-1.3-2.75-3.88-6.44-5.74-8.19-1.85-1.76-5.39-4.11-7.87-5.23-2.81-1.27-6.57-2.03-10-2.01-3.02.01-7.3.67-9.5 1.47zm1 106c-2.2.81-5.48 2.47-7.29 3.71-1.81 1.24-4.62 4.28-6.25 6.75-1.64 2.47-3.43 6.75-4 9.5-.69 3.4-.7 6.6-.01 10 .56 2.75 2.37 7.03 4.02 9.5 1.65 2.47 4.92 5.76 7.27 7.29 2.34 1.54 5.84 3.22 7.76 3.75 1.92.52 5.19.95 7.25.95 2.06.01 6.11-.86 9-1.93 3.31-1.22 6.75-3.53 9.31-6.25 2.23-2.37 4.9-6.56 5.92-9.31 1.37-3.69 1.72-6.57 1.33-11-.29-3.3-1.43-7.8-2.53-10-1.1-2.2-3.98-5.7-6.39-7.77-2.41-2.07-6.41-4.44-8.89-5.26-2.48-.82-6.3-1.47-8.5-1.44-2.2.03-5.8.71-8 1.51zm2.25 105.52c-2.06.52-4.99 1.56-6.5 2.33-1.51.76-4.66 3.46-7 6-2.94 3.19-4.75 6.38-5.89 10.36-1.3 4.58-1.43 6.87-.63 11.25.55 3.02 2.19 7.41 3.64 9.75 1.44 2.34 4.3 5.49 6.35 7 2.05 1.51 5.31 3.29 7.25 3.96 1.94.66 6.01 1.22 9.03 1.24 3.77.02 7.08-.72 10.5-2.34 2.75-1.3 6.44-3.88 8.19-5.74 1.76-1.85 4.11-5.39 5.23-7.87 1.15-2.54 2.05-6.68 2.07-9.5.02-2.75-.63-7.02-1.45-9.5-.81-2.48-3.23-6.52-5.37-9-2.64-3.05-5.47-5.06-8.78-6.23-2.69-.95-6.69-1.93-8.89-2.19s-5.69-.04-7.75.48z"></path><path class="icon-12" d="M576 306.01c-4.67.93-11.65 2.72-15.5 3.97-3.85 1.25-10.6 3.99-15 6.08-4.4 2.1-11.37 6.06-15.5 8.82-4.12 2.76-10.44 7.62-14.03 10.82-3.59 3.19-8.99 8.6-12 12.03-3.01 3.42-7.63 9.49-10.28 13.5-2.64 4-6.41 10.65-8.38 14.77-1.97 4.13-4.44 9.98-5.48 13-1.05 3.02-2.77 8.88-3.82 13-1.05 4.13-2.43 12.45-3.07 18.5-.87 8.25-.87 14-.03 23 .62 6.6 2.27 16.27 3.65 21.5 1.39 5.23 4.09 13.1 6 17.5 1.91 4.4 5.37 11.31 7.7 15.36 2.33 4.05 7.17 11 10.74 15.45 3.57 4.45 10.33 11.42 15 15.49s12.44 9.83 17.25 12.8c4.81 2.97 12.91 7.18 18 9.36 5.09 2.18 12.85 4.86 17.25 5.96 4.4 1.1 10.7 2.3 14 2.65l6 .65c-5.97-5.21-8.9-9.2-10.35-12.22-2.02-4.19-2.62-6.93-2.55-11.5.05-3.3.76-7.58 1.58-9.5.82-1.92 3.02-5.26 4.9-7.41 1.88-2.16 5.67-4.96 8.42-6.24 3.63-1.69 6.78-2.33 11.5-2.32 4.08.01 7.99.68 10.5 1.81 2.2.99 5.58 3.35 7.5 5.24 1.92 1.9 4.38 5.24 5.44 7.43 1.07 2.2 2.14 6.69 2.37 9.99.34 4.76-.07 7.11-1.94 11.4-1.35 3.06-4.21 7.06-6.62 9.25-3.01 2.73-3.74 3.85-2.5 3.86.96.01 5.35-.66 9.75-1.48 4.4-.83 11.83-2.78 16.5-4.35 4.67-1.56 12-4.61 16.27-6.76l7.77-3.92c102.52 106.35 116.9 120.68 121.07 123 4.81 2.68 6.31 3 13.89 3 7.1 0 9.31-.41 13.39-2.5 2.68-1.37 6.65-4.3 8.82-6.5 2.16-2.2 4.91-6.02 6.11-8.5 1.72-3.56 2.17-6.28 2.16-13-.02-7.23-.42-9.25-2.67-13.5-1.83-3.47-20.41-23.43-60.72-65.25L711 500c7.61-14.34 11.21-22.89 12.91-28.25 1.7-5.36 3.81-14.14 4.69-19.5 1.18-7.2 1.46-13.54 1.06-24.25-.29-7.98-1.28-17.87-2.19-22-.91-4.12-2.9-11.1-4.43-15.5-1.53-4.4-4.1-10.7-5.71-14-1.62-3.3-4.23-8.25-5.82-11-1.59-2.75-4.94-7.7-7.43-11-2.5-3.3-7.7-9.16-11.56-13.02-3.86-3.86-9.72-9.08-13.02-11.6-3.3-2.52-9.6-6.68-14-9.23-4.4-2.56-11.37-6.02-15.5-7.7-4.12-1.68-11.1-3.96-15.5-5.08s-9.9-2.33-12.23-2.7c-2.32-.37-4.24-.56-4.25-.42-.01.14 1.56 2.16 3.5 4.5 1.93 2.34 4.19 6.27 5.01 8.75.82 2.48 1.48 6.75 1.46 9.5-.02 2.82-.92 6.96-2.07 9.5-1.12 2.48-3.47 6.02-5.23 7.87-1.75 1.86-5.44 4.44-8.19 5.74-3.42 1.62-6.73 2.36-10.5 2.34-3.02-.02-7.09-.58-9.03-1.24-1.94-.67-5.2-2.45-7.25-3.96-2.05-1.51-4.91-4.66-6.35-7-1.45-2.34-3.09-6.73-3.64-9.75-.8-4.38-.67-6.67.63-11.25 1.15-4.02 2.97-7.2 6.06-10.58 2.43-2.66 3.89-4.84 3.25-4.85-.64 0-5 .75-9.67 1.69z"></path><path class="icon-10" d="M587 363.47c-3.58.79-8.98 2.43-12 3.65-3.02 1.21-8.42 4.09-12 6.39-3.58 2.31-8.86 6.62-11.74 9.59-2.88 2.97-6.46 7.2-7.94 9.4-1.48 2.2-4.18 7.15-6 11-1.82 3.85-4.04 10.38-4.92 14.5-1.13 5.31-1.45 10.43-1.09 17.5.34 6.84 1.32 12.53 3.07 18 1.41 4.4 4.27 10.92 6.34 14.49 2.08 3.57 7.16 9.91 11.28 14.08 6.05 6.11 9.34 8.48 17 12.25 5.23 2.57 12.2 5.35 15.5 6.18 3.45.87 10.47 1.51 16.5 1.52 7.34 0 12.91-.61 18.5-2.05 4.4-1.13 11.15-3.72 15-5.76 4.78-2.53 9.87-6.57 16.05-12.71 7.35-7.32 9.82-10.59 13.22-17.5 2.29-4.68 4.88-11.65 5.76-15.5.92-4.02 1.58-11.25 1.55-17-.03-6.85-.68-12.29-2.06-17.25-1.11-3.99-3.2-9.61-4.64-12.5-1.44-2.89-4.52-7.95-6.85-11.25-2.32-3.3-6.43-7.96-9.13-10.35-2.69-2.39-7.82-6.11-11.4-8.25-3.58-2.14-10.1-5.07-14.5-6.5-5.94-1.93-10.71-2.7-18.5-2.99-6.84-.25-12.77.12-17 1.06z"></path><path class="icon-11" d="M590.5 409.38c-2.75 1.3-6.2 3.66-7.66 5.24-1.46 1.59-3.69 4.9-4.95 7.38-1.61 3.16-2.31 6.28-2.34 10.5-.02 3.3.72 8.02 1.65 10.5.99 2.62 3.59 6.28 6.25 8.75 2.5 2.34 6.24 4.99 8.3 5.91 2.1.92 6.38 1.66 9.75 1.67 3.82.01 7.63-.7 10.5-1.96 2.48-1.08 6.43-3.97 8.79-6.42 2.42-2.51 4.93-6.41 5.76-8.95.81-2.48 1.48-6.75 1.48-9.5.01-3.51-.86-6.78-2.92-11-1.78-3.63-4.45-7.16-6.77-8.94-2.11-1.62-5.3-3.53-7.09-4.25-1.79-.72-6.06-1.31-9.5-1.3-4.48.01-7.67.68-11.25 2.37zm0 103.97c-2.75 1.28-6.54 4.08-8.42 6.24-1.88 2.15-3.97 5.26-4.64 6.91-.67 1.65-1.53 4.8-1.92 7-.46 2.59-.16 5.94.83 9.5.85 3.02 2.91 7.41 4.59 9.75 1.68 2.34 4.97 5.38 7.31 6.77 2.6 1.54 6.57 2.77 10.25 3.16 3.96.42 7.69.15 10.96-.77 3.03-.86 6.72-3 9.5-5.49 2.73-2.46 5.48-6.24 6.91-9.5 1.87-4.3 2.28-6.66 1.94-11.42-.23-3.3-1.3-7.79-2.37-9.99-1.06-2.19-3.52-5.53-5.44-7.43-1.92-1.89-5.3-4.25-7.5-5.24-2.51-1.13-6.42-1.8-10.5-1.81-4.72-.01-7.87.63-11.5 2.32z"></path><path class="icon-13" d="M473.5 552.54c-2.2.8-5.57 2.51-7.5 3.8-2.04 1.36-35.65 42.97-80.5 99.66-42.35 53.52-77.23 97.7-77.5 98.18-.27.49-1.85.33-3.5-.33-1.87-.76-8.67-1.24-18-1.27-12.65-.04-16.21.3-22.75 2.18-4.26 1.23-10.56 3.64-14 5.34-3.44 1.71-9.58 5.65-13.65 8.75-4.06 3.11-10.1 9.03-13.41 13.15-3.3 4.13-7.73 11.1-9.84 15.5-2.11 4.4-4.75 11.6-5.87 16-1.42 5.53-2.05 11.24-2.06 18.5-.01 5.77.46 12.98 1.04 16 .59 3.02 1.8 7.75 2.69 10.5.89 2.75 2.75 7.25 4.13 10 1.37 2.75 4.34 7.7 6.59 11s6.8 8.63 10.11 11.84c3.31 3.21 9.17 7.8 13.02 10.21 3.85 2.41 10.6 5.7 15 7.31 4.4 1.61 11.6 3.49 16 4.19 5.03.79 11.53 1.02 17.5.62 5.23-.35 12.2-1.36 15.5-2.25 3.3-.88 9.15-3.05 13-4.81 3.85-1.77 9.25-4.75 12-6.63 2.75-1.87 6.97-5.23 9.38-7.45 2.41-2.21 6.3-6.51 8.63-9.53 2.33-3.02 5.83-8.42 7.78-12 1.94-3.58 4.78-10.33 6.29-15 2.47-7.59 2.77-10 2.8-22.5.03-10.54-.4-15.61-1.77-20.5-.99-3.58-3.12-9.42-4.73-13-1.61-3.58-2.92-6.84-2.9-7.25.01-.41 34.09-43.84 75.74-96.5 41.65-52.66 77.08-98.23 78.75-101.25 2.68-4.86 3.03-6.44 3-13.5-.03-7.19-.38-8.65-3.5-14.43-2.29-4.25-5-7.55-7.97-9.72-2.48-1.81-6.52-3.98-9-4.83-2.48-.85-7.2-1.52-10.5-1.49-3.3.03-7.8.71-10 1.51z"></path><path class="icon-11" d="M592.5 617.54c-2.2.79-5.58 2.7-7.5 4.25-1.92 1.54-4.83 5.48-6.46 8.75-2.34 4.69-2.96 7.24-2.91 11.96.03 3.3.73 7.58 1.55 9.5.81 1.92 3.02 5.26 4.9 7.41 1.88 2.16 5.67 4.96 8.42 6.24 3.63 1.69 6.78 2.33 11.5 2.32 4.36-.01 7.9-.67 10.75-1.99 2.34-1.09 6.07-3.89 8.29-6.23 2.22-2.34 4.7-6.27 5.51-8.75.81-2.48 1.46-6.75 1.45-9.5-.01-3.15-.9-6.85-2.39-10-1.3-2.75-3.88-6.44-5.74-8.19-1.85-1.76-5.39-4.11-7.87-5.23-2.81-1.27-6.57-2.03-10-2.01-3.02.01-7.3.67-9.5 1.47zm3.25 104.52c-2.06.52-4.99 1.56-6.5 2.33-1.51.76-4.58 3.35-6.82 5.75s-4.69 6.16-5.45 8.36c-.76 2.2-1.39 6.48-1.41 9.5-.03 3.96.7 7.04 2.61 11 1.45 3.02 4.15 6.67 5.98 8.1 1.84 1.43 4.92 3.4 6.84 4.38 1.92.97 5.75 2 8.5 2.28 3.37.35 6.8-.08 10.5-1.3 3.08-1.02 7.26-3.44 9.5-5.49 2.2-2.02 5.07-6.11 6.38-9.07 1.93-4.4 2.29-6.6 1.94-11.9-.31-4.59-1.2-7.82-3.03-11-1.43-2.48-3.65-5.49-4.94-6.69-1.29-1.21-4.37-3.08-6.85-4.17-2.48-1.09-6.52-2.21-9-2.49-2.48-.29-6.19-.1-8.25.41z"></path><path class="icon-10" d="M277.5 807.85c-2.2.99-5.74 3.35-7.86 5.23-2.12 1.88-4.66 4.77-5.64 6.42-.98 1.65-2.28 5.36-2.89 8.25-.82 3.88-.81 6.62.03 10.5.63 2.89 2.15 6.83 3.38 8.75s3.31 4.47 4.61 5.66c1.3 1.18 4.39 3.19 6.87 4.44 2.48 1.26 6.75 2.48 9.5 2.7 2.75.23 6.8-.1 9-.73 2.2-.64 6.23-2.82 8.95-4.86a27.12 27.12 0 0 0 7.78-9.21c2.28-4.42 2.82-6.77 2.79-12-.03-4.61-.71-7.95-2.35-11.5-1.34-2.9-4.17-6.55-6.74-8.69-2.44-2.03-6.45-4.4-8.93-5.27-2.48-.87-6.75-1.56-9.5-1.54-2.75.02-6.8.86-9 1.85z"></path><path class="icon-11" d="M592.5 828.54c-2.2.79-5.58 2.72-7.5 4.28s-4.83 5.28-6.45 8.26c-2.43 4.46-2.95 6.57-2.92 11.92.02 3.58.71 8.08 1.54 10 .82 1.92 3.03 5.26 4.91 7.41 1.88 2.16 5.67 4.96 8.42 6.24 3.63 1.69 6.78 2.33 11.5 2.32 4.36-.01 7.9-.67 10.75-1.99 2.34-1.09 6.07-3.89 8.29-6.23 2.22-2.34 4.7-6.27 5.51-8.75.81-2.48 1.46-6.75 1.45-9.5-.01-3.15-.9-6.85-2.39-10-1.3-2.75-3.88-6.44-5.74-8.19-1.85-1.76-5.39-4.11-7.87-5.23-2.81-1.27-6.57-2.03-10-2.01-3.02.01-7.3.67-9.5 1.47zm3.25 104.52c-2.06.52-4.99 1.56-6.5 2.33-1.51.76-4.58 3.35-6.82 5.75s-4.69 6.16-5.45 8.36c-.76 2.2-1.36 6.48-1.34 9.5.02 3.24.86 7.35 2.03 10 1.1 2.48 3.53 6.02 5.41 7.88 1.88 1.86 5.22 4.28 7.42 5.37 2.2 1.1 6.25 2.22 9 2.51 3.37.35 6.79-.08 10.5-1.3 3.08-1.02 7.26-3.44 9.5-5.49 2.2-2.02 5.07-6.11 6.38-9.07 1.93-4.4 2.29-6.6 1.94-11.9-.31-4.59-1.2-7.82-3.03-11-1.43-2.48-3.65-5.49-4.94-6.69-1.29-1.21-4.37-3.08-6.85-4.17-2.48-1.09-6.52-2.21-9-2.49-2.48-.29-6.19-.1-8.25.41z"></path></svg>