<svg version="1.2" baseProfile="tiny-ps" xmlns="http://www.w3.org/2000/svg" viewBox="0 0 99 46" width="150" height="80">
	<defs>
		<clipPath clipPathUnits="userSpaceOnUse" id="cp1">
			<path d="M66 24h32v11H66V24z">
			</path>
		</clipPath>
		<clipPath clipPathUnits="userSpaceOnUse" id="cp2">
			<path d="M-3 23.88l63.82-44.85 36.65 52.16-63.81 44.85L-3 23.88z">
			</path>
		</clipPath>
		<clipPath clipPathUnits="userSpaceOnUse" id="cp3">
			<path d="M60.85-21L-2.96 23.86 33.7 76.01l63.81-44.85L60.85-21z">
			</path>
		</clipPath>
		<clipPath clipPathUnits="userSpaceOnUse" id="cp4">
			<path d="M49 34h24v9H49v-9z">
			</path>
		</clipPath>
		<clipPath clipPathUnits="userSpaceOnUse" id="cp5">
			<path d="M-3 23.88l63.82-44.85 36.65 52.16-63.81 44.85L-3 23.88z">
			</path>
		</clipPath>
		<clipPath clipPathUnits="userSpaceOnUse" id="cp6">
			<path d="M60.85-21L-2.96 23.86 33.7 76.01l63.81-44.85L60.85-21z">
			</path>
		</clipPath>
		<clipPath clipPathUnits="userSpaceOnUse" id="cp7">
			<path d="M2 25h27v10H2V25z">
			</path>
		</clipPath>
		<clipPath clipPathUnits="userSpaceOnUse" id="cp8">
			<path d="M-3 23.88l63.82-44.85 36.65 52.16-63.81 44.85L-3 23.88z">
			</path>
		</clipPath>
		<clipPath clipPathUnits="userSpaceOnUse" id="cp9">
			<path d="M60.85-21L-2.96 23.86 33.7 76.01l63.81-44.85L60.85-21z">
			</path>
		</clipPath>
		<clipPath clipPathUnits="userSpaceOnUse" id="cp10">
			<path d="M31 22h23v10H31V22z">
			</path>
		</clipPath>
		<clipPath clipPathUnits="userSpaceOnUse" id="cp11">
			<path d="M-3 23.88l63.82-44.85 36.65 52.16-63.81 44.85L-3 23.88z">
			</path>
		</clipPath>
		<clipPath clipPathUnits="userSpaceOnUse" id="cp12">
			<path d="M60.85-21L-2.96 23.86 33.7 76.01l63.81-44.85L60.85-21z">
			</path>
		</clipPath>
		<clipPath clipPathUnits="userSpaceOnUse" id="cp13">
			<path d="M13 9h31v11H13V9z">
			</path>
		</clipPath>
		<clipPath clipPathUnits="userSpaceOnUse" id="cp14">
			<path d="M-3 23.88l63.82-44.85 36.65 52.16-63.81 44.85L-3 23.88z">
			</path>
		</clipPath>
		<clipPath clipPathUnits="userSpaceOnUse" id="cp15">
			<path d="M60.85-21L-2.96 23.86 33.7 76.01l63.81-44.85L60.85-21z">
			</path>
		</clipPath>
		<clipPath clipPathUnits="userSpaceOnUse" id="cp16">
			<path d="M45 2h21v9H45V2z">
			</path>
		</clipPath>
		<clipPath clipPathUnits="userSpaceOnUse" id="cp17">
			<path d="M-3 23.88l63.82-44.85 36.65 52.16-63.81 44.85L-3 23.88z">
			</path>
		</clipPath>
		<clipPath clipPathUnits="userSpaceOnUse" id="cp18">
			<path d="M60.85-21L-2.96 23.86 33.7 76.01l63.81-44.85L60.85-21z">
			</path>
		</clipPath>
		<clipPath clipPathUnits="userSpaceOnUse" id="cp19">
			<path d="M49 13h27v9H49v-9z">
			</path>
		</clipPath>
		<clipPath clipPathUnits="userSpaceOnUse" id="cp20">
			<path d="M-3 23.88l63.82-44.85 36.65 52.16-63.81 44.85L-3 23.88z">
			</path>
		</clipPath>
		<clipPath clipPathUnits="userSpaceOnUse" id="cp21">
			<path d="M60.85-21L-2.96 23.86 33.7 76.01l63.81-44.85L60.85-21z">
			</path>
		</clipPath>
		<clipPath clipPathUnits="userSpaceOnUse" id="cp22">
			<path d="M23 36h23v9H23v-9z">
			</path>
		</clipPath>
		<clipPath clipPathUnits="userSpaceOnUse" id="cp23">
			<path d="M-3 23.88l63.82-44.85 36.65 52.16-63.81 44.85L-3 23.88z">
			</path>
		</clipPath>
		<clipPath clipPathUnits="userSpaceOnUse" id="cp24">
			<path d="M60.85-21L-2.96 23.86 33.7 76.01l63.81-44.85L60.85-21z">
			</path>
		</clipPath>
	</defs>
	<style>
		tspan{white-space:pre}.svg-fishes0{fill:#ffd10b}
	</style>
	<g clip-path="url(#cp3)">
		<path class="svg-fishes0" d="M70.28 29.25c-.53.09-1.1.38-1.58.6-.34.16-.79.52-1.19.43-.91-.21-.67-2.08-.65-2.76.01-.6-.29-2.38.66-2.5.66-.1 1.77 1.14 2.28 1.5.18.12.71.61.93.61.12 0 .49-.3.57-.34.59-.32 1.22-.58 1.86-.79 1.41-.46 2.89-.73 4.32-1.05 1.8-.41 3.62-.75 5.47-.77 1.8-.03 3.48.34 5.22.76h.02c1.35.27 2.89.51 4.08 1.24.9.55 1.71 1.28 2.47 2.01.55.54 1.07 1.1 1.6 1.67.21.24.68.6.74.95.1.55-.69.89-1.1 1.07-1 .42-2.07.78-3.11 1.11-1.37.43-2.73.84-4.16 1.11-2.44.46-5.12.8-7.59.31-3.25-.5-6.57-2.18-9.23-4.04-.46-.37-1.05-1.2-1.61-1.12z">
		</path>
	</g>
	<g clip-path="url(#cp6)">
		<path class="svg-fishes0" d="M50.66 35.8c.62.01 1.13.82 1.7 1.06.43.19.45.05.85-.21.24-.15.49-.29.74-.42 2.16-1.06 4.76-1.97 7.21-1.91 2.46.06 4.84.9 7.03 1.96 1.1.54 2.15 1.19 3.18 1.86.77.49 1.13.95.38 1.6-1.13.97-2.41 2.14-3.84 2.64-.93.33-2.02.35-3 .39l-.01.01c-1.34.1-2.63.16-3.96-.09-1.58-.31-3.06-.98-4.55-1.61-.99-.43-1.99-.85-2.89-1.47-.23-.15-.72-.74-.96-.77-.31-.04-1.08.52-1.35.68-.4.23-.96.81-1.43.44-.51-.39-.1-1.57-.03-2.04.07-.54.12-2.11.93-2.12z">
		</path>
	</g>
	<g clip-path="url(#cp9)">
		<path class="svg-fishes0" d="M2.56 28.55c.01-.53-.21-1.78.4-2.1.59-.32 1.22.53 1.63.84.27.21.99.89 1.32.88.25 0 1.08-.6 1.38-.72 1.14-.46 2.36-.71 3.57-.96 1.76-.38 3.52-.81 5.32-.82 1.55-.02 3.01.28 4.53.63 0 0 .01.02.02.01 1.03.21 2.15.42 3.1.86 1.09.49 2.03 1.45 2.87 2.28.38.4.74.8 1.12 1.21.14.16.39.36.46.58.1.35-.06.49-.33.69-.48.35-1.06.49-1.61.72-.79.32-1.61.57-2.42.83-2.55.81-5.3 1.27-7.98 1.1-2.6-.18-5.08-1.21-7.34-2.49-.69-.39-1.4-.81-2.05-1.3-.37-.28-.62-.74-1.08-.68-.55.05-1.16.42-1.64.65-1.45.69-1.3-1.23-1.27-2.21z">
		</path>
	</g>
	<g clip-path="url(#cp12)">
		<path class="svg-fishes0" d="M38.23 29.32c-.97-.41-1.95-.83-2.82-1.44-.21-.15-.64-.67-.87-.71-.25-.06-1.11.54-1.38.71-.36.21-.88.73-1.32.39-.51-.39-.1-1.51-.02-2 .07-.55.12-2.05.91-2.06.66-.01 1.11.94 1.76 1.09.35.08.38-.03.72-.25.27-.18.57-.34.87-.48 2.14-1.02 4.62-1.85 7.02-1.79 2.36.05 4.67.9 6.78 1.94 1.07.53 2.12 1.16 3.11 1.82.72.47 1 .91.29 1.52-1.1.95-2.33 2.07-3.73 2.56-.91.33-1.97.34-2.94.38l-.01.01c-1.37.1-2.64.15-3.99-.12-1.53-.29-2.96-.96-4.38-1.57z">
		</path>
	</g>
	<g clip-path="url(#cp15)">
		<path class="svg-fishes0" d="M42.32 15.71c-.96.86-1.97 1.68-3.09 2.34-1.43.85-3.16 1.03-4.8 1.2l-.01.01c-2.56.38-5.04.59-7.58-.04-3.23-.82-6.88-1.45-9.65-3.43-.57.28-1.13.59-1.67.92-.4.24-.82.67-1.26.81-1.34.44-.95-1.75-.92-2.39.01-.68-.11-2.63.89-2.63.4-.01.75.32 1.09.5.45.25 1 .57 1.51.67.62.13 1.35-.68 1.93-1.01 2.79-1.52 6.07-2.82 9.29-3.03 3.5-.39 7.31.61 10.57 1.87 1.05.42 2.09.82 3.12 1.3.54.27 1.71.54 1.95 1.19.24.65-1.01 1.4-1.37 1.72z">
		</path>
	</g>
	<g clip-path="url(#cp18)">
		<path class="svg-fishes0" d="M64.26 6.8c-.55.4-1.15.76-1.74 1.12-1.8 1.11-3.84 1.96-5.95 2.25-2.09.29-4.28-.2-6.25-.86-.55-.18-1.07-.39-1.58-.66-.49-.25-.51-.22-.98.09-.3.22-.6.63-.94.76-.85.34-1.05-1.16-1.17-1.69-.1-.4-.53-1.35-.14-1.72.38-.36.94.1 1.3.28.28.13.97.57 1.24.51.23-.05.65-.59.85-.73.82-.61 1.76-1.04 2.66-1.48 1.1-.54 2.22-1.12 3.42-1.43 1.26-.33 2.45-.37 3.75-.36.82-.02 1.73-.06 2.52.13 1.06.24 2.05.92 2.93 1.51.53.36 1.55.75 1.09 1.46-.22.35-.66.57-1.01.82z">
		</path>
	</g>
	<g clip-path="url(#cp21)">
		<path class="svg-fishes0" d="M71.41 19.72c-.95.53-2.1.8-3.16 1.08l-.01.01c-1.46.44-2.89.81-4.42.89-1.78.08-3.52-.18-5.27-.43-1.23-.18-2.46-.33-3.66-.69-.38-.11-1.11-.58-1.48-.58-.33-.01-.75.41-1.07.65-.41.32-1.07 1.22-1.64 1.17-.84-.08-.69-1.51-.75-2.05-.07-.65-.41-2.38.66-2.35.38 0 .77.3 1.12.42.28.08.93.4 1.23.31.3-.08.58-.56.83-.76.26-.21.53-.42.81-.62 2.19-1.56 4.77-2.93 7.42-3.45 2.68-.53 5.5-.23 8.18.26 1.33.25 2.62.65 3.92 1.02.83.23 1.69.58 1.02 1.44-1 1.3-2.24 2.87-3.73 3.68z">
		</path>
	</g>
	<g clip-path="url(#cp24)">
		<path class="svg-fishes0" d="M24.46 37.52c.71 0 1.21 1.12 1.93 1.12.32 0 1.04-.6 1.38-.76 2.16-1.01 4.69-1.82 7.11-1.75 2.33.07 4.61.86 6.71 1.85 1.07.5 2.11 1.09 3.1 1.72.61.4 1.03.84.4 1.39-1.07.97-2.45 2.08-3.85 2.55-.92.32-1.96.34-2.93.38h-.01c-1.36.1-2.64.16-3.98-.1-1.52-.28-2.94-.92-4.37-1.51-.96-.4-1.94-.79-2.81-1.37-.2-.13-.67-.66-.88-.68-.31-.04-1.08.49-1.39.68-.37.21-.89.72-1.32.37-.5-.37-.1-1.44-.01-1.92.09-.53.16-1.98.92-1.97z">
		</path>
	</g>
</svg>
