<svg xmlns="http://www.w3.org/2000/svg" viewBox="0 0 1080 1080" width="1080" height="1080"><style>tspan{white-space:pre}.icon-50{fill:#fff}.icon-51{fill:#7800e4}.icon-52{fill:#ffd10b}.icon-53{fill:#4d657b}</style><path class="icon-50" d="M497.79 1.11c-5.34.46-15.69 1.55-23 2.42-7.31.87-19.36 2.7-26.79 4.06-7.43 1.37-19.57 3.86-27 5.53-7.43 1.68-19.8 4.78-27.5 6.9-7.7 2.11-19.85 5.84-27 8.29-7.15 2.44-17.73 6.26-23.5 8.47-5.77 2.21-16.12 6.53-23 9.58-6.87 3.06-20.15 9.55-29.5 14.43-9.35 4.88-22.85 12.38-30 16.66-7.15 4.29-18.85 11.86-26 16.83-7.15 4.97-18.85 13.54-26 19.05-7.15 5.51-18.17 14.55-24.5 20.09-6.32 5.55-18.22 16.83-26.44 25.08-8.22 8.25-20.15 21.07-26.51 28.5-6.36 7.43-15.18 18.22-19.61 24-4.43 5.78-11.69 15.68-16.14 22-4.44 6.32-11.8 17.57-16.35 25-4.54 7.43-12.22 21.15-17.06 30.5-4.84 9.35-11.56 23.07-14.94 30.5-3.38 7.43-8.52 19.8-11.43 27.5-2.91 7.7-7.34 20.3-9.85 28-2.5 7.7-6.34 20.98-8.54 29.5-2.19 8.52-5.34 22.25-6.99 30.5-1.66 8.25-3.72 19.95-4.59 26-.87 6.05-2.27 16.63-3.12 23.5-.91 7.4-1.78 25.34-2.12 44-.37 20.47-.14 37.45.64 48.5.67 9.35 2.08 23.75 3.13 32 1.06 8.25 2.86 20.17 4 26.5 1.15 6.33 3.42 17.35 5.04 24.5 1.61 7.15 4.49 18.63 6.38 25.5 1.89 6.88 5.88 19.7 8.87 28.5 2.99 8.8 7.55 21.4 10.13 28 2.59 6.6 9.18 21.23 14.66 32.5s13.18 26.13 17.1 33c3.92 6.88 10.28 17.45 14.12 23.5 3.84 6.05 10.34 15.73 14.44 21.5 4.09 5.77 10.42 14.33 14.05 19 3.64 4.67 11.81 14.58 18.16 22 6.36 7.42 18.08 20.02 26.05 28 7.97 7.98 19.88 19.26 26.46 25.07 6.58 5.81 17.14 14.61 23.46 19.54 6.32 4.94 18.03 13.51 26 19.05 7.97 5.53 21.7 14.33 30.5 19.56 8.8 5.23 23.43 13.22 32.5 17.77 9.07 4.54 21 10.26 26.5 12.7 5.5 2.45 15.85 6.73 23 9.52 7.15 2.78 19.98 7.28 28.5 9.99s22.25 6.67 30.5 8.8c8.25 2.13 23.55 5.5 34 7.48 10.45 1.99 27.55 4.75 38 6.15 15.95 2.13 24.45 2.62 53 3.08 22.27.36 39.17.14 49-.64 8.25-.65 21.75-2.09 30-3.18 8.25-1.1 23.33-3.57 33.5-5.5 10.17-1.94 25.25-5.26 33.5-7.39s21.98-6.09 30.5-8.8c8.52-2.71 21.35-7.21 28.5-9.99 7.15-2.79 17.73-7.16 23.5-9.72 5.77-2.56 16.69-7.77 24.25-11.57 7.56-3.81 19.04-9.92 25.5-13.59 6.46-3.67 16.7-9.83 22.75-13.69 6.05-3.87 15.5-10.19 21-14.05 5.5-3.86 15.17-11.06 21.5-15.99s16.88-13.72 23.46-19.53c6.59-5.81 18.48-17.09 26.44-25.07 7.97-7.98 19.69-20.58 26.05-28 6.37-7.42 14.54-17.33 18.18-22 3.63-4.67 9.96-13.23 14.05-19 4.1-5.77 10.6-15.45 14.44-21.5 3.84-6.05 10.2-16.62 14.12-23.5 3.92-6.87 11.62-21.73 17.1-33 5.48-11.27 12.07-25.9 14.65-32.5 2.59-6.6 6.93-18.52 9.65-26.5 2.73-7.98 6.72-20.8 8.88-28.5 2.16-7.7 5.25-19.85 6.87-27 1.61-7.15 3.88-18.17 5.03-24.5 1.14-6.33 2.94-18.25 4-26.5 1.05-8.25 2.46-22.65 3.13-32 .78-11.05 1.01-28.03.64-48.5-.34-18.66-1.21-36.6-2.12-44-.85-6.87-2.25-17.45-3.12-23.5-.87-6.05-2.93-17.75-4.59-26-1.65-8.25-4.8-21.98-6.99-30.5-2.2-8.52-6.04-21.8-8.54-29.5-2.51-7.7-6.94-20.3-9.86-28-2.92-7.7-7.41-18.73-9.98-24.5-2.57-5.77-8.67-18.37-13.55-28-4.88-9.62-13.05-24.48-18.16-33-5.11-8.53-13.08-20.9-17.73-27.5-4.64-6.6-12.06-16.72-16.49-22.5-4.43-5.78-13.25-16.57-19.61-24-6.36-7.43-18.29-20.26-26.51-28.51-8.22-8.26-20.79-20.11-27.94-26.34-7.15-6.22-19.75-16.4-28-22.61-8.25-6.21-19.95-14.6-26-18.65-6.05-4.05-16.85-10.89-24-15.19-7.15-4.31-23.58-13.1-36.5-19.55-12.92-6.44-29.58-14.1-37-17.02-7.42-2.92-20.02-7.55-28-10.28-7.98-2.73-20.8-6.7-28.5-8.83-7.7-2.13-20.08-5.25-27.5-6.94-7.42-1.69-19.58-4.17-27-5.51-7.42-1.34-19.35-3.14-26.5-3.99-7.15-.86-19.3-2.02-27-2.57-7.7-.55-26.83-.94-42.5-.87-15.67.08-32.87.51-38.21.97z"></path><path class="icon-51" d="M297.5 183.44c-3.3.7-8.93 2.66-12.5 4.34-3.57 1.68-9.2 5.15-12.5 7.71-3.3 2.56-8.15 7.21-10.77 10.33-2.62 3.12-6.29 8.83-8.16 12.68-1.86 3.85-4.1 10.26-4.98 14.25-.87 3.99-1.58 10.29-1.57 14 .01 3.71.67 9.9 1.48 13.75.8 3.85 3.34 10.82 5.62 15.5 3.31 6.75 5.83 10.14 12.27 16.5 5.01 4.95 10.59 9.32 14.61 11.43 3.57 1.89 9.2 4.25 12.5 5.26 3.3 1.01 10.05 2.1 15 2.43 6.4.41 11.16.12 16.5-1.02 4.13-.87 11.32-3.44 16-5.69 6.96-3.35 10.04-5.65 17.05-12.75 6.05-6.13 9.45-10.56 11.65-15.16 1.71-3.57 3.87-8.75 4.8-11.5.93-2.75 1.92-9.5 2.2-15 .34-6.8.02-12.24-.99-17-.81-3.85-2.82-9.93-4.45-13.5-1.63-3.57-5.17-9.4-7.86-12.93-2.7-3.54-8.05-8.78-11.9-11.64-3.85-2.86-9.02-6.21-11.5-7.44-2.48-1.23-7.87-3.09-12-4.13-4.68-1.17-10.7-1.85-16-1.79-4.68.05-11.2.67-14.5 1.37z"></path><path class="icon-52" d="M240.95 243.56c-3 2.01-8.15 5.8-11.45 8.41-3.3 2.62-9.09 8.08-12.86 12.14-3.77 4.07-9.43 11.21-12.56 15.89-3.14 4.68-7.42 12.1-9.52 16.5-2.09 4.4-5.05 11.82-6.57 16.5-1.52 4.68-3.49 12.77-4.38 18-1.41 8.24-1.62 20.53-1.62 92.75L182 507c29.02-.01 36.25.45 40 1.42 3.03.79 6.29 1.69 7.25 2.01 1.66.54 1.75-3.9 1.75-83.93 0-73.9.2-85.41 1.61-91.75.88-3.99 3.38-11.07 5.56-15.75 2.19-4.68 5.9-11.2 8.26-14.5 2.36-3.3 6.76-8.25 9.78-11l5.49-5c-3.75-5.43-6.11-9.48-7.66-12.5-1.56-3.02-3.61-8.2-4.57-11.5-.96-3.3-2.04-10.19-2.41-15.3l-.66-9.3-5.45 3.66zm136.06 3.19c.01 3.71-.45 9.23-1.02 12.25-.56 3.02-2.17 8.43-3.57 12-1.41 3.57-4.21 8.95-6.24 11.95l-3.68 5.45c9.06 8.6 13.64 14.03 16.03 17.6 2.38 3.57 5.71 9.54 7.4 13.25 1.69 3.71 4.05 10.46 5.25 15 2.14 8.07 2.2 10.04 2.75 90.72l.57 82.48c6.2 1.02 9.91 2.27 12.25 3.43 2.34 1.17 6.14 4.03 8.45 6.37 2.31 2.34 5.29 6.73 6.63 9.75 1.71 3.87 2.46 7.43 2.52 12 .05 3.98-.65 8.63-1.81 12-1.35 3.92-3.5 7.11-7.47 11.13-3.97 4.01-7.22 6.23-11.32 7.75-3.16 1.16-6.65 2.12-7.75 2.12-1.98 0-2 .66-1.98 76.25.01 45.12.43 79.11 1.01 83.25.55 3.85 1.92 10.6 3.05 15s3.93 12.73 6.22 18.5c2.3 5.77 6.88 15.02 10.19 20.55 3.3 5.53 8.71 13.41 12.01 17.5 3.29 4.1 9.41 10.83 13.59 14.95 4.17 4.13 11.15 10.06 15.5 13.19 4.35 3.12 10.39 7.05 13.41 8.73 3.02 1.67 5.73 3.05 6 3.06.27.01.51-5.05.53-11.23.02-9.55.43-12.46 2.73-19.25 1.49-4.4 3.98-10.02 5.53-12.5 1.55-2.48 3.12-4.95 3.49-5.5.38-.55-1.9-2.86-5.05-5.13s-8.67-7.22-12.25-11c-3.59-3.78-8.51-9.79-10.95-13.37-2.43-3.58-5.87-9.65-7.65-13.5-1.78-3.85-4.16-10.37-5.29-14.5-1.14-4.12-2.51-11.77-3.06-17-.62-5.94-1-78.73-1.02-194-.02-158.92-.23-185.78-1.51-193.75-.83-5.09-2.89-13.64-4.6-19-1.7-5.36-5.53-14.48-8.51-20.25-2.98-5.77-8.27-14.32-11.77-19-3.49-4.68-9.93-11.87-14.3-16-4.38-4.12-11.41-9.86-15.64-12.75-4.22-2.89-7.91-5.25-8.18-5.25-.27 0-.5 3.04-.49 6.75z"></path><path class="icon-51" d="M760 280.07c-3.02.37-7.52 1.22-10 1.89-2.48.68-8.1 3.09-12.5 5.36-5.57 2.88-10.13 6.27-15 11.17-3.85 3.87-8.7 9.96-10.78 13.53-2.08 3.56-4.78 9.63-6 13.48-1.78 5.61-2.22 9.38-2.22 19s.44 13.39 2.22 19c1.22 3.85 3.92 9.92 6 13.49 2.08 3.58 6.94 9.65 10.8 13.5 4.77 4.77 9.56 8.34 15 11.17 4.39 2.29 10.9 4.94 14.48 5.88 3.94 1.03 10.24 1.71 16 1.71 5.45 0 12.06-.68 15.5-1.58 3.3-.87 8.25-2.56 11-3.75 2.75-1.2 7.7-4.07 11-6.39 3.3-2.33 8.25-6.73 11-9.8 2.75-3.06 6.67-8.65 8.71-12.4 2.04-3.76 4.63-10.43 5.76-14.83 1.2-4.69 2.04-11.11 2.02-15.5-.01-4.12-.68-10.65-1.48-14.5-.8-3.85-3.27-10.6-5.49-15s-5.94-10.22-8.28-12.94c-2.33-2.72-7.61-7.46-11.74-10.53-5.66-4.21-9.83-6.34-17-8.7-5.63-1.84-12.35-3.28-16.5-3.51-3.85-.22-9.48-.11-12.5.25z"></path><path class="icon-52" d="M692.11 344.77c-5.16 3.7-13.26 10.78-18 15.73-4.73 4.96-11.15 12.83-14.25 17.5-3.1 4.68-7.04 11.31-8.75 14.75-1.71 3.44-4.44 10.19-6.07 15-1.62 4.81-3.73 11.9-4.68 15.75-1.58 6.41-1.78 19.47-2.34 154-.55 129.66-.81 147.77-2.21 153.5-.88 3.58-2.99 10.1-4.68 14.5-1.7 4.4-5.06 11.38-7.47 15.5-2.4 4.13-7.97 11.33-12.37 16-4.39 4.67-10.53 10.3-13.64 12.5l-5.64 4c3.21 4.65 5.51 8.92 7.18 12.5s3.65 9.42 4.41 13c.75 3.58 1.37 10.21 1.38 14.75L605 842c8.91-4.86 14.88-8.56 19-11.36 4.13-2.8 12.93-10.5 19.57-17.11 7.37-7.36 14.23-15.33 17.65-20.53 3.08-4.67 7.63-12.55 10.11-17.5 2.48-4.95 5.87-13.05 7.52-18 1.65-4.95 3.74-12.6 4.64-17 .9-4.4 2.04-12.5 2.54-18s.92-41.61.94-80.25L687 572c-3.87 0-7.36-.88-10.25-1.95-2.89-1.07-7.46-3.88-10.17-6.25-3.15-2.75-5.94-6.46-7.75-10.3-2.25-4.78-2.83-7.43-2.85-13-.01-3.92.68-8.98 1.57-11.5.88-2.48 3.03-6.45 4.78-8.83 1.74-2.39 5.19-5.67 7.67-7.3 2.48-1.62 6.08-3.36 8-3.87 1.92-.5 4.74-1.15 6.25-1.45L687 507l.59-73.5c4.19-12.01 6.37-17.41 7.55-19.75 1.18-2.34 3.84-6.73 5.91-9.75 2.08-3.02 6.7-8.43 10.27-12l6.5-6.5c-5.18-6.98-7.83-11.48-9.23-14.5-1.4-3.02-3.23-8.65-4.05-12.5-.83-3.85-1.51-10.04-1.52-13.75-.01-3.71-.36-6.74-.77-6.73-.41.02-4.97 3.05-10.14 6.75zm140.75 2.96c-.35 5.37-1.5 12.47-2.55 15.77-1.05 3.3-3.58 8.93-5.63 12.5-2.05 3.57-4.28 7.25-4.95 8.16-1.06 1.42-.09 2.85 6.77 10.02 5.81 6.08 9.27 10.83 12.65 17.34 2.56 4.94 5.69 12.13 6.96 15.98 2.23 6.75 2.32 8.37 2.6 45.25L849 511c3.49-.92 6.75-1.82 9.5-2.6 3.43-.97 10.41-1.41 22.25-1.4H898c-.63-69.09-.99-76.77-2.42-83-.95-4.12-2.88-10.87-4.27-15-1.4-4.12-4.42-11.32-6.72-16-2.29-4.68-6.4-11.86-9.13-15.96-2.73-4.1-9.07-11.75-14.09-17s-12.67-12.1-17-15.22c-4.33-3.12-8.54-5.94-9.37-6.27-1.25-.49-1.61 1.06-2.14 9.18z"></path><path class="icon-53" d="M175.5 507.95c-2.2.45-5.91 1.77-8.25 2.93-2.34 1.17-5.71 3.41-7.5 4.99s-4.47 5.06-5.96 7.75c-1.48 2.68-3.18 7.36-3.76 10.38-.75 3.92-.73 7.22.06 11.5.6 3.3 1.73 7.24 2.51 8.75.77 1.51 3.31 4.83 5.65 7.37 2.34 2.54 6.5 5.8 9.25 7.25 4.93 2.59 5.34 2.63 28.5 2.94 17.04.23 24.74-.04 28-.97 2.47-.71 6.97-3.13 10-5.38 3.97-2.94 6.47-5.87 8.97-10.52 3.18-5.89 3.48-7.17 3.5-14.94.03-7.19-.38-9.35-2.63-14-1.59-3.31-4.78-7.41-8-10.29-2.94-2.64-7.37-5.53-9.84-6.43-3.52-1.28-9.08-1.69-25.5-1.89-11.55-.14-22.8.11-25 .56zm150.5.15c-2.48.53-6.7 2.18-9.38 3.68-2.69 1.49-6.25 4.3-7.93 6.22-1.67 1.92-4.2 5.98-5.62 9-2.08 4.46-2.55 6.92-2.48 13 .06 5.1.71 8.94 2.05 12 1.08 2.48 3.96 6.71 6.41 9.4 2.71 2.98 6.8 6.02 10.45 7.75l6 2.85c70.74 0 72.78-.1 78.25-2.12 4.1-1.52 7.35-3.74 11.32-7.75 3.97-4.02 6.12-7.21 7.47-11.13 1.16-3.37 1.86-8.02 1.81-12-.06-4.57-.81-8.13-2.52-12-1.34-3.02-4.43-7.5-6.88-9.95-2.45-2.45-6.93-5.6-9.95-7l-5.5-2.55c-53.48-.27-71.02.08-73.5.6zm178-.22c-1.93.39-5.72 1.82-8.43 3.17-2.72 1.35-6.91 4.7-9.32 7.45-2.4 2.75-5.29 7.48-6.41 10.5-1.57 4.25-1.93 7.09-1.59 12.5.29 4.49 1.3 8.8 2.82 12 1.3 2.75 4.4 7.04 6.89 9.53 2.94 2.94 6.65 5.33 10.54 6.81 5.91 2.24 6.57 2.27 43 1.97 36.98-.31 37-.31 42-2.77 2.75-1.35 7.06-4.5 9.57-7 2.93-2.9 5.36-6.61 6.75-10.29 1.36-3.58 2.18-8.01 2.18-11.75 0-3.46-.82-8.22-1.94-11.25-1.08-2.93-4.06-7.61-6.75-10.59-2.87-3.19-7.03-6.41-10.31-8l-5.5-2.66c-54.25-.26-71.57-.02-73.5.38zm177.5.11c-2.2.43-5.91 1.73-8.25 2.89-2.34 1.17-6.08 4.03-8.32 6.37s-5.04 6.27-6.24 8.75c-1.5 3.11-2.29 6.97-2.56 12.5-.34 7.13-.07 8.7 2.49 14.41 1.99 4.43 4.43 7.77 7.88 10.81 2.75 2.42 7.36 5.28 10.25 6.34 4.83 1.78 8.13 1.94 41 1.95 31.32.01 36.37-.2 40.75-1.72 3.07-1.06 7.12-3.7 10.5-6.85 3.42-3.18 6.35-7.07 7.75-10.28 1.24-2.84 2.53-7.52 2.88-10.41.41-3.48.1-7.1-.94-10.75-.86-3.02-3.05-7.73-4.88-10.45-1.82-2.73-5.33-6.41-7.81-8.19-2.48-1.77-7.2-3.93-10.5-4.8-4.9-1.28-11.85-1.55-38-1.46-17.6.07-33.8.47-36 .89zm176.5.39c-2.48.73-5.74 1.84-7.25 2.47-1.51.63-4.9 3.29-7.53 5.9-2.63 2.61-5.87 7-7.19 9.75-1.89 3.94-2.42 6.7-2.47 13-.05 6.56.4 8.99 2.49 13.5 1.4 3.02 4.37 7.3 6.61 9.5 2.23 2.2 6.26 5.13 8.95 6.5 4.77 2.44 5.49 2.51 29.39 2.77l24.5.27c9.3-4.47 13.75-7.52 15.89-9.65 2.14-2.14 5.04-6.37 6.46-9.39 2.02-4.33 2.58-7.1 2.61-13 .03-6.02-.47-8.58-2.53-13-1.42-3.02-4.12-7.23-6-9.35-1.89-2.11-6.34-5.26-9.9-7l-6.48-3.15c-37.07-.39-44.3-.08-47.55.88z"></path><path class="icon-51" d="M523 770.13c-4.12 1.1-10.58 3.67-14.35 5.69-3.77 2.02-9.74 6.49-13.25 9.93-3.52 3.44-8.21 9.06-10.42 12.5-2.22 3.44-5.17 9.63-6.57 13.75-1.7 5.01-2.72 10.65-3.07 17-.38 6.66-.07 11.74 1.04 17 .87 4.13 3.48 11.33 5.79 16 3.2 6.46 6.02 10.32 11.77 16.08 4.16 4.17 10.04 8.97 13.06 10.68 3.02 1.7 8.99 4.25 13.25 5.67 6.58 2.18 9.53 2.57 19.5 2.56 7.09-.01 13.93-.59 17.25-1.48 3.02-.8 8.88-3.13 13-5.17 5.52-2.74 9.62-5.84 15.56-11.78 5.42-5.42 9.25-10.35 11.7-15.06 2-3.85 4.57-10.6 5.7-15 1.21-4.7 2.05-11.09 2.03-15.5-.01-4.12-.64-10.42-1.39-14-.76-3.58-2.71-9.42-4.34-13s-5.17-9.4-7.86-12.93c-2.7-3.54-8.05-8.78-11.9-11.64-3.85-2.86-9.02-6.21-11.5-7.44-2.48-1.23-7.87-3.09-12-4.13-4.77-1.2-10.77-1.86-16.5-1.81-5.64.04-11.8.82-16.5 2.08z"></path></svg>