<svg xmlns="http://www.w3.org/2000/svg" viewBox="0 0 810 810" width="810" height="810"><style>tspan{white-space:pre}.icon-40{fill:#fff}.icon-41{fill:#ffd10b}.icon-42{fill:#4d657b}</style><path class="icon-40" d="M375.5.64c-1.65.19-7.95.84-14 1.44S343.98 4.26 336 5.6c-7.98 1.34-21.48 4.19-30 6.34-8.52 2.15-20.9 5.68-27.5 7.86-6.6 2.17-17.62 6.2-24.5 8.95-6.87 2.75-18.12 7.69-25 10.97-6.87 3.28-18.57 9.47-26 13.76-7.43 4.28-18.22 10.97-24 14.86-5.78 3.88-14.32 9.97-19 13.53-4.68 3.56-12.53 9.88-17.45 14.05s-13.7 12.13-19.5 17.7c-5.8 5.56-14.69 14.79-19.75 20.5-5.07 5.71-12.61 14.66-16.77 19.88-4.16 5.22-11.56 15.35-16.43 22.5-4.87 7.15-12.36 19.07-16.64 26.5-4.28 7.43-10.46 19.13-13.74 26-3.28 6.88-8.22 18.13-10.97 25-2.75 6.88-6.78 17.9-8.95 24.5-2.18 6.6-5.72 18.98-7.88 27.5s-5.06 22.25-6.45 30.5c-1.39 8.25-3.24 22.43-4.11 31.5-1.2 12.57-1.45 23.28-1.05 45 .39 20.93 1.09 32.62 2.63 44 1.16 8.52 3.21 20.9 4.55 27.5 1.33 6.6 3.83 17.4 5.55 24 1.72 6.6 4.84 17.17 6.92 23.5 2.08 6.33 6.04 17.13 8.79 24 2.75 6.88 7.69 18.13 10.97 25 3.28 6.88 9.46 18.58 13.74 26 4.28 7.42 11.77 19.35 16.64 26.5 4.87 7.15 12.27 17.27 16.43 22.5s11.7 14.17 16.77 19.88c5.06 5.71 13.95 14.94 19.75 20.5 5.8 5.57 14.58 13.53 19.5 17.7s12.77 10.49 17.45 14.05c4.68 3.56 13.22 9.65 19 13.53 5.78 3.89 16.57 10.58 24 14.86 7.43 4.29 18.9 10.38 25.5 13.53 6.6 3.15 14.93 6.94 18.5 8.41 3.57 1.48 11.9 4.71 18.5 7.19 6.6 2.47 18.98 6.5 27.5 8.94 8.52 2.45 22.02 5.78 30 7.41s21.93 3.97 31 5.21c14.48 1.98 20.72 2.25 51 2.24 27.09-.01 37.29-.38 47.5-1.75 7.15-.96 18.18-2.66 24.5-3.78 6.32-1.12 18.48-3.77 27-5.9 8.52-2.12 20.9-5.64 27.5-7.82 6.6-2.17 17.63-6.21 24.5-8.97 6.88-2.75 17.23-7.23 23-9.95 5.77-2.72 16.35-8.2 23.5-12.18 7.15-3.99 19.98-11.92 28.5-17.63 8.52-5.71 19.77-13.8 25-17.97 5.23-4.18 14.17-11.73 19.88-16.8 5.71-5.06 14.94-13.95 20.5-19.75 5.57-5.8 13.53-14.58 17.7-19.5s10.66-13 14.43-17.95c3.76-4.95 10.55-14.62 15.07-21.5 4.52-6.87 11.5-18.35 15.49-25.5 4-7.15 9.49-17.73 12.2-23.5 2.7-5.77 6.04-13.2 7.4-16.5 1.36-3.3 4.5-11.4 6.98-18 2.47-6.6 6.5-18.98 8.94-27.5 2.45-8.52 5.78-22.02 7.41-30s3.97-21.93 5.21-31c1.98-14.48 2.25-20.72 2.24-51-.01-27.09-.38-37.29-1.75-47.5-.96-7.15-2.66-18.18-3.78-24.5-1.12-6.32-3.77-18.48-5.9-27-2.12-8.52-5.64-20.9-7.82-27.5-2.17-6.6-6.2-17.62-8.95-24.5-2.75-6.87-7.69-18.12-10.97-25-3.28-6.87-9.46-18.57-13.74-26-4.28-7.43-11.77-19.35-16.64-26.5-4.87-7.15-12.27-17.28-16.43-22.5-4.16-5.22-11.7-14.17-16.77-19.88-5.06-5.71-13.95-14.94-19.75-20.5-5.8-5.57-14.58-13.53-19.5-17.7S654.67 85.43 650 81.87c-4.67-3.56-13.23-9.65-19-13.53-5.77-3.89-16.58-10.58-24-14.86-7.42-4.29-19.12-10.48-26-13.76-6.87-3.28-18.12-8.22-25-10.97-6.87-2.75-17.9-6.78-24.5-8.95-6.6-2.18-18.98-5.72-27.5-7.88s-22.25-5.06-30.5-6.45c-8.25-1.38-21.98-3.19-30.5-4-9.61-.92-24.8-1.42-40-1.32-13.48.08-25.85.3-27.5.49z"></path><path class="icon-41" d="M394.04 124.24c-3.71 2.21-6.44 4.84-8.5 8.18l-3.04 4.92c0 39.64.06 40.27 2.5 44.61 1.38 2.45 4.41 5.94 6.75 7.75 2.34 1.82 6.16 3.79 8.5 4.39 2.34.61 6.5.84 9.25.52 3.24-.38 6.75-1.73 9.97-3.85 2.74-1.79 6.02-4.83 7.3-6.76 1.28-1.93 2.79-5.3 3.37-7.5.6-2.32.9-11.37.7-21.58-.34-17.58-.34-17.59-3.38-22.5-2.05-3.34-4.79-5.97-8.5-8.18-4.77-2.85-6.34-3.26-12.46-3.26-6.12 0-7.69.41-12.46 3.26zM204.5 202.33c-2.75 1.27-6.48 4.08-8.28 6.24-1.81 2.16-3.99 6.4-4.85 9.43-1.01 3.58-1.31 6.9-.85 9.5.39 2.2 1.36 5.57 2.16 7.5.8 1.93 6.49 8.6 12.64 14.84 6.15 6.23 13.21 12.53 15.68 14 3.72 2.2 5.71 2.66 11.5 2.66 5.02 0 8.12-.57 10.95-2 2.18-1.1 5.29-3.35 6.92-5s3.78-4.8 4.77-7c1.11-2.44 1.82-6.34 1.82-10 0-3.92-.71-7.56-2.06-10.5-1.27-2.79-6.3-8.8-13.23-15.79-7.17-7.26-12.96-12.18-16.17-13.77-3.51-1.73-6.64-2.46-10.5-2.44-3.6.01-7.23.82-10.5 2.33zm383.5-.23c-2.79 1.27-8.8 6.3-15.79 13.23-7.26 7.17-12.18 12.96-13.77 16.17-1.81 3.68-2.45 6.59-2.43 11 .02 3.59.76 7.61 1.85 10 .99 2.2 3.14 5.35 4.77 7 1.63 1.65 4.74 3.9 6.92 5 2.86 1.45 5.88 1.99 10.95 1.96 4.82-.02 8.09-.61 10.5-1.88 1.92-1.01 8.39-6.62 14.36-12.46 5.97-5.84 11.94-12.31 13.25-14.37 1.31-2.06 2.86-5.89 3.43-8.5.76-3.46.71-6.25-.17-10.25-.7-3.16-2.53-7.21-4.3-9.5s-5.43-5.18-8.58-6.77c-4.06-2.04-6.92-2.75-10.99-2.72-3.35.02-7.26.84-10 2.09zm-203 43.04c-4.12.48-12.45 2.06-18.5 3.5-6.05 1.44-14.37 3.87-18.5 5.39-4.12 1.52-10.87 4.31-15 6.2-4.12 1.89-11.32 5.81-16 8.71-4.68 2.9-12.32 8.27-17 11.92-4.68 3.65-12.06 10.24-16.41 14.64-4.36 4.4-11.45 12.73-15.77 18.5-4.52 6.04-10.76 16.23-14.7 24-3.77 7.43-8.45 18.45-10.4 24.5-1.95 6.05-4.27 14.49-5.14 18.75-.87 4.26-2.11 13.26-2.76 20-.88 9.19-.9 15.75-.07 26.25.61 7.7 2.31 19.4 3.77 26 1.47 6.6 4.25 16.27 6.2 21.5 1.94 5.23 5.33 13.1 7.53 17.5 2.19 4.4 6.47 11.82 9.51 16.5 3.04 4.67 8.12 11.65 11.29 15.5 3.18 3.85 9.53 10.66 14.11 15.12 4.59 4.47 11.56 10.55 15.49 13.5 3.93 2.96 10.97 7.63 15.64 10.38 4.67 2.75 9.9 5.79 11.6 6.75L333 572c-.01 65.93.27 73.59 1.56 78.5.86 3.3 2.99 8.48 4.74 11.5 1.75 3.02 5.54 7.86 8.44 10.75 3.31 3.3 7.95 6.52 12.51 8.67 3.99 1.89 9.95 3.92 13.25 4.51 3.33.6 18 1.08 33 1.08s29.67-.48 33-1.08c3.3-.59 9.15-2.58 13-4.4 4.41-2.09 9.04-5.36 12.5-8.81 3.02-3.02 6.94-7.91 8.71-10.86 1.76-2.95 3.9-8.06 4.75-11.36 1.26-4.88 1.55-12.77 1.55-42.25L480 572c3.49-2.11 9-5.37 14.5-8.6 5.5-3.23 14.27-9.3 19.5-13.49 5.23-4.19 13.1-11.45 17.5-16.13 4.4-4.69 10.62-12.06 13.83-16.4 3.21-4.33 8.28-12.15 11.27-17.38 3-5.23 7.2-14 9.35-19.5 2.15-5.5 5.02-13.82 6.37-18.5 1.35-4.68 3.26-13 4.23-18.5 1.21-6.84 1.76-15.05 1.75-26-.02-8.8-.58-19.82-1.25-24.5s-2.54-13.68-4.15-20c-1.61-6.32-4.95-16.45-7.42-22.5-2.48-6.05-6.64-14.74-9.24-19.3-2.61-4.57-8.17-12.9-12.35-18.5-4.19-5.61-12.54-14.93-18.55-20.7-6.01-5.77-15.64-13.68-21.39-17.57-5.75-3.9-13.38-8.68-16.95-10.64-3.57-1.96-11.68-5.59-18-8.06-6.32-2.47-16.45-5.66-22.5-7.08-6.05-1.43-15.05-3.05-20-3.61-4.95-.56-14.62-.97-21.5-.9-6.87.06-15.87.51-20 1zm-261.96 150.1c-3.5 2.09-6.48 4.88-8.28 7.76-1.78 2.86-3.02 6.5-3.39 10-.33 3.02-.11 7.3.47 9.5.59 2.2 2.44 5.91 4.11 8.25 1.84 2.56 5.13 5.34 8.3 6.99 5.17 2.7 5.54 2.74 23.75 2.75 14.84.01 19.19-.31 22-1.59 1.93-.88 5.04-2.9 6.92-4.5 1.88-1.59 4.47-5.15 5.74-7.9 1.54-3.32 2.32-6.85 2.32-10.5 0-3.65-.78-7.18-2.32-10.5-1.27-2.75-3.86-6.31-5.74-7.9-1.88-1.6-4.88-3.51-6.67-4.25-2.34-.97-8.65-1.35-22.5-1.36l-19.25-.01-5.46 3.26z"></path><path class="icon-42" d="M331 393.1c-2.48.5-6.19 2.04-8.25 3.41-2.06 1.37-4.88 4.18-6.26 6.24-1.56 2.32-2.75 5.85-3.13 9.25-.48 4.33-.16 6.56 1.5 10.5 1.16 2.75 3.36 6.21 4.88 7.7 1.52 1.48 4.56 3.49 6.76 4.47 3.45 1.53 7.68 1.82 30.75 2.05L384 437c.47 214.6.67 226.87 2.1 230 .88 1.92 3.36 5.19 5.5 7.26 2.15 2.07 5.47 4.27 7.4 4.88 1.93.62 6.26.95 9.64.74 4.94-.31 7-1 10.5-3.52 2.55-1.84 5.4-5.15 6.86-7.97l2.5-4.84L429 437c54.14-.5 56.83-.69 60.45-2.51 2.18-1.1 5.1-3.14 6.5-4.54 1.4-1.4 3.39-4.32 4.41-6.5 1.05-2.21 1.87-6.15 1.87-8.95 0-2.8-.82-6.74-1.87-8.95-1.02-2.18-3.01-5.1-4.41-6.5-1.4-1.4-4.32-3.45-6.5-4.55-3.84-1.94-6.1-2-78.95-2.16-42.41-.09-76.96.24-79.5.76z"></path><path class="icon-41" d="M642.5 393.39c-1.65.72-4.54 2.61-6.42 4.21-1.88 1.59-4.47 5.15-5.74 7.9a24.769 24.769 0 0 0-2.32 10.5c0 3.65.78 7.18 2.32 10.5 1.27 2.75 3.86 6.31 5.74 7.9 1.88 1.6 5 3.62 6.92 4.5 2.81 1.28 7.16 1.6 22 1.59 18.21-.01 18.58-.05 23.75-2.75 3.17-1.65 6.46-4.43 8.3-6.99 1.67-2.34 3.52-6.05 4.11-8.25.58-2.2.8-6.48.47-9.5-.37-3.5-1.61-7.14-3.39-10-1.8-2.88-4.78-5.67-8.28-7.76l-5.46-3.26c-33.29.08-39.88.48-42 1.41zm-418 173.22c-4.23 1.33-7.03 3.6-18.16 14.73-12.27 12.27-13.27 13.57-14.86 19.16-1.17 4.15-1.48 7.39-.99 10.5.39 2.48 1.51 6.08 2.48 8 .98 1.92 3.52 5.04 5.65 6.92 2.13 1.88 5.34 4.02 7.13 4.75 1.79.73 5.84 1.32 9 1.31 3.63-.02 7.41-.78 10.25-2.08 2.79-1.27 8.8-6.3 15.79-13.23 7.26-7.17 12.18-12.96 13.77-16.17 1.76-3.58 2.46-6.63 2.45-10.75 0-3.16-.61-7.21-1.34-9-.73-1.79-2.87-5-4.75-7.13s-5.11-4.72-7.17-5.75c-2.06-1.03-6.11-2.09-9-2.36-3.3-.3-7.11.11-10.25 1.1zm352 .27c-1.65.43-4.35 1.47-6 2.32-1.65.84-4.58 3.32-6.5 5.52-1.92 2.2-4.06 5.74-4.73 7.89-.68 2.14-1.25 6.14-1.27 8.89-.01 3.35.79 6.65 2.44 10 1.59 3.21 6.51 9 13.77 16.17 6.99 6.93 13 11.96 15.79 13.23 2.84 1.3 6.62 2.06 10.25 2.08 3.16.01 7.21-.58 9-1.31 1.79-.73 5-2.87 7.13-4.75s4.67-5 5.65-6.92c.97-1.92 2.09-5.52 2.48-8 .49-3.13.18-6.32-1.02-10.5-1.59-5.5-2.74-7.02-13.86-18.3-6.67-6.77-13.93-13.18-16.13-14.25-2.2-1.07-6.25-2.15-9-2.4s-6.35-.1-8 .33z"></path></svg>