<svg xmlns="http://www.w3.org/2000/svg" viewBox="0 0 1080 1080" width="1080" height="1080">
	<style>
		tspan{white-space:pre}.icon-30{fill:#fff}.icon-31{fill:#4d657b}.icon-32{fill:#ffd10b}.icon-33{fill:#1d202d}
	</style>
	<path class="icon-30" d="M497.79 1.11c-5.34.46-15.69 1.55-23 2.42-7.31.87-19.36 2.7-26.79 4.06-7.43 1.37-19.57 3.86-27 5.53-7.43 1.68-19.8 4.78-27.5 6.9-7.7 2.11-19.85 5.84-27 8.29-7.15 2.44-17.73 6.26-23.5 8.47-5.77 2.21-16.12 6.53-23 9.58-6.87 3.06-20.15 9.55-29.5 14.43-9.35 4.88-22.85 12.38-30 16.66-7.15 4.29-18.85 11.86-26 16.83-7.15 4.97-18.85 13.54-26 19.05-7.15 5.51-18.17 14.55-24.5 20.09-6.32 5.55-18.22 16.83-26.44 25.08-8.22 8.25-20.15 21.07-26.51 28.5-6.36 7.43-15.18 18.22-19.61 24-4.43 5.78-11.69 15.68-16.14 22-4.44 6.32-11.8 17.57-16.35 25-4.54 7.43-12.22 21.15-17.06 30.5-4.84 9.35-11.56 23.07-14.94 30.5-3.38 7.43-8.52 19.8-11.43 27.5-2.91 7.7-7.34 20.3-9.85 28-2.5 7.7-6.34 20.98-8.54 29.5-2.19 8.52-5.34 22.25-6.99 30.5-1.66 8.25-3.72 19.95-4.59 26-.87 6.05-2.27 16.63-3.12 23.5-.91 7.4-1.78 25.34-2.12 44-.37 20.47-.14 37.45.64 48.5.67 9.35 2.08 23.75 3.13 32 1.06 8.25 2.86 20.17 4 26.5 1.15 6.33 3.42 17.35 5.04 24.5 1.61 7.15 4.49 18.63 6.38 25.5 1.89 6.88 5.88 19.7 8.87 28.5 2.99 8.8 7.55 21.4 10.13 28 2.59 6.6 9.18 21.23 14.66 32.5s13.18 26.13 17.1 33c3.92 6.88 10.28 17.45 14.12 23.5 3.84 6.05 10.34 15.73 14.44 21.5 4.09 5.77 10.42 14.33 14.05 19 3.64 4.67 11.81 14.58 18.16 22 6.36 7.42 18.08 20.02 26.05 28 7.97 7.98 19.88 19.26 26.46 25.07 6.58 5.81 17.14 14.61 23.46 19.54 6.32 4.94 18.03 13.51 26 19.05 7.97 5.53 21.7 14.33 30.5 19.56 8.8 5.23 23.43 13.22 32.5 17.77 9.07 4.54 21 10.26 26.5 12.7 5.5 2.45 15.85 6.73 23 9.52 7.15 2.78 19.98 7.28 28.5 9.99s22.25 6.67 30.5 8.8c8.25 2.13 23.55 5.5 34 7.48 10.45 1.99 27.55 4.75 38 6.15 15.95 2.13 24.45 2.62 53 3.08 22.27.36 39.17.14 49-.64 8.25-.65 21.75-2.09 30-3.18 8.25-1.1 23.33-3.57 33.5-5.5 10.17-1.94 25.25-5.26 33.5-7.39s21.98-6.09 30.5-8.8c8.52-2.71 21.35-7.21 28.5-9.99 7.15-2.79 17.73-7.16 23.5-9.72 5.77-2.56 16.69-7.77 24.25-11.57 7.56-3.81 19.04-9.92 25.5-13.59 6.46-3.67 16.7-9.83 22.75-13.69 6.05-3.87 15.5-10.19 21-14.05 5.5-3.86 15.17-11.06 21.5-15.99s16.88-13.72 23.46-19.53c6.59-5.81 18.48-17.09 26.44-25.07 7.97-7.98 19.69-20.58 26.05-28 6.37-7.42 14.54-17.33 18.18-22 3.63-4.67 9.96-13.23 14.05-19 4.1-5.77 10.6-15.45 14.44-21.5 3.84-6.05 10.2-16.62 14.12-23.5 3.92-6.87 11.62-21.73 17.1-33 5.48-11.27 12.07-25.9 14.65-32.5 2.59-6.6 6.93-18.52 9.65-26.5 2.73-7.98 6.72-20.8 8.88-28.5 2.16-7.7 5.25-19.85 6.87-27 1.61-7.15 3.88-18.17 5.03-24.5 1.14-6.33 2.94-18.25 4-26.5 1.05-8.25 2.46-22.65 3.13-32 .78-11.05 1.01-28.03.64-48.5-.34-18.66-1.21-36.6-2.12-44-.85-6.87-2.25-17.45-3.12-23.5-.87-6.05-2.93-17.75-4.59-26-1.65-8.25-4.8-21.98-6.99-30.5-2.2-8.52-6.04-21.8-8.54-29.5-2.51-7.7-6.94-20.3-9.86-28-2.92-7.7-7.41-18.73-9.98-24.5-2.57-5.77-8.67-18.37-13.55-28-4.88-9.62-13.05-24.48-18.16-33-5.11-8.53-13.08-20.9-17.73-27.5-4.64-6.6-12.06-16.72-16.49-22.5-4.43-5.78-13.25-16.57-19.61-24-6.36-7.43-18.29-20.26-26.51-28.51-8.22-8.26-20.79-20.11-27.94-26.34-7.15-6.22-19.75-16.4-28-22.61-8.25-6.21-19.95-14.6-26-18.65-6.05-4.05-16.85-10.89-24-15.19-7.15-4.31-23.58-13.1-36.5-19.55-12.92-6.44-29.58-14.1-37-17.02-7.42-2.92-20.02-7.55-28-10.28-7.98-2.73-20.8-6.7-28.5-8.83-7.7-2.13-20.08-5.25-27.5-6.94-7.42-1.69-19.58-4.17-27-5.51-7.42-1.34-19.35-3.14-26.5-3.99-7.15-.86-19.3-2.02-27-2.57-7.7-.55-26.83-.94-42.5-.87-15.67.08-32.87.51-38.21.97z">
	</path>
	<path class="icon-31" d="M529 211.11c-2.48.5-7.42 2.29-11 3.98-3.58 1.7-8.69 4.96-11.38 7.25-2.68 2.29-6.78 7.09-9.11 10.66-2.32 3.57-5 8.75-5.94 11.5-.94 2.75-1.97 8.38-2.29 12.5-.35 4.45-.07 10.15.67 14 .69 3.57 2.62 9.2 4.28 12.5 1.67 3.3 4.43 7.76 6.15 9.92 1.72 2.16 6.61 6.54 10.87 9.75 6.66 5.01 8.21 6.77 11 12.55l3.25 6.73.5 35.55h30c.49-39 .57-39.61 3.11-44 1.44-2.48 4.59-6.04 7-7.92s6.34-5.26 8.73-7.5c2.39-2.24 5.61-5.88 7.17-8.08 1.55-2.2 4.02-7.15 5.48-11 1.59-4.21 2.86-9.99 3.18-14.5.37-5.19.03-9.66-1.12-14.5-.92-3.85-3.33-10.11-5.36-13.91-2.36-4.41-5.85-8.88-9.69-12.39-3.3-3.01-8.59-6.77-11.75-8.34-3.16-1.57-8.56-3.53-12-4.35-3.44-.81-8.73-1.44-11.75-1.39-3.02.06-7.52.5-10 .99z">
	</path>
	<path class="icon-32" d="M343 358.68c-1.93.2-6.65 1.08-10.5 1.97-3.85.89-10.37 3.16-14.5 5.05-4.12 1.89-10.2 5.37-13.5 7.74-3.3 2.37-8.62 6.95-11.83 10.18-3.21 3.24-7.79 8.81-10.18 12.38-2.39 3.57-5.49 8.98-6.89 12-1.4 3.02-3.57 9.32-4.82 14l-2.28 8.5v333c3.89 12.4 7.04 19.53 9.51 23.84 2.47 4.31 7.22 10.61 10.55 14 3.33 3.39 8.73 7.95 12 10.13 3.27 2.18 8.64 5.05 11.94 6.37 3.3 1.32 9.15 3.08 13 3.91 6.11 1.32 33.36 1.51 214.5 1.51 187.81 0 208.21-.16 215-1.63 4.13-.89 11.1-3.35 15.5-5.46s10.81-6.16 14.25-9c3.44-2.85 8.3-7.76 10.8-10.92 2.51-3.16 6.29-9.35 8.42-13.75 2.12-4.4 4.59-11.37 5.48-15.5 1.45-6.76 1.58-23.81 1.32-173.5l-.28-166c-3.61-11.62-6.19-18.15-8.07-22-1.88-3.85-5.81-10.15-8.74-14-2.93-3.85-8.66-9.8-12.75-13.22s-10.35-7.84-13.93-9.83c-3.58-1.98-9.65-4.67-13.5-5.97-3.85-1.3-10.83-2.84-15.5-3.42-5.78-.72-69.87-1.01-200-.9-105.32.09-193.07.32-195 .52z">
	</path>
	<path class="icon-31" d="M227.5 508.01c-2.95 1.13-6.96 3.87-9.79 6.7-2.98 2.98-5.53 6.77-6.75 10.04-1.88 5.05-1.96 8.19-1.96 81.25 0 72.74.08 76.22 1.94 81.25 1.11 3.01 3.78 7.15 6.25 9.7 2.37 2.45 6.78 5.57 9.81 6.93 4.97 2.24 7.21 2.53 23.25 3.05l17.76.57L268 506c-32.72.1-36.28.4-40.5 2.01zm583.63 98.37L811 707c35.25-.47 38.04-.75 42-2.56 2.48-1.14 6.19-3.73 8.25-5.75 2.06-2.03 4.76-5.6 6-7.94l2.25-4.25.6-157c-5.66-11.07-8.03-13.97-11.6-16.64-2.75-2.06-6.58-4.26-8.5-4.9-1.92-.64-11.43-1.39-21.12-1.68l-17.63-.53-.12 100.63z">
	</path>
	<path class="icon-33" d="M405.39 523.73c-1.15.26-4.53 1.37-7.5 2.47-2.96 1.11-7.64 3.47-10.39 5.26-2.75 1.79-7.14 5.46-9.76 8.15-2.62 2.69-6.06 7.37-7.65 10.39-1.6 3.02-3.62 7.98-4.5 11-.93 3.18-1.6 9.08-1.59 14 .01 4.67.63 10.75 1.36 13.5.74 2.75 2.82 7.92 4.63 11.5 1.95 3.84 5.62 8.75 8.98 12 3.12 3.02 8.8 7.17 12.61 9.22 3.8 2.04 10.07 4.39 13.92 5.22 5.36 1.15 8.87 1.3 15 .61 4.4-.49 10.48-1.81 13.5-2.92 3.02-1.12 8.2-3.79 11.5-5.95 3.3-2.16 7.96-6.34 10.35-9.3 2.4-2.96 5.44-7.52 6.75-10.13 1.32-2.61 3.08-7.34 3.91-10.5.82-3.16 1.5-9.12 1.5-13.25 0-4.12-.8-10.42-1.77-14-.98-3.58-3.34-9.13-5.26-12.35-1.91-3.22-6.29-8.51-9.73-11.75-3.44-3.25-8.5-7.02-11.25-8.4-2.75-1.37-7.81-3.17-11.25-3.99-3.44-.81-9.62-1.43-13.75-1.36-4.12.07-8.45.33-9.61.58zm244.61.86c-3.02.8-7.98 2.65-11 4.1-3.36 1.61-8.22 5.39-12.5 9.73-4 4.05-8.15 9.44-9.68 12.58-1.47 3.03-3.39 8.2-4.25 11.5-.87 3.3-1.57 9.15-1.56 13 .02 3.85.73 9.7 1.59 13 .86 3.3 2.99 8.65 4.73 11.89 1.75 3.23 5.68 8.41 8.75 11.5 3.07 3.08 8.24 7.03 11.5 8.76 3.26 1.74 8.4 3.88 11.42 4.76 3.14.92 9.15 1.61 14 1.61 4.91 0 10.82-.69 14-1.62 3.02-.89 8.2-3 11.5-4.67 3.3-1.67 8.28-5.34 11.07-8.14 2.79-2.8 6.28-7 7.75-9.34 1.48-2.34 3.84-7.74 5.26-12 1.99-5.96 2.57-9.71 2.54-16.25-.02-5.56-.72-10.75-2.03-15-1.1-3.58-3.75-9.2-5.89-12.5-2.14-3.3-6.32-8.28-9.3-11.06-2.97-2.78-7.88-6.28-10.9-7.76-3.02-1.49-7.98-3.37-11-4.18-3.02-.81-8.87-1.45-13-1.42-4.12.03-9.98.71-13 1.51zM469.31 688.41c-2.55 2.2-2.79 2.96-2.58 8.25.13 3.21 1.16 8.54 2.29 11.84 1.14 3.3 3.17 7.91 4.52 10.25 1.35 2.34 4.82 6.58 7.71 9.43 2.89 2.85 7.95 6.45 11.25 7.99 3.3 1.55 9.15 3.48 13 4.3 5.24 1.12 13.9 1.5 34.5 1.5 19.31 0 29.44-.41 34-1.36 3.58-.75 9.2-2.64 12.5-4.21 3.32-1.57 8.52-5.31 11.64-8.37 3.8-3.73 6.82-7.98 9.23-13.03 1.98-4.12 4.13-10.42 4.78-14 .89-4.92.9-7.23.03-9.5-.63-1.65-2.28-3.56-3.66-4.25-1.94-.96-17.92-1.25-69.46-1.25h-66.94l-2.81 2.41z">
	</path>
	<path class="icon-31" d="M425.55 824c-.3.55.01.99.7.97.69-.01 4.4 1.53 8.25 3.43 3.85 1.91 9.28 5.63 12.07 8.28 2.78 2.65 6.2 6.62 7.59 8.82 1.39 2.2 3.44 6.48 4.57 9.5 1.12 3.02 2.31 7.86 2.65 10.75L462 871h155c1.59-10.46 3.39-16.31 5.03-19.75 1.63-3.44 5.11-8.56 7.72-11.37 2.61-2.82 6.77-6.51 9.25-8.2 2.48-1.68 6.88-3.99 9.78-5.12 2.91-1.13 4.94-2.41 4.5-2.84-.43-.43-51.72-.76-113.98-.75-74.41.02-113.39.37-113.75 1.03z">
	</path>
</svg>
