<svg version="1.2" baseProfile="tiny-ps" xmlns="http://www.w3.org/2000/svg" viewBox="0 0 846 157" width="620" height="130">
	<style>
		tspan{white-space:pre}.aleeert-waves0{fill:#e1ecf1}
	</style>
	<path fill-rule="evenodd" class="aleeert-waves0" d="M484.95.96c.85-.03 2.09.53 2.75 1.25.71.76.91 2.23.5 3.58-.39 1.27-1.49 2.5-2.45 2.75-.96.26-2.45-.1-3.29-.79-.85-.69-1.62-1.95-1.7-2.8-.09-.85.47-2.09 1.24-2.75.77-.66 2.1-1.22 2.95-1.24zM485 17c.27-.04 1.24.74 2.14 1.72 1.19 1.3 1.4 2.39.75 4.03-.49 1.24-1.68 2.26-2.64 2.27-.96.01-2.32-.56-3.02-1.25-.69-.7-1.33-2.04-1.42-2.97-.08-.94.71-2.16 1.77-2.72s2.15-1.05 2.42-1.08zm-52.5 9.05c5.5 0 12.02.46 14.5 1.02 2.48.57 7.88 2.69 12 4.73 4.82 2.37 9.68 5.84 13.6 9.7 3.35 3.3 7.48 8.48 12.23 17l2.22-4.5c1.23-2.48 5.66-7.9 9.84-12.05 4.68-4.64 9.73-8.57 13.11-10.18 3.02-1.44 7.98-3.34 11-4.21 3.74-1.09 8.54-1.51 15-1.33 9.31.26 9.51.32 9.78 2.77.16 1.38-.29 3.08-1 3.79-.83.85-3.89 1.28-8.78 1.23-4.75-.04-9.88.66-14 1.9-3.58 1.08-9.39 3.9-12.93 6.27-3.53 2.37-7.86 6.11-9.63 8.31-1.76 2.2-4.38 6.36-5.82 9.25-1.44 2.89-3.04 7.16-3.55 9.5-.51 2.34-.74 4.59-.5 5 .24.41 2.12-.68 4.18-2.43 2.06-1.75 6.23-4.33 9.25-5.74 4.54-2.13 7.24-2.62 15.5-2.86 6.82-.19 10.8.13 12.5 1.03 1.38.72 2.61 2.09 2.75 3.03.14.95-.2 2.39-.75 3.22-.82 1.23-2.66 1.39-10.25.89-8.13-.53-9.97-.33-15.25 1.69-3.68 1.41-7.56 3.87-10.02 6.36-2.21 2.23-4.88 5.86-5.92 8.06s-2.16 6.18-3.06 13.67l5-2.75c3.96-2.18 6.25-2.74 11-2.69 3.3.04 7.24.57 8.75 1.17 1.51.61 3.24 2.11 3.84 3.35.9 1.85.73 2.6-.97 4.25-1.79 1.73-2.4 1.83-4.59.75-1.39-.69-4.44-1.25-6.78-1.25-2.34-.01-5.82.84-7.75 1.87-2.12 1.14-4.39 3.6-5.77 6.26-1.73 3.33-2.27 6.04-2.27 18.37l6.02 1.75c3.87 1.12 8.25 3.48 12.27 6.59 3.44 2.66 7.83 5.64 9.75 6.61 1.92.98 5.52 2.01 8 2.3 2.96.34 6.38-.11 10-1.32 3.02-1.01 7.52-3.61 10-5.77 2.48-2.16 6.75-5.1 9.5-6.54 4.47-2.34 6.11-2.62 15.5-2.62 8.57 0 11.33.39 15 2.1 2.48 1.15 6.52 3.81 9 5.9 2.48 2.09 6.75 4.85 9.5 6.14s6.8 2.35 9 2.36c2.2.01 6.02-.66 8.5-1.49 2.48-.83 6.98-3.55 10-6.03 3.02-2.49 7.52-5.49 10-6.68 2.59-1.24 7.25-2.35 11-2.61 4.26-.29 8.49.11 12.25 1.18 3.67 1.04 8.19 3.48 12.5 6.75 3.71 2.82 8.1 5.8 9.75 6.62 1.65.81 5.02 1.72 7.5 2.01 2.96.34 6.38-.11 10-1.32 3.02-1.01 7.52-3.61 10-5.77 2.48-2.16 6.75-5.1 9.5-6.54 4.37-2.28 6.2-2.61 14.5-2.61 8.39 0 10.09.31 14.5 2.68 2.75 1.47 7.25 4.52 10 6.79 2.75 2.26 7.25 4.83 10 5.7 3.06.97 6.75 1.39 9.5 1.07 2.48-.29 5.85-1.2 7.5-2.01 1.65-.82 6.04-3.8 9.75-6.62 4.31-3.27 8.83-5.71 12.5-6.75 3.75-1.06 8.01-1.47 12.25-1.19 4.03.28 8.21 1.31 11 2.73 2.48 1.25 5.96 3.36 7.75 4.69 2.16 1.59 3.25 3.24 3.25 4.9 0 1.5-.8 2.9-2 3.5-1.61.8-3.04.31-7.25-2.5-2.89-1.92-6.83-3.94-8.75-4.5-1.92-.55-5.08-1.01-7-1.01-1.92-.01-5.52.66-8 1.48-2.48.83-6.98 3.59-10 6.14-3.02 2.55-6.85 5.31-8.5 6.15-1.65.83-5.02 2.12-7.5 2.87-2.48.74-5.85 1.35-7.5 1.35-1.65 0-5.02-.61-7.5-1.35-2.48-.75-5.85-2.04-7.5-2.87-1.65-.84-5.48-3.61-8.5-6.16-3.04-2.57-7.73-5.37-10.5-6.26-3.19-1.03-6.81-1.43-10-1.1-2.75.28-6.35 1.19-8 2.02-1.65.82-5.48 3.59-8.5 6.15-3.02 2.56-7.98 5.59-11 6.73-3.02 1.14-7.08 2.31-9 2.61-1.92.3-5.75-.04-8.5-.76s-6.58-2.08-8.5-3.03c-1.92-.95-5.52-3.42-8-5.49-2.48-2.07-6.75-4.82-9.5-6.11-2.99-1.4-6.81-2.33-9.5-2.31-2.48.02-6.08.59-8 1.26s-4.62 2.01-6 2.98c-1.37.97-4.75 3.55-7.5 5.73-2.75 2.18-7.7 4.87-11 5.98-3.3 1.11-7.46 2.01-9.25 2.01-1.79-.01-5.61-.76-8.5-1.68-2.89-.92-6.37-2.36-7.75-3.21-1.37-.84-4.52-3.17-7-5.19-2.48-2.01-6.08-4.5-8-5.53-2.64-1.42-5.59-1.88-12-1.88-6.03 0-9.37.48-11.5 1.65-1.65.91-5.81 3.94-9.25 6.74-4.47 3.64-8.17 5.66-13 7.11-3.71 1.11-7.87 2.01-9.25 1.99-1.37-.02-4.52-.64-7-1.38-2.48-.75-6.08-2.17-8-3.16-1.93-1-5.75-3.67-8.5-5.94-2.75-2.27-7.25-4.97-10-6-3.54-1.32-6.46-1.71-10-1.32-2.75.3-6.57 1.34-8.5 2.31-1.93.98-5.52 3.53-8 5.68-2.48 2.16-6.3 4.78-8.5 5.84-2.2 1.06-6.48 2.46-9.5 3.11-4.74 1.02-6.46.92-12.5-.72-4.93-1.34-8.74-3.24-12.87-6.42-3.23-2.48-7.73-5.63-10-7.01-3.38-2.04-5.4-2.49-11.13-2.47-4.87.01-8.07.59-10.5 1.89-1.93 1.02-5.07 3.22-7 4.88-1.93 1.67-5.07 4.02-7 5.23-1.93 1.21-6.43 3.02-10 4.02-5.58 1.55-7.28 1.64-12 .61-3.02-.65-7.3-2.06-9.5-3.12s-6.02-3.68-8.5-5.84c-2.48-2.15-6.07-4.76-8-5.79-2.65-1.43-5.57-1.89-12-1.89s-9.35.46-12 1.89c-1.93 1.03-5.52 3.64-8 5.79-2.48 2.16-6.52 4.87-9 6.04-2.73 1.29-7.26 2.31-11.5 2.57-4.63.3-8.86-.09-12.5-1.14-3.55-1.02-7.71-3.37-11.75-6.63-3.44-2.77-7.71-5.78-9.5-6.67-1.79-.9-5.72-1.86-8.75-2.14-4.28-.39-6.61-.01-10.5 1.71-2.75 1.22-7.03 3.92-9.5 6.01-2.47 2.08-6.53 4.82-9 6.08-3.07 1.57-6.88 2.45-12 2.77-5.34.34-8.94 0-12.5-1.17-2.75-.9-7.25-3.42-10-5.59-2.75-2.18-6.8-5.1-9-6.49-2.2-1.39-6.25-2.83-9-3.19-3.17-.42-6.83-.16-10 .71-3.1.85-7.28 3.23-11 6.24-3.3 2.68-7.8 5.84-10 7.03-3.34 1.8-5.66 2.16-14 2.16-8.26 0-10.7-.37-14-2.12-2.2-1.16-6.25-4.04-9-6.38s-6.35-4.93-8-5.75c-1.65-.82-5.25-1.73-8-2.01-3.19-.33-6.81.07-10 1.1-2.77.9-7.45 3.69-10.5 6.26-3.02 2.56-7.3 5.6-9.5 6.77-3.31 1.76-5.72 2.13-14 2.13-9.26 0-10.4-.22-15.34-3-2.93-1.65-6.53-4.22-8-5.71-2.6-2.65-2.62-2.77-.91-5.25.96-1.4 2.42-2.54 3.25-2.54.83 0 2.74 1.06 4.25 2.36 1.51 1.3 4.32 3.15 6.25 4.11 1.93.96 5.52 1.99 8 2.28 2.96.34 6.38-.11 10-1.32 3.02-1.01 7.52-3.61 10-5.77 2.48-2.16 6.75-5.1 9.5-6.54 4.37-2.28 6.2-2.61 14.5-2.61s10.13.33 14.5 2.61c2.75 1.44 7.03 4.38 9.5 6.54 2.47 2.16 6.97 4.76 10 5.77 3.62 1.21 7.04 1.66 10 1.32 2.47-.29 5.85-1.2 7.5-2.01 1.65-.82 6.04-3.8 9.75-6.62 4.31-3.27 8.83-5.71 12.5-6.75 3.76-1.07 7.99-1.47 12.25-1.18 3.75.26 8.41 1.37 11 2.61 2.47 1.19 6.97 4.19 10 6.68 3.03 2.49 7.75 5.26 10.5 6.16 3.12 1.02 6.69 1.43 9.5 1.1 2.47-.29 6.3-1.42 8.5-2.51 2.2-1.1 6.03-3.69 8.5-5.76 2.47-2.08 6.53-4.72 9-5.87 3.51-1.63 6.47-2.09 13.5-2.09 7.59-.01 9.78.38 14 2.48 2.75 1.37 7.25 4.41 10 6.77 2.75 2.35 7.02 4.94 9.5 5.77 2.48.82 6.07 1.49 8 1.49 1.93 0 5.52-.67 8-1.49 2.48-.83 6.75-3.42 9.5-5.77 2.75-2.36 7.25-5.4 10-6.77 4.37-2.18 6.32-2.49 15.5-2.49 8.85 0 11.21.35 15 2.23 2.48 1.23 6.98 4.26 10 6.75 3.02 2.48 7.52 5.2 10 6.03 2.48.83 6.3 1.5 8.5 1.49 2.2-.01 6.25-1.07 9-2.36 2.75-1.29 7.02-4.05 9.5-6.14 2.48-2.09 6.52-4.75 9-5.9 3.52-1.63 6.47-2.09 13.54-2.09 8.02-.01 9.66.31 14.5 2.85 3 1.58 7.48 4.59 9.96 6.7 2.48 2.12 6.52 4.55 9 5.41 2.48.87 6.07 1.57 8 1.56 1.93 0 5.52-.69 8-1.52 2.48-.83 6.75-3.35 9.5-5.6 2.75-2.25 6.35-4.91 8-5.91 1.65-1 5.02-2.35 12-4.2l-.55-7.65c-.35-5.01-1.23-8.86-2.55-11.15-1.11-1.92-3.56-4.53-5.46-5.78-2.25-1.49-4.9-2.27-7.69-2.25-2.34.02-5.37.48-6.75 1.03-1.67.67-3.17.67-4.5 0-1.2-.6-2-2-2-3.5 0-1.37.79-2.91 1.75-3.42.96-.51 3.77-1.38 6.25-1.94 2.93-.66 6.24-.69 9.5-.07 2.75.53 6.24 1.85 7.75 2.94 2.04 1.47 2.9 1.67 3.31.74.31-.69.04-3.28-.61-5.75-.64-2.47-1.98-6.08-2.97-8-.99-1.92-3.31-4.91-5.14-6.64-1.84-1.73-5.36-4.21-7.84-5.5-3.96-2.08-5.87-2.36-15.82-2.36-9.76 0-11.45-.24-12.25-1.75-.58-1.1-.56-2.49.07-3.75.62-1.23 2.44-2.24 4.75-2.63 2.06-.35 7.57-.44 12.25-.2 6.75.35 9.63 1.02 14 3.23 3.02 1.54 7.27 4.21 13.36 9.1l-.64-4.5c-.34-2.47-2.18-7.65-4.07-11.5-2.35-4.77-5.33-8.76-9.35-12.5-3.24-3.02-8.35-6.7-11.35-8.18-3-1.47-7.7-3.18-10.45-3.81-2.75-.63-9.05-1.01-14-.85-4.95.16-9.56-.04-10.25-.44-.69-.39-1.33-1.82-1.42-3.17-.11-1.52.56-2.84 1.75-3.47 1.06-.56 6.42-1.02 11.92-1.03zm125.82 3.92c.65-.01 1.85 1.09 2.68 2.46 1.33 2.2 1.33 2.65 0 4.07-.83.87-2.17 1.58-3 1.56-.83-.01-2.07-.6-2.77-1.29-.69-.7-1.29-1.8-1.32-2.45-.03-.65.69-1.88 1.59-2.75.9-.86 2.17-1.58 2.82-1.6zM408 32.06c.27-.01 1.25.77 2.18 1.72 1.02 1.05 1.41 2.42 1 3.51-.38.99-1.47 2-2.43 2.25-.96.26-2.45-.1-3.29-.79-.85-.69-1.61-2.02-1.68-2.95-.06-.94.74-2.16 1.8-2.72s2.15-1.02 2.42-1.02zm77 1.97c.82-.06 2.04.46 2.7 1.18.71.76.91 2.23.5 3.58-.39 1.27-1.49 2.5-2.45 2.75-.96.26-2.45-.1-3.29-.79-.85-.69-1.62-2.23-1.7-3.42-.09-1.19.49-2.39 1.29-2.67.8-.28 2.13-.56 2.95-.63zM572 39c.27-.04 1.24.74 2.14 1.72 1.19 1.3 1.4 2.39.75 4.03-.49 1.24-1.68 2.26-2.64 2.27-.96.01-2.32-.56-3.02-1.25-.69-.7-1.33-2.04-1.42-2.97-.08-.94.71-2.16 1.77-2.72s2.15-1.05 2.42-1.08zm-177 3c.27-.04 1.29.85 2.25 1.97 1.32 1.54 1.51 2.52.75 4.03-.55 1.1-1.79 2.01-2.75 2.02-.96.01-2.32-.56-3.02-1.25-.69-.7-1.33-2.04-1.42-2.97-.08-.94.71-2.16 1.77-2.72s2.15-1.05 2.42-1.08zm187 10c.27-.04 1.24.74 2.14 1.72 1.19 1.3 1.4 2.39.75 4.03-.49 1.24-1.68 2.26-2.64 2.27-.96.01-2.32-.56-3.02-1.25-.69-.7-1.33-2.04-1.42-2.97-.08-.94.71-2.16 1.77-2.72s2.15-1.05 2.42-1.08zm-195.5 3.99c.55-.05 1.56.62 2.25 1.47.69.84 1.02 2.44.75 3.54s-1.4 2.22-2.5 2.5c-1.1.28-2.7-.06-3.54-.75-.85-.69-1.61-2.02-1.68-2.95-.06-.94.74-2.16 1.8-2.72s2.37-1.05 2.92-1.09zm200.45 11.97c.85-.03 2.04.62 2.64 1.45.61.82.94 2.42.75 3.54-.19 1.13-1.24 2.27-2.34 2.55-1.1.28-2.7-.06-3.54-.75-.85-.69-1.62-1.95-1.7-2.8-.09-.85.47-2.09 1.24-2.75.77-.66 2.1-1.22 2.95-1.24zm-204.63 4.02c.65-.01 1.75.56 2.45 1.25.69.7 1.26 2.06 1.25 3.02-.01.96-1.19 2.31-2.62 3-2.29 1.1-2.78 1.01-4.02-.75-.78-1.1-1.44-2.31-1.47-2.68-.03-.37.69-1.38 1.59-2.25.9-.86 2.17-1.58 2.82-1.59zm43.18.02c.55-.02 1.57.54 2.27 1.23.69.7 1.26 2.06 1.25 3.02-.01.96-.92 2.2-2.02 2.75-1.47.73-2.53.6-4-.5-1.32-.99-1.77-2.1-1.32-3.25.37-.96 1.16-2.08 1.75-2.48.59-.41 1.52-.75 2.07-.77zm118.82-.02c.65-.01 1.75.56 2.45 1.25.69.7 1.26 2.06 1.25 3.02-.01.96-.92 2.2-2.02 2.75-1.51.76-2.49.57-4.03-.75-1.12-.96-2.05-2.06-2.07-2.43-.03-.37.7-1.38 1.6-2.25.9-.86 2.17-1.58 2.82-1.59zM418.2 86.12c1.14.57 1.89 1.94 1.86 3.42-.04 1.42-.9 2.88-2.06 3.46-1.42.71-2.45.63-3.54-.25-.85-.69-1.61-2.24-1.68-3.45-.06-1.21.69-2.63 1.69-3.17 1.15-.61 2.51-.61 3.73-.01zm137.01.65c1.02.95 1.84 2.29 1.82 2.98-.02.69-1.04 1.92-2.28 2.73-2.02 1.32-2.44 1.3-4.03-.25-.98-.95-1.83-2.27-1.89-2.92-.05-.66.94-1.89 2.21-2.73 2.1-1.4 2.48-1.38 4.17.19zM446.2 110c.99 0 2.23.74 2.76 1.64.53.91.64 2.5.25 3.55-.39 1.04-1.5 2.1-2.46 2.35-.96.26-2.45-.1-3.29-.79-.85-.69-1.62-1.95-1.7-2.8-.09-.85.47-2.09 1.24-2.75.77-.66 2.21-1.2 3.2-1.2zm78 0c.99 0 2.23.74 2.76 1.64.53.91.64 2.5.25 3.55-.39 1.04-1.5 2.1-2.46 2.35-.96.26-2.45-.1-3.29-.79-.85-.69-1.62-1.95-1.7-2.8-.09-.85.47-2.09 1.24-2.75.77-.66 2.21-1.2 3.2-1.2z">
	</path>
</svg>
