<svg version="1.2" baseProfile="tiny-ps" xmlns="http://www.w3.org/2000/svg" viewBox="0 0 810 576" width="500" height="356">
	<style>
		tspan{white-space:pre}.svg-whale0{fill:#a3b3c1}.svg-whale1{fill:#bfcad4}.svg-whale2{fill:#bec9d3}.svg-whale3{fill:#6a04c3}.svg-whale4{fill:#5b09a6}.svg-whale5{fill:#9750d5}.svg-whale6{fill:#ac73dd}.svg-whale7{fill:#6e04cb}.svg-whale8{fill:#041256}
	</style>
	<g>
		<path class="svg-whale0" d="M761.52 218.26H282.49c-2.78 0-5.55-.1-8.33-.31-2.77-.21-5.53-.53-8.28-.95-2.75-.42-5.47-.94-8.18-1.57-2.71-.62-5.39-1.36-8.04-2.19-2.65-.83-5.27-1.76-7.85-2.8-2.58-1.03-5.12-2.16-7.62-3.38-2.49-1.23-4.94-2.55-7.33-3.96-2.4-1.41-4.73-2.91-7.01-4.5-2.29-1.6-4.5-3.27-6.65-5.03-2.15-1.76-4.24-3.6-6.25-5.52-2.01-1.91-3.95-3.91-5.81-5.97-1.86-2.07-3.64-4.2-5.33-6.4-1.7-2.21-3.31-4.47-4.84-6.79-1.52-2.33-2.96-4.71-4.3-7.14a107.71 107.71 0 0 1-3.74-7.44c-1.16-2.53-2.21-5.1-3.17-7.71l-1.72-4.63h-60.43v69.28c0 189.21 153.12 346.81 342.19 343.77 5.15-.1 10.29-.32 15.43-.65 5.13-.34 10.26-.79 15.38-1.36 5.11-.57 10.22-1.26 15.3-2.07 5.09-.81 10.15-1.73 15.19-2.77 5.04-1.04 10.06-2.2 15.05-3.46 4.99-1.27 9.95-2.66 14.87-4.16 4.93-1.5 9.82-3.11 14.67-4.83 4.85-1.72 9.66-3.56 14.43-5.5 4.76-1.94 9.48-4 14.16-6.16 4.67-2.16 9.29-4.43 13.86-6.81 4.57-2.37 9.08-4.85 13.53-7.43 4.46-2.58 8.85-5.27 13.18-8.05 4.33-2.78 8.59-5.66 12.8-8.64 4.19-2.99 8.32-6.06 12.38-9.23 4.05-3.17 8.03-6.43 11.94-9.78 3.91-3.36 7.73-6.8 11.48-10.33 3.75-3.53 7.42-7.14 11-10.84s7.08-7.48 10.49-11.33c3.4-3.87 6.72-7.8 9.95-11.81a336.851 336.851 0 0 0 18.23-24.92c2.84-4.29 5.58-8.65 8.23-13.06a329.287 329.287 0 0 0 14.62-27.2c2.23-4.64 4.35-9.33 6.36-14.07 2.02-4.74 3.92-9.52 5.71-14.35a334.45 334.45 0 0 0 9.4-29.4c1.34-4.98 2.57-9.98 3.68-15 1.11-5.03 2.11-10.08 2.98-15.15.88-5.08 1.64-10.17 2.29-15.28.64-5.1 1.17-10.22 1.58-15.35.04-.9.04-1.79-.01-2.68-.04-.9-.13-1.78-.27-2.67-.13-.88-.31-1.76-.54-2.63a25.935 25.935 0 0 0-1.86-5.01c-.4-.8-.83-1.59-1.3-2.34-.48-.76-.99-1.5-1.54-2.2a26.003 26.003 0 0 0-3.69-3.88c-.68-.58-1.38-1.12-2.12-1.64-.73-.51-1.49-.98-2.28-1.41-.78-.44-1.58-.83-2.4-1.18a25.858 25.858 0 0 0-5.11-1.59c-.88-.18-1.76-.32-2.65-.41-.89-.09-1.78-.13-2.68-.13z">
		</path>
		<path class="svg-whale1" d="M761.52 218.26h-2.91a24.97 24.97 0 0 1 2.75 7.02c.57 2.48.75 4.99.56 7.53-.42 5.11-.97 10.2-1.63 15.29a332.712 332.712 0 0 1-5.34 30.3c-1.13 5.01-2.36 9.99-3.71 14.94a337.154 337.154 0 0 1-15.17 43.56c-2.02 4.71-4.14 9.39-6.37 14a346.26 346.26 0 0 1-7 13.71c-2.44 4.51-4.98 8.96-7.63 13.36-2.64 4.4-5.39 8.73-8.23 13-2.84 4.27-5.78 8.48-8.82 12.61a334.6 334.6 0 0 1-9.38 12.2c-3.22 3.99-6.53 7.91-9.93 11.74-3.4 3.85-6.89 7.61-10.47 11.29-3.57 3.68-7.22 7.28-10.96 10.79a334.803 334.803 0 0 1-23.36 20.02c-4.05 3.16-8.16 6.22-12.35 9.19a323.27 323.27 0 0 1-12.75 8.61c-4.31 2.77-8.69 5.44-13.13 8.02a338.84 338.84 0 0 1-13.49 7.41 346.06 346.06 0 0 1-13.81 6.78 337.042 337.042 0 0 1-43.09 16.46 361.54 361.54 0 0 1-14.82 4.15 349.72 349.72 0 0 1-14.99 3.46c-5.02 1.04-10.07 1.97-15.13 2.78-5.07.8-10.15 1.5-15.25 2.08-5.1.57-10.21 1.03-15.33 1.37-5.12.35-10.24.57-15.37.68-12.45.25-24.88-.22-37.27-1.39-12.4-1.18-24.69-3.05-36.88-5.63a327.125 327.125 0 0 1-35.99-9.81 327.2 327.2 0 0 1-34.64-13.84 325.732 325.732 0 0 0 39.87 19.58 327.175 327.175 0 0 0 42.14 14c14.37 3.71 28.93 6.43 43.66 8.15 14.74 1.73 29.53 2.45 44.37 2.16 5.13-.09 10.27-.31 15.39-.64 5.13-.33 10.25-.78 15.36-1.34 5.1-.57 10.2-1.25 15.27-2.05 5.08-.81 10.13-1.72 15.17-2.75 5.03-1.04 10.04-2.18 15.02-3.44 4.98-1.27 9.93-2.64 14.85-4.13 4.91-1.49 9.8-3.09 14.64-4.81 4.84-1.71 9.64-3.53 14.41-5.47 4.75-1.93 9.47-3.97 14.14-6.12 4.66-2.15 9.28-4.41 13.84-6.77 4.56-2.37 9.07-4.83 13.52-7.4 4.45-2.57 8.84-5.24 13.17-8.01 4.33-2.77 8.59-5.64 12.78-8.61 4.2-2.96 8.32-6.03 12.38-9.18 4.05-3.16 8.03-6.41 11.94-9.75 3.9-3.33 7.73-6.76 11.48-10.28 3.75-3.51 7.41-7.11 11-10.79 3.58-3.68 7.08-7.45 10.49-11.29 3.41-3.84 6.73-7.76 9.96-11.76 3.23-3.99 6.37-8.06 9.41-12.2 3.05-4.14 6-8.35 8.84-12.63 2.85-4.27 5.6-8.61 8.26-13.01 2.65-4.4 5.2-8.86 7.64-13.38 2.45-4.52 4.79-9.09 7.03-13.72 2.23-4.62 4.36-9.3 6.39-14.02 2.02-4.73 3.93-9.5 5.73-14.31 1.81-4.81 3.5-9.66 5.08-14.55 1.58-4.89 3.04-9.81 4.4-14.77 1.35-4.96 2.59-9.94 3.72-14.96 1.12-5.01 2.13-10.05 3.03-15.11.89-5.06 1.67-10.13 2.33-15.23.66-5.09 1.2-10.2 1.63-15.32.04-.9.04-1.79-.01-2.68-.04-.9-.13-1.78-.27-2.67-.13-.88-.31-1.76-.54-2.63a25.935 25.935 0 0 0-1.86-5.01c-.4-.8-.83-1.59-1.3-2.34-.48-.76-.99-1.5-1.54-2.2a26.003 26.003 0 0 0-3.69-3.88c-.68-.58-1.38-1.12-2.12-1.64-.73-.51-1.49-.98-2.28-1.41-.78-.44-1.58-.83-2.4-1.18a25.858 25.858 0 0 0-5.11-1.59c-.88-.18-1.76-.32-2.65-.41-.89-.09-1.78-.13-2.68-.13z">
		</path>
		<path class="svg-whale1" d="M737.2 236.9c.13-1.71.08-3.42-.16-5.13-.24-1.7-.66-3.36-1.27-4.97a23.368 23.368 0 0 0-5.58-8.54H713.4c.31 2.16.31 4.32 0 6.48-.4 4.7-.9 9.4-1.51 14.08-.6 4.68-1.32 9.35-2.14 14-.82 4.64-1.75 9.27-2.79 13.88a302.187 302.187 0 0 1-7.46 27.31c-1.44 4.49-3 8.95-4.66 13.37-1.65 4.42-3.41 8.8-5.26 13.14-1.86 4.35-3.82 8.64-5.87 12.89-2.05 4.26-4.2 8.46-6.45 12.61-2.24 4.15-4.59 8.25-7.02 12.3-2.43 4.04-4.96 8.03-7.57 11.96a312.6 312.6 0 0 1-8.12 11.6c-2.79 3.81-5.67 7.55-8.64 11.22-2.96 3.68-6.01 7.28-9.14 10.81-3.13 3.54-6.34 7-9.63 10.38-3.29 3.4-6.66 6.7-10.1 9.93-3.44 3.24-6.95 6.39-10.54 9.46-3.58 3.07-7.23 6.06-10.96 8.96-3.72 2.91-7.51 5.73-11.36 8.46-3.85 2.73-7.76 5.37-11.74 7.92-3.97 2.55-8 5.01-12.08 7.38-4.09 2.37-8.22 4.64-12.41 6.81-4.19 2.18-8.43 4.26-12.71 6.24-4.29 1.98-8.62 3.87-12.99 5.65a297.5 297.5 0 0 1-13.23 5.05 319.99 319.99 0 0 1-13.44 4.44 309.826 309.826 0 0 1-27.44 7.01c-4.62.96-9.26 1.81-13.92 2.55-4.67.74-9.35 1.38-14.03 1.91-4.7.53-9.4.96-14.11 1.27a297.721 297.721 0 0 1-48.46-.67 299.202 299.202 0 0 1-33.95-5.2 299.253 299.253 0 0 1-33.13-9.04c-10.87-3.65-21.5-7.9-31.88-12.76a300.712 300.712 0 0 0 36.7 18.04c12.64 5.18 25.57 9.49 38.8 12.9 13.23 3.42 26.63 5.93 40.2 7.52a301.303 301.303 0 0 0 55.01 1.4c4.72-.31 9.42-.72 14.12-1.25 4.7-.52 9.38-1.15 14.05-1.89s9.32-1.58 13.95-2.54a310.06 310.06 0 0 0 40.94-11.39c4.45-1.58 8.87-3.26 13.25-5.04 4.38-1.78 8.71-3.67 13.01-5.64 4.29-1.98 8.53-4.06 12.73-6.24 4.19-2.17 8.34-4.44 12.43-6.8 4.09-2.37 8.13-4.82 12.11-7.37 3.98-2.56 7.9-5.19 11.76-7.93 3.86-2.72 7.65-5.54 11.38-8.44 3.73-2.91 7.39-5.9 10.99-8.97 3.59-3.07 7.11-6.22 10.56-9.45 3.45-3.24 6.82-6.55 10.11-9.94 3.3-3.39 6.51-6.85 9.65-10.38 3.14-3.54 6.19-7.15 9.16-10.82 2.98-3.68 5.86-7.42 8.66-11.23 2.8-3.8 5.51-7.67 8.13-11.61 2.62-3.93 5.16-7.92 7.6-11.97 2.43-4.05 4.78-8.15 7.03-12.31s4.4-8.36 6.46-12.62c2.06-4.25 4.02-8.55 5.88-12.9 1.86-4.34 3.62-8.73 5.28-13.15 1.66-4.43 3.21-8.89 4.67-13.39 1.45-4.5 2.8-9.03 4.05-13.58 1.25-4.56 2.39-9.15 3.42-13.76 1.04-4.61 1.97-9.24 2.79-13.9.83-4.65 1.54-9.32 2.15-14.01.61-4.69 1.11-9.39 1.51-14.1z">
		</path>
		<path class="svg-whale2" d="M371.87 476.88c-10.72.21-21.42-.19-32.1-1.21a281.495 281.495 0 0 1-31.76-4.85 283.769 283.769 0 0 1-30.99-8.45 282.234 282.234 0 0 1-29.83-11.93 280.8 280.8 0 0 0 34.31 17.04c11.82 4.9 23.92 8.98 36.3 12.23 12.38 3.25 24.93 5.64 37.63 7.19 12.71 1.54 25.46 2.21 38.26 2.01 4.43-.08 8.86-.27 13.28-.56 4.42-.29 8.83-.68 13.24-1.18 4.4-.49 8.79-1.09 13.17-1.78 4.38-.69 8.74-1.49 13.08-2.39 4.34-.89 8.66-1.89 12.95-2.98 4.29-1.09 8.56-2.28 12.8-3.57s8.45-2.68 12.63-4.16a291.377 291.377 0 0 0 36.54-15.89c3.93-2.04 7.82-4.18 11.65-6.4 3.84-2.22 7.62-4.53 11.35-6.93 3.73-2.39 7.4-4.87 11.01-7.44 3.62-2.56 7.17-5.2 10.67-7.93 3.49-2.73 6.92-5.53 10.28-8.42a287.098 287.098 0 0 0 19.36-18.21c3.09-3.18 6.1-6.43 9.03-9.75 2.94-3.32 5.8-6.71 8.58-10.16a285.853 285.853 0 0 0 15.7-21.44c2.46-3.69 4.82-7.44 7.1-11.24a292.67 292.67 0 0 0 12.61-23.39c1.92-4 3.75-8.03 5.48-12.11 1.74-4.08 3.38-8.19 4.93-12.35 1.55-4.15 3-8.34 4.35-12.56 1.35-4.22 2.61-8.46 3.77-12.74 1.16-4.28 2.22-8.58 3.18-12.91.96-4.32 1.82-8.67 2.58-13.04.77-4.36 1.43-8.74 1.99-13.14s1.02-8.8 1.37-13.22c.19-1.63.19-3.26 0-4.89H653.9c-.46 4.33-1.02 8.65-1.67 12.96-.65 4.31-1.4 8.6-2.25 12.88a292.883 292.883 0 0 1-6.23 25.37 290.56 290.56 0 0 1-3.97 12.46c-1.42 4.12-2.93 8.2-4.53 12.26-1.6 4.05-3.29 8.06-5.07 12.04-1.79 3.98-3.66 7.91-5.62 11.8-1.96 3.89-4.01 7.74-6.15 11.54-2.13 3.8-4.35 7.54-6.66 11.24-2.3 3.7-4.68 7.34-7.15 10.93-2.47 3.6-5.02 7.13-7.65 10.6a286.636 286.636 0 0 1-16.69 20.11c-2.93 3.23-5.93 6.38-9.01 9.47-3.07 3.09-6.22 6.11-9.43 9.05-3.21 2.95-6.48 5.82-9.83 8.62-3.34 2.79-6.74 5.52-10.2 8.16-3.47 2.65-6.99 5.21-10.57 7.69a288.898 288.898 0 0 1-22.12 13.92 289.404 289.404 0 0 1-35.3 16.99c-4.05 1.62-8.13 3.15-12.24 4.58a289.72 289.72 0 0 1-25.04 7.49c-4.23 1.05-8.48 2.02-12.75 2.88-4.27.87-8.56 1.64-12.86 2.31-4.31.67-8.63 1.24-12.96 1.72-4.33.47-8.67.85-13.02 1.13-4.35.28-8.7.47-13.06.55z">
		</path>
		<path class="svg-whale2" d="M354.42 445.94c4.03-.08 8.05-.24 12.07-.49a285.776 285.776 0 0 0 24.03-2.49c3.98-.58 7.96-1.25 11.91-1.99 3.96-.75 7.9-1.58 11.83-2.49a294.777 294.777 0 0 0 23.28-6.46c3.83-1.24 7.63-2.55 11.41-3.95 3.78-1.39 7.53-2.87 11.24-4.42a286.271 286.271 0 0 0 21.88-10.24c3.58-1.85 7.11-3.79 10.61-5.79 3.49-2.01 6.94-4.08 10.35-6.23a296.947 296.947 0 0 0 19.87-13.73c3.22-2.43 6.38-4.93 9.49-7.48a299.2 299.2 0 0 0 9.17-7.87c3-2.69 5.94-5.43 8.83-8.24 2.89-2.81 5.71-5.68 8.48-8.61 2.77-2.92 5.47-5.91 8.11-8.95 2.65-3.04 5.23-6.13 7.73-9.28 2.52-3.15 4.97-6.35 7.34-9.6 2.38-3.25 4.69-6.54 6.94-9.89 2.24-3.35 4.41-6.74 6.51-10.18 2.1-3.44 4.12-6.92 6.08-10.44 1.95-3.52 3.83-7.08 5.63-10.68 1.81-3.6 3.54-7.24 5.2-10.91 1.65-3.68 3.22-7.38 4.72-11.12 1.5-3.74 2.92-7.51 4.26-11.31 1.34-3.8 2.6-7.62 3.79-11.47 1.18-3.85 2.28-7.73 3.3-11.62 1.01-3.9 1.95-7.82 2.81-11.75h-24.46c-.99 3.78-2.05 7.54-3.18 11.28-1.14 3.74-2.35 7.45-3.64 11.14a267.68 267.68 0 0 1-4.08 10.98c-1.43 3.64-2.94 7.24-4.52 10.81a292.71 292.71 0 0 1-10.34 21.03 299.738 299.738 0 0 1-12.01 20.12c-2.14 3.26-4.34 6.49-6.61 9.68-2.27 3.18-4.6 6.31-6.99 9.4-2.4 3.08-4.86 6.12-7.37 9.11-2.52 2.98-5.1 5.92-7.73 8.8-2.64 2.89-5.34 5.72-8.09 8.49-2.75 2.77-5.55 5.49-8.41 8.15-2.86 2.66-5.78 5.26-8.74 7.8a293.32 293.32 0 0 1-9.06 7.44c-3.06 2.42-6.18 4.78-9.34 7.07-3.17 2.3-6.37 4.53-9.63 6.69-3.25 2.16-6.54 4.26-9.88 6.29-3.34 2.03-6.72 3.99-10.14 5.88-3.42 1.89-6.87 3.72-10.36 5.47-3.49 1.75-7.02 3.43-10.58 5.04-3.56 1.61-7.15 3.15-10.77 4.62-3.62 1.46-7.27 2.85-10.95 4.17-3.68 1.31-7.38 2.55-11.11 3.72-3.73 1.17-7.48 2.26-11.25 3.27-3.77 1.01-7.57 1.95-11.38 2.81-3.81.86-7.64 1.65-11.48 2.35-3.84.71-7.7 1.33-11.56 1.88-3.87.55-7.75 1.02-11.64 1.42-3.89.39-7.78.7-11.68.94-3.9.23-7.8.38-11.71.46-10.72.21-21.42-.19-32.1-1.2a283.811 283.811 0 0 1-31.76-4.86 281.58 281.58 0 0 1-30.99-8.46c-10.17-3.4-20.12-7.38-29.83-11.92A283.11 283.11 0 0 0 242.27 425c11.83 4.84 23.94 8.86 36.31 12.06 12.38 3.19 24.92 5.53 37.62 7.02 12.69 1.49 25.44 2.11 38.22 1.86z">
		</path>
		<path class="svg-whale3" d="M263.8 21.55h-42.01c-1.18 0-2.36.03-3.53.09-1.18.06-2.35.14-3.53.25-1.17.12-2.34.27-3.5.44a68.683 68.683 0 0 0-6.93 1.38c-1.14.28-2.28.59-3.4.94-1.13.34-2.25.71-3.36 1.11-1.11.39-2.2.82-3.29 1.27-1.09.45-2.17.93-3.23 1.43-1.07.5-2.12 1.03-3.16 1.59-1.04.55-2.06 1.13-3.07 1.74-1.01.6-2 1.23-2.99 1.89-.98.65-1.94 1.33-2.88 2.03-.95.7-1.88 1.43-2.79 2.18-.91.74-1.8 1.51-2.67 2.3-.87.79-1.73 1.61-2.56 2.44-.83.83-1.65 1.68-2.44 2.56-.79.87-1.56 1.76-2.3 2.67-.75.91-1.48 1.84-2.18 2.78-.7.95-1.37 1.91-2.03 2.9a71.219 71.219 0 0 0-3.63 6.05c-.56 1.04-1.09 2.09-1.59 3.16a71.89 71.89 0 0 0-2.7 6.52c-.4 1.11-.77 2.23-1.11 3.36-.34 1.12-.65 2.26-.94 3.4-.29 1.14-.55 2.29-.78 3.45-.23 1.15-.43 2.31-.6 3.48-.17 1.16-.32 2.33-.43 3.5-.12 1.18-.21 2.35-.26 3.52-.06 1.18-.09 2.36-.09 3.54 0-1.18-.03-2.36-.09-3.53-.05-1.17-.14-2.35-.25-3.52a81.57 81.57 0 0 0-.44-3.5 68.35 68.35 0 0 0-.6-3.48c-.23-1.15-.49-2.3-.77-3.44-.29-1.14-.6-2.27-.94-3.4a77.12 77.12 0 0 0-1.1-3.35c-.4-1.11-.83-2.21-1.27-3.29a71.89 71.89 0 0 0-1.43-3.23c-.5-1.07-1.04-2.12-1.59-3.15-.55-1.04-1.13-2.06-1.73-3.07a83.69 83.69 0 0 0-1.89-2.99c-.65-.97-1.33-1.94-2.03-2.88-.7-.95-1.42-1.87-2.17-2.78-.74-.91-1.51-1.8-2.3-2.68-.79-.87-1.6-1.72-2.43-2.55a58.99 58.99 0 0 0-2.56-2.44c-.87-.79-1.75-1.56-2.66-2.31-.91-.75-1.84-1.47-2.78-2.17-.95-.7-1.91-1.38-2.88-2.04-.98-.65-1.98-1.28-2.98-1.89-1.01-.6-2.04-1.19-3.07-1.74a77.37 77.37 0 0 0-3.15-1.59c-1.06-.5-2.14-.98-3.23-1.43-1.08-.46-2.18-.88-3.28-1.28-1.11-.4-2.23-.77-3.35-1.11a81.71 81.71 0 0 0-3.4-.95c-1.14-.28-2.29-.54-3.44-.78-1.15-.23-2.31-.43-3.48-.6-1.16-.18-2.33-.33-3.5-.44a68.579 68.579 0 0 0-7.05-.36H35.84c-.97 0-1.93.09-2.88.28-.94.18-1.87.46-2.76.82a15.052 15.052 0 0 0-4.81 3.14c-.69.68-1.32 1.41-1.87 2.21-.55.79-1.02 1.63-1.41 2.52-.38.89-.68 1.8-.9 2.74-.2.95-.32 1.9-.35 2.87v33c0 1.14.03 2.27.09 3.4.05 1.13.14 2.27.25 3.4.11 1.12.25 2.25.41 3.37.17 1.12.36 2.24.59 3.35.21 1.12.46 2.22.74 3.32.27 1.1.58 2.2.91 3.28.33 1.09.68 2.16 1.06 3.23.39 1.07.79 2.13 1.23 3.18.43 1.04.89 2.08 1.38 3.11.48 1.02.99 2.03 1.53 3.03.53 1 1.09 1.99 1.67 2.97.59.97 1.19 1.93 1.82 2.87.64.94 1.29 1.87 1.96 2.78.68.91 1.38 1.81 2.1 2.69.72.87 1.46 1.73 2.22 2.57.76.84 1.54 1.66 2.34 2.46.8.81 1.63 1.59 2.47 2.35.84.76 1.7 1.5 2.57 2.22.88.72 1.78 1.42 2.69 2.09.91.68 1.84 1.33 2.78 1.97.94.62 1.9 1.23 2.87 1.82.98.58 1.96 1.14 2.96 1.67 1 .54 2.02 1.05 3.04 1.53 1.03.49 2.07.95 3.11 1.38 1.05.44 2.11.84 3.18 1.22 1.06.39 2.14.74 3.23 1.07 1.08.33 2.17.63 3.28.91 1.1.27 2.2.52 3.32.74 1.11.23 2.23.42 3.35.59 1.12.16 2.24.3 3.38.41 1.13.11 2.25.2 3.39.25 1.13.06 2.26.09 3.4.09h119.28c1.14 0 2.27-.03 3.4-.09 1.14-.05 2.27-.14 3.4-.25 1.13-.11 2.25-.25 3.37-.41 1.12-.17 2.24-.36 3.35-.59 1.12-.22 2.22-.47 3.32-.74 1.11-.28 2.2-.58 3.29-.91 1.08-.33 2.16-.68 3.23-1.07 1.06-.38 2.12-.78 3.17-1.22 1.05-.44 2.08-.89 3.11-1.38 1.03-.48 2.04-.99 3.04-1.53 1-.53 1.99-1.09 2.96-1.67.97-.59 1.93-1.2 2.87-1.82.95-.64 1.87-1.29 2.78-1.97.91-.67 1.81-1.37 2.69-2.09.87-.72 1.73-1.46 2.57-2.22.84-.76 1.67-1.54 2.47-2.35.8-.8 1.58-1.62 2.34-2.46.77-.84 1.5-1.7 2.23-2.57.72-.88 1.41-1.78 2.09-2.69.67-.91 1.33-1.84 1.96-2.78.63-.94 1.24-1.9 1.82-2.87a72.5 72.5 0 0 0 1.67-2.97c.54-1 1.05-2.01 1.54-3.03.48-1.03.94-2.07 1.37-3.11.44-1.05.84-2.11 1.23-3.18.38-1.07.73-2.14 1.06-3.23.34-1.08.64-2.18.91-3.28.28-1.1.53-2.2.75-3.32.22-1.11.41-2.23.58-3.35.17-1.12.31-2.25.42-3.37.11-1.13.19-2.27.25-3.4.05-1.13.08-2.26.08-3.4v-33c-.03-.97-.14-1.92-.35-2.87-.22-.94-.52-1.85-.9-2.74-.39-.89-.86-1.73-1.41-2.52-.55-.8-1.17-1.53-1.87-2.21a15.052 15.052 0 0 0-4.8-3.14c-.9-.36-1.82-.64-2.77-.82-.95-.19-1.91-.28-2.88-.28z">
		</path>
		<path class="svg-whale4" d="M209.59 106.64H90.31c-1.13 0-2.27-.03-3.4-.08-1.14-.05-2.27-.13-3.4-.24-1.13-.11-2.26-.25-3.38-.41-1.13-.17-2.25-.36-3.36-.58-1.11-.22-2.22-.47-3.32-.74-1.11-.28-2.2-.58-3.29-.91a60.92 60.92 0 0 1-3.23-1.06 67.346 67.346 0 0 1-6.3-2.6c-1.03-.48-2.04-.99-3.05-1.52-1-.54-1.99-1.1-2.96-1.68A60.81 60.81 0 0 1 51.74 95a60.65 60.65 0 0 1-2.79-1.96 68.466 68.466 0 0 1-5.27-4.31c-.84-.76-1.66-1.55-2.47-2.35-.8-.8-1.58-1.62-2.35-2.46-.76-.84-1.5-1.7-2.23-2.58-.72-.88-1.42-1.77-2.09-2.68-.68-.91-1.34-1.84-1.97-2.79-.63-.94-1.24-1.9-1.82-2.87-.59-.98-1.15-1.96-1.68-2.96-.54-1.01-1.05-2.02-1.53-3.05-.49-1.03-.95-2.06-1.39-3.11-.44-1.05-.84-2.11-1.22-3.18-.39-1.07-.75-2.15-1.07-3.24-.34-1.08-.64-2.17-.91-3.28a63.6 63.6 0 0 1-.75-3.32c-.22-1.11-.42-2.23-.59-3.36-.16-1.12-.3-2.25-.41-3.37-.11-1.14-.2-2.27-.25-3.4a64.68 64.68 0 0 1-.09-3.41v32.34c0 1.13.03 2.27.09 3.4.05 1.14.14 2.26.25 3.39.11 1.13.25 2.26.41 3.38.17 1.12.36 2.24.59 3.35.21 1.12.46 2.22.74 3.32.27 1.1.58 2.2.91 3.28.33 1.09.68 2.17 1.06 3.23.39 1.07.79 2.13 1.23 3.18.43 1.04.89 2.08 1.38 3.11a61.7 61.7 0 0 0 1.53 3.04c.53 1 1.09 1.98 1.67 2.96.59.97 1.19 1.93 1.82 2.87.64.94 1.29 1.87 1.96 2.78.68.91 1.38 1.81 2.1 2.68.72.88 1.46 1.74 2.22 2.58.76.84 1.54 1.66 2.34 2.47.8.8 1.63 1.58 2.47 2.34.84.76 1.7 1.5 2.57 2.22.88.72 1.78 1.42 2.69 2.1.91.67 1.84 1.32 2.78 1.96.94.63 1.9 1.23 2.87 1.81.98.59 1.96 1.15 2.96 1.68 1 .54 2.02 1.05 3.04 1.53 1.03.49 2.07.95 3.11 1.38 1.05.43 2.11.84 3.18 1.23 1.06.38 2.14.73 3.23 1.06 1.08.33 2.17.64 3.28.91 1.1.28 2.2.52 3.32.74 1.11.23 2.23.42 3.35.59 1.12.16 2.24.3 3.38.41 1.13.11 2.25.2 3.39.25 1.13.06 2.26.09 3.4.09h119.28c1.14 0 2.27-.03 3.4-.09 1.14-.05 2.27-.14 3.4-.25 1.13-.11 2.25-.25 3.37-.41 1.12-.17 2.24-.36 3.35-.59 1.12-.22 2.22-.46 3.32-.74 1.11-.27 2.2-.58 3.29-.91 1.08-.33 2.16-.68 3.23-1.06 1.06-.39 2.12-.8 3.17-1.23 1.05-.43 2.08-.89 3.11-1.38 1.03-.48 2.04-.99 3.04-1.53 1-.53 1.99-1.09 2.96-1.68.97-.58 1.93-1.18 2.87-1.81.95-.64 1.87-1.29 2.78-1.96.91-.68 1.81-1.38 2.69-2.1.87-.72 1.73-1.46 2.57-2.22.84-.76 1.67-1.54 2.47-2.34.8-.81 1.58-1.63 2.34-2.47.77-.84 1.5-1.7 2.23-2.58.72-.87 1.41-1.77 2.09-2.68.67-.91 1.33-1.84 1.96-2.78a66.054 66.054 0 0 0 3.49-5.83c.54-1 1.05-2.02 1.54-3.04.48-1.03.94-2.07 1.37-3.11.44-1.05.84-2.11 1.23-3.18.38-1.06.73-2.14 1.06-3.23.34-1.08.64-2.18.91-3.28.28-1.1.53-2.2.75-3.32.22-1.11.41-2.23.58-3.35.17-1.12.31-2.25.42-3.38.11-1.13.19-2.25.25-3.39.05-1.13.08-2.27.08-3.4V37.32c0 1.13-.03 2.27-.08 3.4a77.25 77.25 0 0 1-.25 3.39 64.58 64.58 0 0 1-.42 3.37c-.17 1.12-.36 2.23-.58 3.35a75.23 75.23 0 0 1-.74 3.31 72.164 72.164 0 0 1-1.97 6.5c-.38 1.07-.79 2.13-1.22 3.18a77.56 77.56 0 0 1-1.38 3.11c-.48 1.02-.99 2.03-1.53 3.03-.53 1-1.09 1.99-1.67 2.96-.58.97-1.19 1.93-1.81 2.87-.63.94-1.29 1.87-1.96 2.78-.67.91-1.37 1.81-2.09 2.68-.72.88-1.45 1.73-2.22 2.57-.75.84-1.54 1.67-2.34 2.47-.8.8-1.62 1.58-2.45 2.34-.84.76-1.7 1.51-2.57 2.23-.88.72-1.77 1.41-2.68 2.09-.91.68-1.84 1.33-2.78 1.96-.94.63-1.9 1.24-2.87 1.82-.97.59-1.95 1.15-2.95 1.68-1 .54-2.01 1.05-3.04 1.53-1.02.49-2.05.95-3.1 1.38-1.04.44-2.1.85-3.17 1.23a71.403 71.403 0 0 1-6.5 1.99c-1.09.27-2.2.52-3.31.75-1.11.22-2.23.41-3.35.58-1.12.17-2.24.31-3.37.42-1.13.12-2.25.2-3.39.26-1.13.06-2.26.09-3.4.09z">
		</path>
		<path class="svg-whale5" d="M218.08 21.68c-2.28.12-4.53.34-6.78.68-2.25.33-4.48.77-6.69 1.31s-4.39 1.19-6.54 1.94c-2.14.75-4.25 1.6-6.32 2.55-2.06.96-4.08 2-6.04 3.14a74.627 74.627 0 0 0-5.73 3.7 75.256 75.256 0 0 0-5.35 4.23 72.847 72.847 0 0 0-4.92 4.71 72.974 72.974 0 0 0-4.46 5.16c-1.4 1.79-2.71 3.64-3.94 5.56a70.444 70.444 0 0 0-3.4 5.9 73.89 73.89 0 0 0-2.83 6.21 71.93 71.93 0 0 0-2.22 6.44 68.63 68.63 0 0 0-1.61 6.62c-.43 2.23-.75 4.48-.97 6.75-.22 2.26-.33 4.53-.33 6.8a68.914 68.914 0 0 0-.36-7.04c-.11-1.17-.26-2.34-.43-3.5-.18-1.16-.38-2.32-.61-3.48-.23-1.15-.49-2.3-.78-3.44a68.7 68.7 0 0 0-.95-3.4 65.3 65.3 0 0 0-1.11-3.34c-.4-1.11-.82-2.21-1.27-3.3-.46-1.08-.93-2.16-1.44-3.22-.5-1.06-1.03-2.11-1.59-3.15-.55-1.04-1.13-2.06-1.74-3.06-.61-1.02-1.24-2.01-1.89-2.99-.65-.97-1.33-1.93-2.04-2.88-.7-.94-1.42-1.87-2.17-2.78a73.653 73.653 0 0 0-4.74-5.22 73.448 73.448 0 0 0-5.23-4.73c-.91-.75-1.84-1.47-2.79-2.17-.94-.7-1.9-1.38-2.88-2.03a78.15 78.15 0 0 0-2.98-1.88 71.745 71.745 0 0 0-6.23-3.33c-1.06-.5-2.14-.98-3.22-1.42-1.09-.45-2.19-.88-3.3-1.27-1.1-.4-2.22-.77-3.35-1.11-1.12-.34-2.26-.65-3.4-.94-1.14-.29-2.29-.54-3.44-.77a67.97 67.97 0 0 0-3.47-.6c-1.17-.18-2.34-.32-3.51-.44-1.17-.11-2.34-.19-3.52-.25-1.17-.06-2.35-.09-3.53-.09H35.84c-.97 0-1.93.09-2.88.28-.94.18-1.87.46-2.76.82a15.052 15.052 0 0 0-4.81 3.14c-.69.68-1.32 1.41-1.87 2.21-.55.79-1.02 1.63-1.41 2.52-.38.89-.68 1.8-.9 2.74-.2.95-.32 1.9-.35 2.87v29.16c0-.99.1-1.96.29-2.93.19-.96.48-1.9.85-2.81.38-.9.84-1.76 1.39-2.59.54-.81 1.16-1.57 1.86-2.26.7-.7 1.45-1.32 2.27-1.87.82-.54 1.68-1 2.59-1.38.91-.38 1.84-.66 2.81-.85.96-.19 1.94-.29 2.92-.29h42.14c1.7 0 3.39.06 5.08.18s3.37.3 5.05.53c1.68.24 3.35.54 5 .9 1.66.35 3.3.77 4.93 1.24 1.62.47 3.23 1 4.82 1.58 1.59.59 3.16 1.23 4.7 1.92 1.55.7 3.07 1.45 4.56 2.25a73.74 73.74 0 0 1 8.58 5.44c1.36 1 2.69 2.06 3.98 3.15 1.28 1.1 2.53 2.25 3.74 3.43 1.21 1.19 2.38 2.42 3.5 3.69s2.19 2.58 3.22 3.92c1.04 1.34 2.02 2.73 2.95 4.14.93 1.41 1.81 2.86 2.64 4.34.83 1.47 1.61 2.98 2.33 4.51.33.6.73 1.13 1.19 1.62.48.49 1 .9 1.59 1.25.58.35 1.2.61 1.85.79a7.478 7.478 0 0 0 3.99 0c.66-.18 1.28-.44 1.86-.79a7.632 7.632 0 0 0 2.78-2.87c1.22-2.57 2.59-5.05 4.11-7.46 1.52-2.4 3.18-4.7 4.98-6.91 1.79-2.2 3.71-4.3 5.75-6.27 2.04-1.98 4.2-3.83 6.46-5.55a69.82 69.82 0 0 1 7.07-4.75 69.35 69.35 0 0 1 7.58-3.88 73.48 73.48 0 0 1 7.98-2.96c2.73-.82 5.48-1.48 8.29-1.98.63-.13 1.25-.32 1.85-.55a11.253 11.253 0 0 0 4.65-3.4c.41-.51.77-1.04 1.09-1.61.31-.57.57-1.15.79-1.76.21-.62.37-1.24.48-1.88.1-.64.15-1.29.15-1.94l.53-18.95zM263.8 21.55h-39.76v17.23c0 .76.08 1.51.22 2.25a11.708 11.708 0 0 0 1.72 4.15c.43.64.9 1.22 1.44 1.75.53.54 1.12 1.02 1.75 1.44a11.708 11.708 0 0 0 4.15 1.72c.75.14 1.5.22 2.25.22h28.63c.98 0 1.96.1 2.92.29.97.19 1.9.47 2.81.85.91.37 1.77.84 2.59 1.38.82.55 1.57 1.17 2.27 1.87.69.69 1.32 1.45 1.86 2.26.55.83 1.01 1.69 1.39 2.59.37.91.66 1.85.85 2.81.19.97.29 1.94.29 2.93V36.13c-.03-.99-.15-1.96-.37-2.92s-.52-1.89-.92-2.78a15.3 15.3 0 0 0-1.46-2.55c-.56-.81-1.2-1.55-1.92-2.23a15.64 15.64 0 0 0-2.32-1.8c-.83-.53-1.71-.96-2.62-1.31-.93-.36-1.87-.61-2.84-.78-.97-.17-1.94-.24-2.93-.21z">
		</path>
		<path class="svg-whale3" d="M118.54 232.15c0 4.24 0 8.48 1.06 12.59 0 2.12 0 4.24.8 6.49.79 2.26 1.06 7.82 1.59 11.8.53 3.98.79 4.24 1.19 6.36.4 2.13 1.46 7.82 2.25 11.67l.93 4.24c.64 2.74 1.33 5.46 2.08 8.17.76 2.71 1.56 5.41 2.43 8.08.86 2.68 1.78 5.34 2.76 7.98.98 2.64 2.01 5.26 3.09 7.85 1.09 2.59 2.23 5.16 3.42 7.71a204.232 204.232 0 0 0 12.17 22.18c1.51 2.37 3.07 4.72 4.67 7.03 1.6 2.31 3.26 4.58 4.96 6.83 1.7 2.23 3.45 4.44 5.24 6.6 1.79 2.17 3.63 4.3 5.51 6.39 1.89 2.09 3.81 4.14 5.78 6.15 1.97 2.01 3.98 3.97 6.03 5.9 2.06 1.92 4.15 3.8 6.28 5.64 2.13 1.83 4.3 3.62 6.51 5.37 2.2 1.74 4.44 3.44 6.73 5.09 2.27 1.65 4.59 3.25 6.93 4.8 2.35 1.56 4.72 3.06 7.13 4.51 2.41 1.46 4.85 2.86 7.32 4.21 2.47 1.35 4.96 2.64 7.48 3.89 2.53 1.24 5.07 2.43 7.65 3.57 2.57 1.14 5.17 2.22 7.78 3.25 2.62 1.03 5.26 2 7.92 2.92 2.66.92 5.34 1.78 8.03 2.58 2.7.8 5.41 1.55 8.13 2.24 2.74.69 5.47 1.33 8.23 1.9 2.75.57 5.52 1.09 8.29 1.55a195.709 195.709 0 0 0 16.75 2.04c2.8.23 5.61.4 8.42.5 2.81.1 5.62.15 8.44.14h1.59c5.84-.11 11.66-.4 17.48-.85 5.82-.45 11.63-1.08 17.41-1.88 5.79-.8 11.54-1.76 17.27-2.9s11.41-2.45 17.06-3.92c5.65-1.47 11.25-3.11 16.81-4.92 5.55-1.8 11.04-3.77 16.48-5.9 5.43-2.13 10.8-4.42 16.11-6.86 5.3-2.45 10.52-5.05 15.67-7.81 5.14-2.76 10.21-5.66 15.18-8.71 4.98-3.06 9.86-6.26 14.65-9.6 4.78-3.34 9.47-6.83 14.05-10.45 4.58-3.62 9.05-7.37 13.41-11.25 4.35-3.89 8.6-7.9 12.72-12.03 4.12-4.14 8.11-8.39 11.98-12.76 3.88-4.37 7.61-8.85 11.22-13.45 3.6-4.59 7.07-9.28 10.4-14.08 1.2-1.78 2.51-3.48 3.92-5.1 1.41-1.62 2.91-3.15 4.5-4.58a52.303 52.303 0 0 1 10.5-7.38 52.18 52.18 0 0 1 5.84-2.68c2-.78 4.04-1.43 6.12-1.96s4.18-.93 6.31-1.2c2.13-.27 4.27-.42 6.42-.43h176.4c1.59-6.98 3.01-14.05 4.25-21.21 1.32-8.21 2.51-16.43 3.18-24.78.09-1.3.08-2.61-.03-3.91-.1-1.3-.3-2.59-.59-3.86s-.68-2.52-1.16-3.73c-.48-1.22-1.04-2.39-1.69-3.52-.65-1.14-1.39-2.21-2.19-3.24a27.83 27.83 0 0 0-2.65-2.88c-.95-.89-1.96-1.71-3.04-2.45-1.07-.75-2.19-1.41-3.37-1.99-1.16-.48-2.35-.88-3.57-1.19h-1.6c-1.85-.2-3.71-.2-5.56 0H282.89c-8.42-.18-16.72-1.24-24.92-3.16a120.08 120.08 0 0 1-23.72-8.24c-1.99-.93-3.71-2.25-5.57-3.31-1.86-1.06-5.83-3.18-8.61-5.04-2.79-1.86-5.17-4.11-7.69-6.23-2.52-2.12-3.45-2.65-5.04-4.11-1.59-1.46-3.45-3.71-5.04-5.56-1.59-1.86-4.1-4.24-5.96-6.63-1.86-2.39-3.45-5.17-5.17-7.82-1.72-2.65-2.91-3.98-4.11-6.1-1.19-2.12-2.91-6.23-4.24-9.41-1.32-3.18-1.98-3.97-2.78-6.09l-1.59-4.38-9.33-4.22c-.61.16-27.12-1.64-27.74-1.8l-23.3.32-.47 91.85c.53 1.33.8 3.18.93 5.17z">
		</path>
		<path class="svg-whale4" d="M117.61 208.43v24.25c0 4.24 0 8.35 1.07 12.59 0 2.12 0 4.24.79 6.5.8 2.25 1.06 7.82 1.59 11.79.53 3.98.8 4.24 1.19 6.36.4 2.12 1.46 7.82 2.26 11.67l.92 4.24c.64 2.74 1.34 5.46 2.09 8.17.75 2.71 1.55 5.41 2.42 8.09.86 2.67 1.78 5.33 2.76 7.97.98 2.64 2.01 5.25 3.09 7.85 1.09 2.59 2.23 5.16 3.42 7.71 1.2 2.55 2.45 5.07 3.75 7.56 1.3 2.5 2.65 4.96 4.06 7.4 1.4 2.44 2.86 4.84 4.37 7.22 1.5 2.38 3.06 4.72 4.66 7.03a208.033 208.033 0 0 0 10.2 13.44c1.79 2.16 3.63 4.29 5.52 6.38 1.88 2.09 3.8 4.14 5.77 6.15 1.98 2.01 3.98 3.97 6.04 5.9 2.05 1.92 4.14 3.8 6.27 5.64 2.13 1.83 4.3 3.62 6.51 5.37a208.37 208.37 0 0 0 13.66 9.9c2.35 1.55 4.73 3.05 7.14 4.5 2.4 1.46 4.84 2.85 7.31 4.21 2.47 1.35 4.96 2.64 7.49 3.89 2.52 1.24 5.07 2.43 7.64 3.57 2.57 1.14 5.17 2.22 7.79 3.25a196.674 196.674 0 0 0 15.95 5.5c2.69.81 5.4 1.55 8.13 2.24 2.73.69 5.47 1.33 8.22 1.9 2.76.58 5.52 1.09 8.29 1.55 2.78.46 5.56.86 8.36 1.2 2.79.34 5.59.62 8.39.85 2.81.22 5.61.38 8.42.49 2.81.1 5.63.15 8.44.13h1.59c5.84-.1 11.67-.39 17.49-.84 5.82-.46 11.62-1.08 17.4-1.88 5.79-.79 11.54-1.76 17.27-2.9s11.41-2.45 17.07-3.92a290.6 290.6 0 0 0 16.8-4.92c5.55-1.8 11.04-3.77 16.48-5.9 5.44-2.13 10.81-4.42 16.11-6.87 5.3-2.44 10.52-5.04 15.67-7.8 5.15-2.75 10.21-5.66 15.18-8.72 4.98-3.05 9.86-6.25 14.65-9.59 4.78-3.35 9.47-6.83 14.05-10.45 4.58-3.62 9.05-7.37 13.41-11.25 4.36-3.89 8.6-7.9 12.72-12.03 4.12-4.14 8.12-8.39 11.99-12.76 3.87-4.37 7.61-8.86 11.21-13.45 3.61-4.59 7.07-9.29 10.4-14.08a54.856 54.856 0 0 1 20.81-17.89l-72.1 32.07c-2.57 1.16-5.16 2.27-7.77 3.34-2.61 1.06-5.24 2.08-7.89 3.04a221.771 221.771 0 0 1-16.09 5.19c-2.72.76-5.45 1.47-8.19 2.13-2.74.66-5.49 1.27-8.26 1.82a213.2 213.2 0 0 1-8.32 1.51c-2.78.45-5.57.85-8.37 1.19a215.825 215.825 0 0 1-16.85 1.43c-2.82.14-5.64.22-8.46.24-2.82.03-5.63 0-8.45-.08-2.82-.08-5.64-.21-8.45-.4-2.81-.19-5.62-.42-8.42-.72-2.81-.29-5.61-.64-8.4-1.04s-5.57-.84-8.35-1.35c-2.77-.5-5.54-1.06-8.29-1.67-2.75-.61-5.49-1.27-8.22-1.98-2.73-.71-5.44-1.47-8.14-2.29-2.7-.81-5.39-1.68-8.05-2.59-2.67-.92-5.32-1.88-7.94-2.9-2.64-1.01-5.25-2.08-7.84-3.19-2.59-1.12-5.15-2.28-7.7-3.49-2.55-1.21-5.07-2.47-7.57-3.78-2.5-1.3-4.97-2.66-7.41-4.06-2.45-1.4-4.87-2.85-7.27-4.33-2.39-1.5-4.75-3.03-7.09-4.61-2.33-1.58-4.64-3.21-6.91-4.88-2.27-1.67-4.51-3.38-6.72-5.13s-4.39-3.54-6.53-5.38a223.922 223.922 0 0 1-12.41-11.48 65.974 65.974 0 0 0-10.04-8.22 66.075 66.075 0 0 0-11.44-6.1 66.278 66.278 0 0 0-25.31-5.03c-1.74 0-3.48-.08-5.22-.21-1.74-.14-3.47-.35-5.19-.63-1.72-.27-3.43-.62-5.13-1.03-1.69-.41-3.37-.89-5.03-1.43-1.65-.55-3.28-1.15-4.89-1.83-1.61-.67-3.2-1.4-4.75-2.2-1.55-.8-3.07-1.66-4.55-2.57-1.48-.92-2.93-1.89-4.33-2.93a67.165 67.165 0 0 1-4.1-3.25 67.77 67.77 0 0 1-3.82-3.57c-1.22-1.24-2.4-2.53-3.52-3.86-1.13-1.33-2.2-2.71-3.22-4.12a70.06 70.06 0 0 1-2.88-4.37c-.9-1.49-1.74-3.02-2.52-4.58-.78-1.55-1.51-3.14-2.16-4.76-.65-1.61-1.25-3.26-1.78-4.92l-24.51-77.8-7.29 14.45-.14 55.14z">
		</path>
		<path class="svg-whale5" d="M462.61 217.45H282.89c-8.42-.18-16.72-1.24-24.92-3.15-8.19-1.92-16.1-4.67-23.72-8.25-1.99-.92-3.71-2.25-5.57-3.31-1.86-1.06-5.83-3.18-8.61-5.04-2.79-1.85-5.18-4.11-7.69-6.23-2.52-2.12-3.45-2.65-5.04-4.11-1.59-1.45-3.45-3.71-5.04-5.56-1.59-1.86-4.1-4.24-5.96-6.63-1.86-2.38-3.45-5.17-5.17-7.82-1.72-2.65-2.91-3.97-4.11-6.1-1.19-2.12-2.91-6.22-4.24-9.41-1.32-3.18-1.98-3.97-2.78-6.09l-1.59-4.37-25.05 20.54 1.72 4.77c.8 2.25 2.12 4.37 3.05 6.63.93 2.25 2.92 7.02 4.64 10.2 1.72 3.18 2.92 4.51 4.37 6.76 1.46 2.26 3.58 5.83 5.57 8.48 1.99 2.65 4.38 4.78 6.49 7.29 2.12 2.52 3.58 4.24 5.57 6.1 1.99 1.85 3.71 3.05 5.57 4.51 1.85 1.45 5.43 4.77 8.35 6.89 2.91 2.12 6.23 3.71 9.41 5.56 3.18 1.86 3.97 2.52 6.09 3.58 8.31 3.88 16.93 6.86 25.87 8.94 8.93 2.07 17.98 3.2 27.15 3.39h177.73c.57 0 1.15-.03 1.72-.09a18.493 18.493 0 0 0 3.36-.66c.55-.17 1.08-.36 1.62-.58a18.31 18.31 0 0 0 3.02-1.62c.48-.32.94-.66 1.38-1.02.44-.37.87-.75 1.27-1.16.41-.4.79-.82 1.15-1.27.37-.44.71-.9 1.03-1.38.31-.47.61-.96.88-1.47.27-.5.52-1.02.73-1.55.22-.53.41-1.07.58-1.62.17-.55.31-1.1.42-1.66.11-.56.2-1.13.25-1.7.06-.57.09-1.14.09-1.72l.13-10.07z">
		</path>
		<path class="svg-whale6" d="M220.42 198.03c-4.5-3.15-8.74-6.63-12.72-10.43a108.88 108.88 0 0 1-11-12.21c-3.37-4.35-6.38-8.93-9.06-13.73-2.67-4.8-4.96-9.78-6.88-14.93l-1.72-4.63h-19.57c1.5 3.2 3.16 6.33 4.97 9.37 1.8 3.04 3.76 5.98 5.85 8.84 2.1 2.85 4.33 5.59 6.69 8.23 2.36 2.63 4.84 5.15 7.45 7.53 2.61 2.4 5.32 4.66 8.15 6.78a108.348 108.348 0 0 0 18.09 11.03c3.18 1.55 6.43 2.93 9.75 4.15z">
		</path>
		<path class="svg-whale5" d="M774.87 217.97c-1.17-.48-2.36-.88-3.58-1.19h-1.59c-1.86-.2-3.72-.2-5.57 0h-283.9v10.33c.09 1.11.28 2.19.57 3.26.29 1.07.67 2.1 1.16 3.09.48 1 1.06 1.94 1.72 2.82.66.89 1.41 1.7 2.22 2.45a17.747 17.747 0 0 0 5.61 3.43c1.04.39 2.1.68 3.19.87 1.09.19 2.19.27 3.3.26h291.58c.07-1.3.05-2.59-.06-3.88s-.32-2.57-.62-3.82c-.3-1.26-.69-2.49-1.17-3.7-.48-1.2-1.05-2.36-1.69-3.48-.66-1.12-1.38-2.18-2.19-3.2a27.22 27.22 0 0 0-2.63-2.84 26.194 26.194 0 0 0-6.35-4.4z">
		</path>
		<path class="svg-whale4" d="M46.57 298.29c-.74-.01-1.48.03-2.21.1-.74.08-1.47.2-2.2.36-.72.16-1.44.36-2.14.59-.7.24-1.39.52-2.06.83-.67.32-1.33.67-1.96 1.06a19.175 19.175 0 0 0-3.5 2.72c-.54.51-1.04 1.06-1.51 1.63-.47.57-.91 1.17-1.31 1.79-.41.62-.78 1.26-1.11 1.93-.34.66-.63 1.34-.89 2.04a19.28 19.28 0 0 0-1.07 4.3c-.1.74-.16 1.47-.18 2.22-.02.74.01 1.48.08 2.22.06.74.17 1.47.32 2.2.36 1.75.76 3.5 1.2 5.24.44 1.73.92 3.46 1.44 5.18.52 1.71 1.08 3.41 1.67 5.1.6 1.69 1.24 3.37 1.91 5.03.68 1.66 1.4 3.3 2.15 4.93s1.53 3.24 2.36 4.83c.82 1.59 1.69 3.16 2.58 4.71.9 1.56 1.83 3.08 2.8 4.59.97 1.51 1.97 3 3.01 4.46 1.03 1.46 2.1 2.9 3.2 4.31 1.1 1.42 2.24 2.8 3.4 4.17 1.17 1.36 2.37 2.69 3.59 4 1.23 1.31 2.49 2.58 3.77 3.83 1.29 1.25 2.61 2.47 3.95 3.66 1.34 1.18 2.71 2.34 4.1 3.47 1.4 1.12 2.82 2.21 4.27 3.27a111.799 111.799 0 0 0 8.95 5.95c1.53.92 3.09 1.81 4.67 2.66 1.58.85 3.17 1.67 4.79 2.44 1.61.78 3.25 1.52 4.9 2.23 1.64.7 3.31 1.36 4.99 1.99 1.68.62 3.37 1.21 5.08 1.76s3.42 1.05 5.15 1.52a116.888 116.888 0 0 0 10.5 2.34c1.76.3 3.53.57 5.31.8 1.78.22 3.56.41 5.35.55 1.79.15 3.58.25 5.37.31 1.79.07 3.58.09 5.37.07a120.842 120.842 0 0 0 10.73-.62c1.79-.18 3.56-.41 5.34-.68 1.77-.26 3.54-.57 5.29-.92 1.76-.35 3.51-.74 5.25-1.16 1.74-.43 3.47-.9 5.19-1.41 1.72-.51 3.43-1.05 5.12-1.64 1.69-.59 3.37-1.21 5.04-1.87 1.66-.67 3.31-1.37 4.95-2.11 1.63-.74 3.24-1.52 4.84-2.33 1.6-.81 3.18-1.66 4.73-2.55a112.26 112.26 0 0 0 9.09-5.74c1.47-1.02 2.92-2.08 4.34-3.17 1.42-1.1 2.81-2.22 4.18-3.38 1.38-1.15 2.71-2.34 4.03-3.56 1.32-1.22 2.6-2.47 3.86-3.74 1.26-1.28 2.49-2.59 3.68-3.92 1.2-1.33 2.37-2.69 3.5-4.08 1.14-1.39 2.24-2.8 3.31-4.24 1.07-1.44 2.1-2.9 3.11-4.38a119.781 119.781 0 0 0 8.07-13.95c.79-1.61 1.54-3.24 2.25-4.89.72-1.64 1.39-3.3 2.03-4.97a116.792 116.792 0 0 0 3.36-10.21c.48-1.73.92-3.47 1.32-5.21.4-1.75.77-3.51 1.09-5.27.32-1.77.59-3.54.84-5.31.23-1.78.43-3.56.59-5.34.16-1.79.27-3.58.35-5.37.07-1.79.1-3.58.09-5.37H46.57z">
		</path>
		<path class="svg-whale7" d="M82.49 343.21c-.06-.83-.04-1.67.07-2.51.11-.84.3-1.66.58-2.45.27-.8.63-1.56 1.06-2.29.44-.72.94-1.4 1.51-2.02.58-.62 1.2-1.17 1.89-1.67.69-.49 1.41-.91 2.19-1.25.77-.34 1.57-.6 2.39-.78.83-.18 1.66-.27 2.5-.28H235.7a22.357 22.357 0 0 0 4-.36c.66-.13 1.32-.28 1.96-.46.64-.18 1.28-.39 1.91-.63.63-.24 1.24-.51 1.84-.81.6-.29 1.19-.61 1.76-.96.57-.35 1.13-.73 1.67-1.13.54-.4 1.05-.82 1.55-1.27a23.988 23.988 0 0 0 2.74-2.94 23.04 23.04 0 0 0 2.15-3.39c.3-.6.58-1.21.83-1.83.25-.62.47-1.25.67-1.9.19-.64.35-1.29.49-1.95.13-.65.23-1.31.3-1.98.21-3.89.21-7.78 0-11.67H45.52c-.75.01-1.5.05-2.24.14-.74.08-1.48.21-2.21.38-.73.16-1.44.37-2.15.62-.7.25-1.39.53-2.06.86-.68.32-1.33.68-1.97 1.08-.63.4-1.24.83-1.82 1.29-.59.47-1.15.96-1.68 1.49s-1.03 1.08-1.5 1.66c-.46.59-.9 1.19-1.3 1.82-.4.63-.77 1.28-1.09 1.96-.33.67-.62 1.36-.87 2.06s-.47 1.42-.64 2.14c-.17.73-.3 1.47-.4 2.21-.09.74-.13 1.49-.14 2.23-.01.75.02 1.5.1 2.24.08.74.19 1.48.35 2.21.58 2.73 1.27 5.43 2.05 8.11.77 2.67 1.65 5.32 2.62 7.93.96 2.62 2.02 5.19 3.18 7.73a115.88 115.88 0 0 0 7.97 14.69 116.538 116.538 0 0 0 9.98 13.4c1.82 2.11 3.71 4.15 5.68 6.13 1.97 1.98 4 3.88 6.11 5.71 2.1 1.83 4.27 3.58 6.49 5.26 2.23 1.67 4.52 3.27 6.86 4.78 2.34 1.51 4.74 2.94 7.18 4.28 2.44 1.34 4.94 2.59 7.47 3.76 2.53 1.16 5.1 2.23 7.72 3.21 2.61.98 5.25 1.87 7.92 2.65 2.67.8 5.37 1.49 8.1 2.09-4.59-4.67-8.75-9.69-12.49-15.07-3.74-5.37-7-11.02-9.79-16.94-2.78-5.93-5.06-12.04-6.81-18.35-1.76-6.3-2.97-12.71-3.65-19.23z">
		</path>
		<path class="svg-whale8" d="M509 294.44c-.54 0-1.08.06-1.61.16-.53.11-1.04.26-1.54.47-.5.2-.97.46-1.42.76-.45.3-.86.64-1.24 1.02-.39.38-.73.79-1.03 1.24-.3.45-.55.93-.75 1.43-.21.5-.37 1.01-.47 1.54-.11.53-.16 1.06-.16 1.6s.05 1.07.16 1.6c.1.53.26 1.04.47 1.54.2.5.45.98.75 1.43.3.45.64.86 1.03 1.24.38.38.79.72 1.24 1.02.45.3.92.56 1.42.76.5.21 1.01.36 1.54.47.53.1 1.07.16 1.61.16s1.07-.06 1.6-.16c.53-.11 1.04-.26 1.54-.47.5-.2.97-.46 1.42-.76a8.187 8.187 0 0 0 2.27-2.26c.3-.45.55-.93.76-1.43.2-.5.36-1.01.46-1.54.11-.53.16-1.06.16-1.6s-.05-1.07-.16-1.6c-.1-.53-.26-1.04-.46-1.54-.21-.5-.46-.98-.76-1.43a8.108 8.108 0 0 0-2.27-2.26c-.45-.3-.92-.56-1.42-.76-.5-.21-1.01-.36-1.54-.47-.53-.1-1.06-.16-1.6-.16z">
		</path>
	</g>
</svg>
