<svg xmlns="http://www.w3.org/2000/svg" viewBox="0 0 1080 1080" width="1080" height="1080">
	<style>
		tspan{white-space:pre}.icon-70{fill:#1d202d}.icon-71{fill:#ffd10b}.icon-72{fill:#7800e4}
	</style>
	<path class="icon-70" d="M509 1.69c-2.48.18-11.93 1.03-21 1.87-9.07.85-22.12 2.4-29 3.44-6.87 1.04-19.25 3.29-27.5 4.99-8.25 1.71-20.96 4.65-28.25 6.56-7.29 1.9-20.34 5.74-29 8.53-8.66 2.8-21.15 7.14-27.75 9.64-6.6 2.51-18.07 7.22-25.5 10.47-7.43 3.24-22.05 10.46-32.5 16.03s-23.05 12.58-28 15.57c-4.95 3-15.3 9.73-23 14.96-7.7 5.23-17.37 12.04-21.5 15.13-4.12 3.09-14.13 11.13-22.25 17.87-8.11 6.74-21.12 18.44-28.9 26-7.79 7.56-19.39 19.6-25.79 26.75-6.4 7.15-16.11 18.63-21.58 25.5-5.48 6.88-13.74 17.9-18.38 24.5-4.63 6.6-11.72 17.29-15.76 23.75-4.04 6.46-7.35 12.09-7.36 12.5 0 .41 40.16 24.41 89.25 53.34 49.1 28.92 117.28 69.08 151.52 89.25 34.24 20.16 62.64 36.55 63.12 36.41.49-.14 3.47-4.07 6.64-8.75 3.17-4.68 9.41-12.72 13.88-17.87 4.46-5.15 11.71-12.51 16.11-16.36 4.4-3.84 12.27-10.01 17.5-13.71 5.23-3.71 13.32-8.79 18-11.3 4.68-2.51 13.68-6.61 20-9.12 6.32-2.5 16.9-5.87 23.5-7.49 6.6-1.61 16.5-3.49 22-4.18 6.51-.81 16.28-1.06 28-.7 9.9.31 21.83 1.27 26.5 2.15 4.67.87 12.77 2.76 18 4.19 5.23 1.43 12.88 3.94 17 5.57 4.13 1.64 12.67 5.66 19 8.93 6.33 3.28 15.77 8.97 21 12.66 5.52 3.89 15.37 12.56 23.52 20.71 9.59 9.58 16.24 17.28 21 24.3 5.01 7.38 7.4 10.12 8.48 9.69.83-.34 15.45-8.83 32.5-18.88 17.05-10.06 84.77-49.92 150.5-88.6 65.73-38.67 119.73-70.47 120-70.67.27-.19-.17-1.55-1-3.03-.83-1.47-6.92-10.81-13.53-20.74-6.62-9.93-16.75-24.08-22.5-31.46-5.76-7.38-14.57-18.18-19.58-24-5.01-5.82-15.81-17.36-24-25.63s-21.41-20.69-29.39-27.6-21.02-17.49-29-23.52c-7.98-6.03-19.23-14.11-25-17.97-5.77-3.85-15-9.72-20.5-13.04-5.5-3.32-16.52-9.52-24.5-13.77s-20.35-10.45-27.5-13.76c-7.15-3.32-20.87-9.15-30.5-12.96-9.62-3.81-23.58-8.88-31-11.27-7.42-2.38-21.6-6.39-31.5-8.91-9.9-2.51-25.2-5.9-34-7.54-8.8-1.64-23.42-3.9-32.5-5.03-9.08-1.13-22.35-2.52-29.5-3.08-7.15-.56-24.48-.94-38.5-.84-14.02.1-27.52.33-30 .52z">
	</path>
	<path class="icon-71" d="M940.43 302.12c-34.61 20.4-102.76 60.5-151.43 89.12-48.67 28.63-88.82 52.32-89.2 52.65-.39.34 2.1 6.24 5.54 13.11 3.44 6.88 7.9 17.45 9.91 23.5 2 6.05 4.88 16.85 6.39 24 2.49 11.83 2.74 14.94 2.77 34.5.02 16.62-.39 23.77-1.81 31.5-1.01 5.5-3.09 14.5-4.64 20-1.54 5.5-4.82 14.73-7.3 20.5-2.47 5.77-6.24 13.65-8.38 17.5-2.14 3.85-5.18 9.02-6.75 11.5-1.56 2.48-5.41 7.88-8.55 12-3.13 4.13-9.02 11.05-13.09 15.39-4.06 4.34-10.76 10.69-14.89 14.12-4.12 3.42-11.33 8.82-16 11.99s-13.79 8.4-20.25 11.63c-6.46 3.23-16.81 7.62-23 9.75-6.19 2.14-15.75 4.81-21.25 5.95-5.5 1.14-14.73 2.54-20.5 3.13-5.77.58-12.64 1.05-15.25 1.05L538 725v353c26.74-.01 41.92-.67 51-1.47 9.08-.8 19.88-1.94 24-2.52 4.13-.58 12.9-1.98 19.5-3.1s19.88-3.85 29.5-6.08c9.63-2.22 22.9-5.61 29.5-7.53 6.6-1.91 18.3-5.74 26-8.49 7.7-2.75 19.63-7.28 26.5-10.07 6.88-2.78 20.15-8.73 29.5-13.23 9.35-4.5 24.65-12.59 34-17.98 9.35-5.38 23.3-14.06 31-19.28 7.7-5.22 18.95-13.22 25-17.78 6.05-4.56 16.85-13.15 24-19.09 7.15-5.94 21.8-19.59 32.56-30.34 10.77-10.75 24.3-25.16 30.08-32.04 5.78-6.87 13.74-16.66 17.69-21.75 3.94-5.09 11.84-16.11 17.54-24.5 5.7-8.39 13.74-20.87 17.86-27.75 4.13-6.87 10.69-18.58 14.58-26 3.9-7.42 9.4-18.67 12.22-25 2.83-6.33 7.39-17.12 10.15-24 2.76-6.87 7.16-18.8 9.79-26.5 2.63-7.7 6.67-20.75 8.98-29 2.31-8.25 5.72-21.98 7.57-30.5 1.85-8.52 4.5-22.92 5.9-32 1.4-9.08 3.26-24.15 4.13-33.5 1.05-11.24 1.59-27.68 1.6-48.5.01-21.42-.5-36.78-1.59-48-.88-9.07-2.5-22.8-3.61-30.5-1.11-7.7-3.57-21.65-5.46-31-1.89-9.35-5.29-23.75-7.54-32-2.26-8.25-6.35-21.75-9.1-30s-7.71-21.75-11.02-30c-3.31-8.25-10.69-24.45-16.39-36-5.71-11.55-12.55-24.7-15.22-29.23l-4.85-8.23-62.94 37.08z">
	</path>
	<path class="icon-72" d="M71.47 272.83c-2.15 3.67-8 14.77-13.01 24.67-5.01 9.9-11.85 24.52-15.19 32.5-3.35 7.98-8.56 21.48-11.58 30-3.03 8.52-7.39 22.02-9.7 30-2.3 7.98-5.74 21.25-7.63 29.5-1.9 8.25-4.54 21.52-5.88 29.5-1.34 7.98-3.11 20.13-3.94 27-.83 6.88-1.97 19.7-2.52 28.5-.56 8.8-1.01 25-1.01 36 .01 11 .47 26.52 1.03 34.5s1.71 20.58 2.55 28c.84 7.42 2.65 20.02 4.01 28 1.36 7.98 3.63 19.67 5.03 26 1.4 6.33 4.13 17.35 6.06 24.5 1.93 7.15 5.75 19.75 8.48 28 2.73 8.25 7.38 21.08 10.32 28.5 2.95 7.42 8.49 20.25 12.32 28.5s10 20.63 13.71 27.5c3.71 6.88 10.13 18.13 14.27 25 4.14 6.88 12.38 19.48 18.31 28 5.93 8.52 16 22.02 22.38 30 6.37 7.98 17.54 20.96 24.8 28.85 7.27 7.9 19.07 19.79 26.22 26.43 7.15 6.64 17.95 16.19 24 21.23 6.05 5.03 15.95 12.89 22 17.46 6.05 4.57 17.3 12.46 25 17.54 7.7 5.07 18.73 12.06 24.5 15.52 5.77 3.46 18.15 10.25 27.5 15.07 9.35 4.83 22.85 11.33 30 14.45 7.15 3.13 18.85 7.9 26 10.62 7.15 2.72 19.98 7.13 28.5 9.8 8.52 2.68 20.9 6.22 27.5 7.88 6.6 1.67 18.52 4.38 26.5 6.03 7.98 1.65 20.8 3.92 28.5 5.04 7.7 1.12 21.2 2.73 30 3.57 8.8.83 23.09 1.52 31.75 1.51H538l.01-352.5c-15.12-1.24-24.46-2.45-30.51-3.5-6.05-1.04-15.05-3.08-20-4.51-4.95-1.44-13.73-4.6-19.5-7.04-5.77-2.43-14.77-6.86-20-9.84-5.23-2.98-13.94-8.73-19.37-12.77-5.43-4.04-15.35-12.96-22.04-19.84-8.71-8.94-14.54-16.06-20.44-25-4.55-6.87-10.55-17.23-13.35-23-2.8-5.77-6.78-15.67-8.86-22-2.07-6.33-4.76-16.45-5.98-22.5-1.67-8.27-2.34-15.83-2.7-30.5-.37-15.11-.09-22.2 1.24-31.5.94-6.6 3.27-17.4 5.17-24 1.9-6.6 5.04-15.82 6.97-20.5 1.93-4.68 5.29-11.87 7.46-16 2.17-4.12 3.82-7.56 3.67-7.62-.15-.07-28.39-16.68-62.77-36.92-34.37-20.23-101.42-59.7-149-87.7-47.58-28.01-87.88-51.75-89.57-52.76l-3.07-1.84-3.89 6.67z">
	</path>
</svg>
