<svg xmlns="http://www.w3.org/2000/svg" viewBox="0 0 1080 1080" width="1080" height="1080">
	<style>
		tspan{white-space:pre}.icon-60{fill:#4d657b}.icon-61{fill:#ffd10b}
	</style>
	<path class="icon-60" d="M398.5 21.91c-1.65.41-4.35 1.47-6 2.34-1.65.87-4.44 3.08-6.2 4.91-1.76 1.84-3.9 5.03-4.75 7.09-1.36 3.28-1.55 13.61-1.55 82.25 0 63.06.26 79.14 1.33 81.75.73 1.79 2.87 5.01 4.75 7.17 1.88 2.15 5.44 4.81 7.92 5.91 2.67 1.18 6.74 2.01 10 2.03 3.8.02 6.89-.68 10-2.26 2.48-1.26 5.57-3.26 6.88-4.44 1.31-1.19 3.45-4.41 4.74-7.16l2.36-5v-156c-3.59-7.75-6.18-11.29-8.06-12.87-1.88-1.58-4.54-3.44-5.92-4.13-1.37-.7-4.75-1.51-7.5-1.81-2.75-.3-6.35-.2-8 .22zM178.81 94.87c-1.49.46-3.96 1.53-5.5 2.39-1.55.86-4 2.84-5.45 4.4-1.45 1.56-3.46 4.42-4.47 6.34-1.26 2.41-1.85 5.68-1.86 10.5-.03 5.83.42 7.75 2.65 11.5 1.49 2.5 25.46 27.2 54 55.62 46.65 46.47 51.78 51.27 56.32 52.76 2.75.9 6.35 1.64 8 1.64 1.65 0 5.25-.76 8-1.7 3.29-1.12 6.48-3.26 9.33-6.26 3.05-3.21 4.79-6.19 5.87-10.06.9-3.25 1.28-7.04.91-9.25-.33-2.06-1.7-5.89-3.04-8.5-1.75-3.43-16.56-18.83-53.25-55.4C222.37 121 197.93 97.43 196 96.47c-1.93-.96-5.97-1.89-9-2.08-3.03-.18-6.71.03-8.19.48zm436.19.39c-1.92.71-4.85 2.26-6.5 3.45-1.65 1.18-25.78 25.02-53.63 52.97-48.12 48.3-50.72 51.09-52.39 56.32-1.23 3.88-1.56 6.97-1.1 10.5.35 2.75 1.76 6.91 3.13 9.25 1.37 2.34 3.95 5.35 5.74 6.69 1.79 1.35 5.27 3.16 7.75 4.03 2.48.86 5.85 1.57 7.5 1.56 1.65 0 5.25-.75 8-1.65 4.54-1.49 9.67-6.29 56.32-52.76 28.54-28.42 52.51-53.12 54-55.62 2.23-3.75 2.68-5.67 2.65-11.5-.01-4.82-.6-8.09-1.86-10.5-1.01-1.92-3.02-4.78-4.47-6.34-1.45-1.56-4.44-3.76-6.64-4.88-2.2-1.12-6.48-2.22-9.5-2.43-3.05-.21-7.06.19-9 .91z">
	</path>
	<path class="icon-61" d="M774.5 96.92c-3.85 1.04-9.02 2.76-11.5 3.82-2.48 1.06-7.2 3.62-10.5 5.69-4.25 2.67-39.77 37.47-122 119.51-79.73 79.55-139.27 137.91-190.43 186.65-40.94 39-74.69 70.84-75 70.76-.31-.09-2.27-4.36-4.35-9.5-2.08-5.14-6.27-14.53-9.31-20.85-3.04-6.32-9.43-18.02-14.2-26-4.78-7.98-12.23-19.45-16.56-25.5-4.33-6.05-11.09-15.05-15.01-19.99-3.93-4.95-10.68-13.05-15-18-4.32-4.96-18.27-19.53-31-32.38-12.73-12.86-25.61-25.07-28.64-27.13-3.03-2.06-8.65-5.18-12.5-6.93-3.85-1.76-11.05-4.25-16-5.54-4.95-1.29-12.6-2.66-17-3.03-4.75-.41-11.45-.21-16.5.5-4.68.65-11.43 2.28-15 3.63-3.57 1.35-8.97 4.09-12 6.09-3.03 2-9.63 7.72-14.68 12.71-6.8 6.72-9.89 10.63-11.91 15.07-2.09 4.6-2.73 7.52-2.71 12.5.02 4.72.7 8 2.49 12 1.36 3.02 11.62 20.57 22.8 39 11.19 18.43 23.36 39.8 27.07 47.5 3.7 7.7 8.14 18.27 9.88 23.5 1.73 5.23 4.01 12.88 5.06 17 1.05 4.13 2.7 11.77 3.66 17 1.57 8.54 1.8 21.12 2.35 125 .6 113.52.64 115.66 2.76 125 1.18 5.23 3.34 13.1 4.79 17.5 1.44 4.4 4.87 12.73 7.61 18.5s7.35 14.1 10.23 18.5c2.89 4.4 7.92 11.13 11.17 14.95 3.26 3.82 22.81 22.04 43.45 40.5 20.63 18.45 74.32 66.4 119.3 106.55 44.98 40.15 85.25 75.38 89.48 78.3 4.24 2.91 12.2 7.49 17.7 10.18 5.5 2.69 13.6 6.1 18 7.58 4.4 1.47 12.05 3.55 17 4.61 5.34 1.15 15.1 2.17 24 2.51 11.38.43 17.78.16 26.5-1.13 6.33-.93 16.45-3.29 22.5-5.25 6.05-1.95 14.6-5.35 19-7.55s11.15-6.03 15-8.5c3.85-2.47 10.6-7.57 15-11.31 4.4-3.75 72.84-71.76 152.09-151.13 99.18-99.33 145.29-146.18 147.94-150.31 2.12-3.3 4.87-8.25 6.12-11s3.06-7.92 4.03-11.5c1.2-4.44 1.76-10.15 1.77-18 0-8.98-.5-13.25-2.28-19.5-1.26-4.4-3.88-10.92-5.83-14.5-1.95-3.58-5.56-8.98-8.02-12-2.46-3.02-7.47-7.91-11.15-10.86-3.67-2.95-9.82-6.85-13.67-8.68-3.85-1.82-9.92-4.11-13.5-5.08-4.58-1.25-10.04-1.76-18.5-1.74-10.68.03-13.04.38-21.5 3.15-5.23 1.72-12.31 4.94-15.75 7.16-3.44 2.23-6.24 3.71-6.23 3.3.02-.41 6.23-7.05 13.82-14.75 7.58-7.7 15.16-16.02 16.84-18.5 1.68-2.48 4.19-6.75 5.58-9.5 1.39-2.75 3.58-8.37 4.86-12.5 1.92-6.14 2.34-9.67 2.32-19.5-.02-8.17-.58-14.08-1.77-18.5-.95-3.58-3.61-10.33-5.9-15-3.43-6.98-5.87-10.21-13.72-18.05-7.88-7.88-11.04-10.28-18.05-13.69-4.67-2.28-11.42-4.93-15-5.9-4.56-1.23-10.08-1.74-18.5-1.71-10.29.03-13.21.43-20.5 2.78-4.67 1.52-10.41 3.84-12.75 5.16-2.34 1.33-4.59 2.19-5 1.92-.41-.27 1.75-3.09 4.8-6.25 3.06-3.17 7.08-8.01 8.95-10.76 1.86-2.75 4.65-7.81 6.2-11.25 1.54-3.44 3.52-9.29 4.4-13 .93-3.93 1.58-10.92 1.56-16.75-.03-6.86-.71-12.51-2.15-18-1.16-4.4-3.97-11.6-6.25-16-3.13-6.05-6.35-10.21-13.2-17.06-6.94-6.94-10.93-10.01-17.06-13.14-4.4-2.25-11.83-5.03-16.5-6.2-5.49-1.36-11.69-2.12-17.5-2.12-5.7 0-11.93.73-17 2.01-4.4 1.1-11.15 3.55-15 5.44-3.85 1.89-7.23 3.22-7.5 2.97-.27-.26 35.74-36.79 80.04-81.18 65.93-66.08 81.22-81.9 84.28-87.22 2.05-3.57 4.93-10.1 6.4-14.5 2.38-7.14 2.67-9.5 2.67-22 0-12.25-.31-14.94-2.49-21.5-1.37-4.12-4.25-10.65-6.41-14.5-2.15-3.85-7.08-10.31-10.95-14.35-3.87-4.05-10.19-9.3-14.04-11.69-3.85-2.38-10.6-5.57-15-7.09-6.85-2.37-9.88-2.81-21-3.06-10.34-.23-14.43.09-20 1.61z">
	</path>
	<path class="icon-60" d="M645.8 416.73c-21.11 21.23-35.34 36.33-36.55 38.77-1.09 2.2-2.27 5.57-2.64 7.5-.36 1.93-.17 5.75.41 8.5.59 2.75 2.55 7.02 4.36 9.5 2.04 2.79 5.15 5.42 8.2 6.92 2.71 1.33 6.72 2.63 8.92 2.88s5.8-.1 8-.77c2.2-.68 5.69-2.32 7.75-3.63L648 484c25.7-77.89 32.99-100.85 32.77-101.27-.21-.43-15.95 14.87-34.97 34zm85.46 121.56c-19.28 19.37-35.88 36.79-36.88 38.71-1.24 2.37-1.81 5.6-1.78 10 .03 3.85.68 7.72 1.6 9.5.86 1.65 2.85 4.54 4.43 6.42 1.58 1.88 5.12 4.47 7.87 5.74 3.15 1.46 6.85 2.32 10 2.31 2.88-.01 6.91-.88 9.5-2.06 2.48-1.12 5.3-2.8 6.29-3.73 1.03-.97 8.63-22.64 18.07-51.49 8.95-27.4 16.21-49.99 16.13-50.21-.09-.22-15.94 15.44-35.23 34.81zm69.33 135.96c-26.27 26.02-35.05 35.33-36.56 38.75-1.17 2.65-2 6.77-2.02 10-.03 4.07.68 6.93 2.72 10.99 1.59 3.16 4.47 6.81 6.77 8.57 2.2 1.69 6.36 3.61 9.25 4.26 3.7.83 6.66.89 10 .19 2.61-.54 6.51-2.23 8.66-3.75l3.91-2.76c26.1-77.89 33.27-100.5 32.76-100.5-.5 0-16.47 15.41-35.49 34.25z">
	</path>
</svg>
