<svg xmlns="http://www.w3.org/2000/svg" viewBox="0 0 810 810" width="810" height="810"><style>tspan{white-space:pre}.icon-80{fill:#7800e4}.icon-81{fill:none;stroke:#000;stroke-linecap:round;stroke-linejoin:round;stroke-width:20.378}</style><path fill-rule="evenodd" class="icon-80" d="M475.22 201.88l30.94-.02c17.02-.02 31.19.15 31.49.36.3.22-9.5 20.66-21.8 45.44-12.29 24.78-57.63 115.79-179.17 359.46l-31.07.02c-17.09.02-31.33-.15-31.63-.36-.3-.22 44.85-91.41 100.34-202.65l100.9-202.25zm-191.13 21.76c5.26.18 11.88.68 14.71 1.11 2.84.43 8.46 1.61 12.51 2.62 4.04 1.02 10.16 2.98 13.6 4.37 3.44 1.39 8.9 4.05 12.14 5.92 3.23 1.87 7.87 4.97 10.3 6.88 2.42 1.92 6.56 5.76 9.19 8.54 2.63 2.78 6.33 7.38 8.22 10.21 1.9 2.83 4.59 7.63 5.99 10.66 1.4 3.04 3.43 8.33 4.5 11.77 1.08 3.44 2.5 9.23 3.16 12.87.83 4.56 1.2 10.86 1.21 20.23 0 11.15-.28 14.93-1.57 20.96-.87 4.04-2.47 9.83-3.55 12.87-1.08 3.03-3.12 7.83-4.54 10.66-1.41 2.83-4.31 7.63-6.44 10.67-2.13 3.03-6.47 8-9.66 11.04-3.18 3.04-8.1 7.06-10.93 8.92-2.83 1.87-7.79 4.72-11.03 6.34-3.24 1.61-9.03 3.97-12.87 5.25-3.84 1.27-9.3 2.78-12.14 3.35-2.83.58-8.12 1.44-11.76 1.92-4.13.55-11.61.73-19.86.49-9.44-.27-15.57-.85-21.33-2-4.45-.9-11.4-2.79-15.45-4.21-4.04-1.42-9.34-3.58-11.76-4.8-2.43-1.23-6.24-3.39-8.46-4.8-2.23-1.41-6.69-4.78-9.93-7.48-3.24-2.71-7.88-7.55-10.33-10.76-2.44-3.21-5.74-8.15-7.33-10.98-1.58-2.84-3.94-7.97-5.24-11.4-1.29-3.44-3.06-9.57-3.92-13.61-1.05-4.93-1.71-11.36-1.99-19.49-.33-9.44-.15-14.02.83-20.59.7-4.66 2.06-11.19 3.04-14.53.97-3.34 3.03-8.8 4.58-12.14 1.54-3.33 4.59-8.71 6.77-11.95 2.19-3.23 6.14-8.06 8.78-10.73 2.65-2.66 7.29-6.67 10.33-8.9 3.03-2.24 8.57-5.6 12.31-7.48 3.75-1.87 9.87-4.44 13.61-5.7 3.74-1.26 10.11-2.94 14.16-3.73 4.04-.8 10.33-1.73 13.97-2.08 3.64-.34 10.93-.47 16.18-.29zm-17.65 71.78c-1.21.62-3.45 2.58-4.98 4.36-1.53 1.77-3.35 4.88-4.05 6.9-.9 2.61-1.25 5.93-1.23 11.4.03 6.96.25 8.19 2.21 12.43 1.19 2.59 3.33 5.7 4.74 6.92 1.42 1.22 4.07 2.88 5.89 3.69 2.5 1.11 5 1.49 10.31 1.54 6.43.05 7.39-.13 11.77-2.26 3-1.46 5.57-3.37 6.94-5.15 1.2-1.55 2.74-4.32 3.42-6.14.68-1.82 1.47-5.13 1.76-7.35.28-2.26.14-6.48-.33-9.56-.52-3.41-1.64-6.93-2.91-9.2-1.13-2.02-3.52-4.77-5.3-6.12-1.78-1.34-4.89-2.92-6.91-3.5-2.02-.58-5.83-1.03-8.46-1-2.63.03-6.1.48-7.72.99s-3.93 1.44-5.15 2.05zm266.98 101.67c8.87.16 16.53.7 20.96 1.5 3.85.68 10.96 2.57 15.82 4.18 4.85 1.61 11.63 4.39 15.07 6.18 3.44 1.79 9.07 5.36 12.51 7.94 3.43 2.58 8.04 6.64 10.22 9.02 2.19 2.38 5.19 5.99 6.68 8.01 1.48 2.02 3.9 5.83 5.36 8.46 1.47 2.63 3.55 7.09 4.62 9.93 1.08 2.83 2.55 7.3 3.27 9.93.72 2.62 1.75 7.09 2.3 9.92.64 3.26 1 10.42 1 19.49 0 10.61-.33 15.97-1.26 20.6-.69 3.44-2.13 8.9-3.19 12.13-1.07 3.24-3.42 8.87-5.24 12.51-1.82 3.64-4.9 8.77-6.84 11.4-1.94 2.63-6.3 7.43-9.68 10.67-3.38 3.23-7.96 7.09-10.19 8.56-2.22 1.47-6.52 4.01-9.56 5.64-3.03 1.63-8.82 4.11-12.87 5.51-4.04 1.4-10.99 3.32-15.44 4.28-7.23 1.56-9.93 1.74-25.38 1.72-13.34-.01-18.87-.31-24.27-1.31-3.84-.72-10.46-2.47-14.71-3.89s-10.7-4.06-14.34-5.86c-3.64-1.8-9.43-5.38-12.87-7.95-3.44-2.57-8.24-6.79-10.68-9.37-2.43-2.58-5.89-6.85-7.68-9.47-1.79-2.63-4.83-8.1-6.75-12.14-1.92-4.05-4.31-10.5-5.29-14.34-.99-3.84-2.21-9.97-2.71-13.61-.59-4.35-.76-11.28-.5-20.22.3-9.77.82-15.38 1.87-19.86.8-3.44 2.36-8.74 3.45-11.77 1.1-3.03 3.08-7.67 4.41-10.3 1.33-2.63 4.17-7.26 6.3-10.29 2.14-3.04 6.23-7.84 9.09-10.67 2.85-2.83 8-7.01 11.44-9.29 3.43-2.29 8.23-5.13 10.66-6.33 2.42-1.2 6.73-3.04 9.56-4.09 2.83-1.05 7.96-2.62 11.4-3.48 3.44-.86 9.23-2.02 12.87-2.57 4.4-.67 11.3-.93 20.59-.77zm-12.87 70.43c-1.42.6-3.86 2.22-5.43 3.6-1.57 1.38-3.64 4.09-4.59 6.01-.96 1.92-2.14 5.73-2.62 8.46-.68 3.86-.68 6.26.02 10.84.58 3.78 1.65 7.21 2.98 9.57 1.14 2.02 3.44 4.75 5.12 6.06 1.68 1.32 4.46 2.8 6.18 3.3 1.71.5 5.77.91 9 .91 3.24 0 7.3-.41 9.01-.91 1.72-.5 4.54-2 6.26-3.34 1.85-1.44 4.05-4.2 5.41-6.8 1.55-2.96 2.48-6.04 2.87-9.52.37-3.25.27-6.98-.27-10.11-.46-2.73-1.64-6.54-2.62-8.46-.97-1.92-2.87-4.55-4.22-5.85-1.36-1.29-3.78-2.91-5.4-3.59-1.62-.68-4.81-1.44-7.09-1.7-2.27-.25-5.91-.25-8.09 0-2.17.25-5.1.94-6.52 1.53z"></path><path class="icon-81" d="M802.37 408.4a389.623 389.623 0 0 1-.74 24.16c-.1 1.61-.21 3.21-.33 4.82-.11 1.61-.24 3.22-.38 4.82-.14 1.61-.29 3.21-.45 4.82-.15 1.6-.32 3.2-.5 4.8-.18 1.61-.36 3.21-.56 4.81-.2 1.6-.41 3.19-.62 4.79-.22 1.6-.45 3.19-.68 4.79a395.116 395.116 0 0 1-7.55 37.92c-1.56 6.25-3.28 12.46-5.15 18.63a402.305 402.305 0 0 1-7.73 22.91c-.56 1.51-1.13 3.01-1.71 4.52-.58 1.5-1.17 3-1.77 4.5-.59 1.49-1.2 2.99-1.82 4.47-.61 1.49-1.24 2.98-1.88 4.46-.63 1.48-1.27 2.96-1.93 4.43a348.663 348.663 0 0 1-4.02 8.79c-.69 1.46-1.39 2.91-2.1 4.36-.7 1.45-1.42 2.89-2.15 4.33-.72 1.44-1.45 2.88-2.2 4.31-.74 1.43-1.49 2.86-2.25 4.28a386.355 386.355 0 0 1-9.53 16.82c-1.66 2.77-3.35 5.51-5.07 8.23-1.73 2.73-3.49 5.43-5.28 8.11a388.84 388.84 0 0 1-8.27 11.91c-2.84 3.91-5.74 7.78-8.72 11.59-2.97 3.81-6.01 7.57-9.13 11.27-3.11 3.7-6.29 7.34-9.54 10.92-1.08 1.2-2.17 2.38-3.27 3.57-1.09 1.18-2.2 2.35-3.31 3.52-1.11 1.17-2.23 2.33-3.35 3.48-1.13 1.15-2.26 2.3-3.4 3.44-2.28 2.28-4.59 4.53-6.92 6.75-2.34 2.22-4.7 4.42-7.09 6.58-2.39 2.16-4.8 4.3-7.24 6.41-2.44 2.1-4.91 4.18-7.4 6.22-2.49 2.05-5.01 4.06-7.55 6.04a362.4 362.4 0 0 1-7.69 5.86c-2.59 1.92-5.2 3.81-7.84 5.66a362.16 362.16 0 0 1-7.97 5.47c-2.68 1.79-5.38 3.55-8.11 5.28a402.887 402.887 0 0 1-16.58 9.94c-2.81 1.59-5.63 3.14-8.47 4.66-1.42.76-2.85 1.51-4.28 2.25-1.43.75-2.87 1.48-4.31 2.2-1.44.73-2.88 1.45-4.33 2.15-1.45.71-2.9 1.41-4.36 2.1a348.663 348.663 0 0 1-8.79 4.02c-1.47.66-2.95 1.3-4.43 1.93-1.48.64-2.97 1.27-4.46 1.88-5.95 2.47-11.97 4.79-18.04 6.96-6.07 2.17-12.19 4.19-18.36 6.07-6.17 1.87-12.38 3.59-18.64 5.15-6.25 1.57-12.54 2.98-18.86 4.24-1.58.32-3.16.62-4.75.91-1.58.3-3.17.58-4.76.86-1.58.28-3.17.54-4.77.8-1.59.25-3.18.5-4.77.73-1.6.24-3.19.47-4.79.69-1.6.21-3.19.42-4.79.62s-3.2.38-4.81.56c-1.6.18-3.2.35-4.8.5-1.61.16-3.21.31-4.82.45-1.6.14-3.21.27-4.82.38a389.936 389.936 0 0 1-9.65.6c-6.44.31-12.89.47-19.33.47-6.45 0-12.89-.16-19.33-.47a390.643 390.643 0 0 1-9.66-.6c-1.6-.11-3.21-.24-4.81-.38-1.61-.14-3.22-.29-4.82-.45-1.6-.15-3.21-.32-4.81-.5-1.6-.18-3.2-.36-4.8-.56-1.6-.2-3.2-.41-4.79-.62-1.6-.22-3.2-.45-4.79-.68-3.19-.48-6.37-.99-9.55-1.54-3.17-.55-6.34-1.14-9.5-1.77a378.187 378.187 0 0 1-18.87-4.24 389.922 389.922 0 0 1-27.85-8.07c-3.07-1.01-6.11-2.06-9.15-3.15-1.52-.54-3.03-1.09-4.54-1.66-1.51-.56-3.02-1.13-4.52-1.71-1.5-.58-3-1.17-4.5-1.77-1.5-.59-2.99-1.2-4.48-1.82-1.49-.61-2.97-1.24-4.45-1.88-1.48-.63-2.96-1.27-4.44-1.93-1.47-.65-2.94-1.31-4.4-1.98-1.47-.67-2.93-1.35-4.39-2.04-1.45-.69-2.91-1.39-4.35-2.1-1.45-.7-2.9-1.42-4.34-2.15-1.44-.72-2.87-1.45-4.3-2.2a386.46 386.46 0 0 1-21.1-11.78c-2.77-1.66-5.51-3.35-8.24-5.07-2.72-1.73-5.42-3.49-8.1-5.28a362.16 362.16 0 0 1-7.97-5.47 399.521 399.521 0 0 1-15.54-11.51c-2.54-1.99-5.05-4-7.54-6.05-3.74-3.06-7.42-6.2-11.05-9.4-3.62-3.2-7.18-6.47-10.68-9.81-3.51-3.33-6.95-6.73-10.32-10.19-3.38-3.46-6.69-6.98-9.93-10.57-2.17-2.38-4.31-4.8-6.41-7.24a399.38 399.38 0 0 1-6.23-7.4 399.075 399.075 0 0 1-11.89-15.24c-.96-1.3-1.92-2.6-2.86-3.9-.94-1.31-1.88-2.62-2.81-3.94-.93-1.32-1.85-2.64-2.76-3.97-.91-1.33-1.81-2.66-2.71-4a394.42 394.42 0 0 1-12.81-20.5 395.615 395.615 0 0 1-21.72-43.16c-3.17-7.41-6.12-14.91-8.84-22.5-.54-1.51-1.07-3.03-1.6-4.56-.52-1.52-1.04-3.05-1.54-4.58-.51-1.53-1-3.06-1.49-4.6-.48-1.54-.96-3.08-1.43-4.62s-.93-3.09-1.38-4.63c-.45-1.55-.88-3.1-1.31-4.65-.43-1.56-.86-3.11-1.27-4.67-.41-1.56-.81-3.12-1.2-4.68-.39-1.57-.77-3.13-1.14-4.7-.38-1.57-.74-3.14-1.09-4.71-.36-1.57-.7-3.15-1.03-4.73-.34-1.57-.66-3.15-.97-4.73-.32-1.58-.62-3.17-.92-4.75-.29-1.58-.58-3.17-.85-4.76-.28-1.59-.55-3.17-.8-4.77-.26-1.59-.51-3.18-.74-4.77-.24-1.6-.47-3.19-.68-4.79-.22-1.6-.43-3.19-.62-4.79-.2-1.6-.39-3.2-.57-4.81-.17-1.6-.34-3.2-.5-4.8a387.366 387.366 0 0 1-1.42-19.29c-.16-3.22-.28-6.44-.36-9.66-.08-3.22-.12-6.45-.11-9.67-.01-3.22.03-6.45.11-9.67.08-3.22.2-6.44.36-9.66a387.244 387.244 0 0 1 1.42-19.29c.16-1.6.33-3.21.5-4.81.18-1.6.37-3.2.57-4.8.19-1.6.4-3.2.62-4.79.21-1.6.44-3.2.68-4.79.47-3.19.98-6.37 1.54-9.55.55-3.17 1.14-6.34 1.77-9.5.63-3.16 1.29-6.32 2-9.46.7-3.15 1.45-6.28 2.23-9.41a401.629 401.629 0 0 1 2.46-9.35c.43-1.55.87-3.1 1.32-4.65.45-1.55.91-3.09 1.38-4.63.47-1.55.94-3.09 1.43-4.62.49-1.54.98-3.07 1.49-4.6.5-1.53 1.02-3.06 1.54-4.59.53-1.52 1.06-3.04 1.6-4.56 1.09-3.03 2.21-6.05 3.37-9.06 1.16-3.01 2.36-6 3.59-8.98 1.24-2.98 2.51-5.94 3.81-8.89 1.31-2.94 2.65-5.87 4.03-8.79.69-1.45 1.39-2.91 2.09-4.35.71-1.45 1.43-2.9 2.15-4.34.73-1.44 1.46-2.87 2.2-4.3.74-1.43 1.5-2.86 2.25-4.28.76-1.42 1.53-2.84 2.31-4.25.78-1.41 1.56-2.82 2.36-4.22.79-1.4 1.59-2.8 2.41-4.19.81-1.4 1.63-2.78 2.46-4.17.82-1.38 1.66-2.75 2.51-4.13.84-1.37 1.7-2.74 2.56-4.1a349.3 349.3 0 0 1 2.61-4.06c.88-1.36 1.76-2.7 2.66-4.04.9-1.34 1.8-2.68 2.71-4 .91-1.33 1.83-2.66 2.76-3.98a557.7 557.7 0 0 1 2.81-3.93c.94-1.31 1.9-2.61 2.86-3.9.96-1.3 1.92-2.59 2.9-3.87.98-1.28 1.96-2.56 2.95-3.83.99-1.27 1.99-2.53 3-3.79 1.01-1.26 2.02-2.51 3.04-3.75 4.09-4.99 8.3-9.87 12.63-14.65 1.09-1.19 2.18-2.38 3.27-3.56 1.1-1.18 2.2-2.36 3.31-3.52 1.11-1.17 2.23-2.33 3.36-3.48 1.12-1.16 2.26-2.3 3.4-3.44 1.14-1.14 2.28-2.28 3.44-3.4 1.15-1.13 2.31-2.25 3.48-3.36 1.16-1.11 2.34-2.21 3.52-3.31 1.18-1.09 2.37-2.18 3.56-3.27 1.19-1.08 2.39-2.15 3.6-3.22a359.846 359.846 0 0 1 7.33-6.32c1.23-1.04 2.47-2.07 3.71-3.09 1.25-1.02 2.5-2.03 3.76-3.04 1.26-1.01 2.52-2.01 3.79-3 1.27-.99 2.55-1.97 3.83-2.95 1.28-.98 2.57-1.94 3.87-2.9 1.29-.96 2.59-1.92 3.9-2.86 1.3-.94 2.62-1.88 3.93-2.81 1.32-.93 2.65-1.85 3.98-2.76 1.32-.91 2.66-1.81 4-2.71 1.34-.9 2.68-1.78 4.04-2.66 1.35-.88 2.7-1.75 4.06-2.61 1.36-.86 2.73-1.72 4.1-2.56 1.38-.85 2.75-1.69 4.13-2.51 1.39-.83 2.77-1.65 4.17-2.46 1.39-.82 2.79-1.62 4.19-2.41 1.4-.8 2.81-1.58 4.22-2.36 1.41-.78 2.83-1.55 4.25-2.31 2.84-1.51 5.7-3 8.58-4.45 2.88-1.45 5.78-2.86 8.69-4.24 2.92-1.38 5.85-2.72 8.8-4.03 2.94-1.3 5.9-2.57 8.88-3.81 1.49-.61 2.98-1.22 4.48-1.82 1.5-.6 3-1.19 4.5-1.77 1.5-.58 3.01-1.15 4.52-1.71 1.51-.56 3.02-1.11 4.54-1.66 1.52-.54 3.04-1.07 4.56-1.6 1.53-.52 3.06-1.04 4.59-1.54 1.53-.51 3.06-1 4.6-1.49 1.53-.48 3.07-.96 4.62-1.43 1.54-.47 3.08-.93 4.63-1.38 1.55-.45 3.1-.89 4.65-1.32a401.629 401.629 0 0 1 9.35-2.46c1.57-.39 3.13-.77 4.7-1.14 1.57-.38 3.14-.74 4.71-1.09 1.57-.36 3.15-.7 4.72-1.03 1.58-.34 3.16-.66 4.74-.97 1.58-.32 3.16-.62 4.75-.92 1.58-.29 3.17-.58 4.75-.85 1.59-.28 3.18-.55 4.77-.8 1.59-.26 3.19-.5 4.78-.74 1.59-.24 3.19-.46 4.79-.68 1.59-.22 3.19-.43 4.79-.62 1.6-.2 3.2-.39 4.8-.57 1.6-.17 3.21-.34 4.81-.5a391.008 391.008 0 0 1 19.29-1.42c3.22-.16 6.44-.28 9.66-.36 3.22-.08 6.44-.12 9.67-.11 3.22-.01 6.44.03 9.67.11 3.22.08 6.44.2 9.66.36a387.244 387.244 0 0 1 19.29 1.42c1.6.16 3.2.33 4.8.5 1.61.18 3.21.37 4.81.57 1.6.19 3.19.4 4.79.62 1.6.22 3.19.44 4.79.68 6.37.95 12.72 2.05 19.05 3.31 1.58.31 3.16.63 4.73.97 1.58.33 3.15.67 4.73 1.03 1.57.35 3.14.71 4.71 1.08 1.57.38 3.13.76 4.7 1.15a401.629 401.629 0 0 1 9.35 2.46c1.55.43 3.1.87 4.65 1.32 1.54.45 3.09.91 4.63 1.38 1.54.47 3.08.94 4.62 1.43s3.07.98 4.6 1.49c1.53.5 3.06 1.02 4.58 1.54 1.53.53 3.05 1.06 4.56 1.6 1.52.55 3.04 1.1 4.55 1.66 1.51.56 3.01 1.13 4.52 1.71 1.5.58 3 1.17 4.5 1.77a387.447 387.447 0 0 1 22.15 9.66c5.83 2.76 11.59 5.65 17.28 8.69 5.68 3.04 11.29 6.22 16.82 9.53 5.53 3.32 10.98 6.77 16.34 10.35 1.34.9 2.67 1.8 4 2.71 1.33.91 2.65 1.83 3.97 2.76 1.32.93 2.63 1.87 3.94 2.81 1.3.94 2.6 1.9 3.9 2.86a398.853 398.853 0 0 1 15.24 11.89c2.49 2.05 4.96 4.12 7.4 6.23 2.44 2.1 4.86 4.24 7.24 6.4 3.59 3.25 7.11 6.56 10.57 9.94 3.46 3.37 6.86 6.81 10.19 10.31 3.34 3.51 6.61 7.07 9.81 10.69 3.2 3.62 6.34 7.31 9.4 11.04 2.05 2.5 4.06 5.01 6.05 7.55a399.521 399.521 0 0 1 16.98 23.51c1.79 2.68 3.55 5.38 5.28 8.1 1.72 2.73 3.41 5.47 5.07 8.24a386.355 386.355 0 0 1 11.78 21.1c.75 1.43 1.48 2.86 2.2 4.3.73 1.44 1.45 2.89 2.15 4.34.71 1.44 1.41 2.9 2.1 4.35.69 1.46 1.37 2.92 2.04 4.39.67 1.46 1.33 2.93 1.98 4.41.66 1.47 1.3 2.95 1.93 4.43.64 1.48 1.27 2.96 1.88 4.45 1.24 2.98 2.43 5.97 3.59 8.98 1.16 3.01 2.28 6.03 3.37 9.06 1.09 3.04 2.13 6.09 3.15 9.15 1.01 3.06 1.98 6.13 2.92 9.22.46 1.54.92 3.08 1.37 4.63.45 1.55.89 3.1 1.32 4.65a401.629 401.629 0 0 1 2.46 9.35c.79 3.13 1.53 6.26 2.24 9.41.7 3.14 1.37 6.3 2 9.46.63 3.16 1.22 6.33 1.77 9.5.55 3.18 1.06 6.36 1.54 9.55.23 1.59.46 3.19.68 4.79.21 1.59.42 3.19.62 4.79s.38 3.2.56 4.8c.18 1.6.35 3.21.5 4.81.16 1.6.31 3.21.45 4.82.14 1.6.27 3.21.38 4.81a391.544 391.544 0 0 1 .6 9.66c.31 6.44.47 12.88.47 19.33zM686.35 129.09L129.36 685.95"></path></svg>