<svg xmlns="http://www.w3.org/2000/svg" viewBox="0 0 1080 1080" width="1080" height="1080"><style>tspan{white-space:pre}.icon-110{fill:#4d657b}.icon-111{fill:#ffd10b}.icon-112{fill:#1d202d}</style><path class="icon-110" d="M526 5.53c-4.12.8-10.2 2.35-13.5 3.45-3.3 1.1-9.49 4.03-13.75 6.51-4.26 2.48-10.96 7.55-14.88 11.26s-9.07 9.45-11.43 12.75c-2.37 3.3-5.68 9.04-7.37 12.75-1.69 3.71-4.06 10.24-5.27 14.5-1.74 6.14-2.19 10.34-2.17 20.25.02 8.28.6 14.87 1.73 19.5.93 3.85 3.89 11.5 6.57 17 2.83 5.8 7.35 12.94 10.75 17 3.23 3.85 9.91 10.02 14.84 13.72 4.94 3.69 10.95 8.86 13.35 11.5 2.41 2.63 5.39 6.81 6.64 9.28 1.25 2.47 3 6.97 3.89 10 1.32 4.48 1.62 10.53 1.61 32.75L517 245h49c-.02-39.14.4-52.75.91-55.5.52-2.75 1.87-7.47 3.01-10.5 1.13-3.03 3.77-7.75 5.86-10.5 2.09-2.75 6.7-7.24 10.26-9.99 3.55-2.74 9.65-8.14 13.54-12 3.89-3.85 8.36-9.04 9.92-11.51 1.57-2.47 4.07-6.97 5.57-10 1.49-3.03 3.68-8.65 4.86-12.5 1.19-3.85 2.54-10.83 3.02-15.5.49-4.86.48-12.35-.03-17.5-.49-4.95-2.05-12.6-3.47-17-1.41-4.4-4.16-10.92-6.11-14.5-1.95-3.58-5.19-8.52-7.19-11-2.01-2.48-5.67-6.48-8.15-8.9-2.47-2.43-6.98-6.22-10-8.44-3.02-2.22-8.65-5.52-12.5-7.33-3.85-1.82-10.6-4.24-15-5.38-4.4-1.15-12.27-2.26-17.5-2.48-5.81-.23-12.41.18-17 1.06z"></path><path class="icon-111" d="M216 246.53c-5.22.73-13.44 2.49-18.25 3.9-4.81 1.41-12.46 4.24-17 6.28-4.54 2.04-11.18 5.48-14.75 7.64-3.57 2.16-9.65 6.28-13.5 9.17-3.85 2.88-10.82 9.24-15.5 14.12-4.68 4.89-11.06 12.7-14.18 17.37-3.12 4.67-7.24 11.64-9.15 15.49-1.91 3.85-4.42 9.48-5.58 12.5-1.15 3.02-3.19 9.55-4.51 14.5-1.33 4.95-2.93 13.05-3.56 18-.84 6.6-1.05 79.45-.8 273 .32 249.7.43 264.41 2.13 271.5.98 4.13 3.58 12 5.77 17.5 2.18 5.5 5.72 12.92 7.84 16.5 2.13 3.58 6.98 10.33 10.77 15 3.8 4.67 10.02 11.12 13.84 14.33 3.81 3.21 10.53 8.01 14.93 10.66 4.4 2.65 11.82 6.4 16.5 8.33 4.68 1.93 11.43 4.26 15 5.19 3.57.92 8.97 2.08 12 2.58 3.2.52 146.35.91 342 .92 292.89.01 337.6-.18 345-1.47 4.67-.81 12.33-2.78 17-4.37 4.67-1.58 11.42-4.35 15-6.14s10.1-5.64 14.5-8.57c4.4-2.92 11.84-9.28 16.53-14.14 4.69-4.85 11.05-12.65 14.12-17.32 3.08-4.67 7.21-12.1 9.17-16.5 1.97-4.4 4.7-12.27 6.06-17.5 1.36-5.23 2.79-11.98 3.17-15 .39-3.02.72-123.62.74-268 .03-237.56-.12-263.36-1.59-271.5-.89-4.95-2.79-13.05-4.22-18-1.43-4.95-4.63-13.27-7.1-18.5-2.47-5.23-7.5-13.96-11.19-19.42-3.68-5.45-10.29-13.56-14.69-18.01-4.4-4.45-10.92-10.32-14.5-13.06-3.58-2.73-10.55-7.35-15.5-10.27-4.95-2.91-12.37-6.6-16.5-8.19-4.12-1.59-10.87-3.84-15-5.01-4.12-1.16-12-2.76-17.5-3.56-8.57-1.24-54.82-1.43-324-1.36-255.04.07-315.78.34-323.5 1.41z"></path><path class="icon-110" d="M38 486.62c-3.02.82-7.75 2.7-10.5 4.18-2.75 1.47-7.74 5.39-11.08 8.69-3.97 3.91-7.16 8.28-9.15 12.51-1.68 3.58-3.56 8.86-4.16 11.75-.78 3.67-1.11 41.49-1.09 125.5.01 116.08.08 120.48 1.95 126.75 1.07 3.58 3.68 9.2 5.8 12.5 2.12 3.3 6.08 7.96 8.8 10.35 2.71 2.4 6.95 5.39 9.43 6.64 2.48 1.26 6.98 3.02 10 3.91 4.5 1.32 10.57 1.62 33.25 1.61L99 811V485c-49.05.12-56.78.48-61 1.62zM981 649v163c50.82-.02 57.51-.33 61.5-1.56 2.75-.85 7.47-2.86 10.5-4.48 3.03-1.61 7.61-5.08 10.19-7.7 2.58-2.62 6.29-7.46 8.25-10.76s4.24-9.04 5.06-12.75c1.29-5.79 1.5-23.78 1.49-126.5-.01-102.14-.23-120.56-1.48-125.25-.81-3.02-2.51-7.52-3.78-10-1.27-2.48-3.87-6.47-5.77-8.87-1.9-2.4-6.16-6.25-9.46-8.56-3.3-2.31-7.8-4.95-10-5.87-2.2-.92-6.03-2.12-8.5-2.66-2.47-.55-16.54-1-31.25-1.02L981 486v163z"></path><path class="icon-112" d="M326 513.69c-1.37.23-5.76 1.3-9.75 2.37s-10.51 3.57-14.5 5.57c-3.99 2-9.27 5.02-11.75 6.7-2.48 1.69-6.92 5.35-9.87 8.12-2.95 2.78-7.31 7.75-9.68 11.05-2.37 3.3-6.11 9.83-8.3 14.5-2.19 4.67-4.79 11.42-5.78 15-1.34 4.89-1.78 10.09-1.76 21 .02 12.92.32 15.48 2.76 23.5 1.51 4.95 4.57 12.38 6.79 16.5 2.22 4.13 6.23 10.2 8.92 13.5 2.69 3.3 7.03 7.84 9.65 10.1 2.63 2.25 7.47 5.82 10.77 7.93 3.3 2.11 8.7 4.94 12 6.29 3.3 1.35 9.15 3.3 13 4.32 3.85 1.03 11.05 2.14 16 2.48 6.28.43 11.8.12 18.25-1 5.09-.89 12.29-2.74 16-4.11 3.71-1.37 10.29-4.63 14.62-7.25s10.87-7.68 14.54-11.26 8.51-9.2 10.74-12.5c2.24-3.3 5.2-8.25 6.57-11 1.38-2.75 3.47-7.81 4.64-11.25 1.18-3.44 2.65-9.51 3.27-13.5.65-4.2.87-11.67.52-17.75-.32-5.77-1.32-13.2-2.21-16.5-.89-3.3-2.98-9.15-4.66-13-1.67-3.85-5.35-10.33-8.16-14.39-2.82-4.07-7.83-9.92-11.14-13-3.31-3.09-8.71-7.39-12-9.56-3.29-2.18-9.58-5.41-13.98-7.18-4.4-1.78-11.49-3.93-15.75-4.8-4.36-.88-12.01-1.51-17.5-1.43-5.36.07-10.87.32-12.25.55zm400 .22c-2.48.45-6.98 1.62-10 2.61-3.02 1-7.98 2.9-11 4.24-3.02 1.33-8.42 4.36-12 6.73-3.58 2.36-9.67 7.61-13.54 11.65-3.87 4.05-8.92 10.51-11.22 14.36-2.3 3.85-5.33 9.92-6.73 13.5-1.4 3.58-3.21 9.76-4.03 13.75-.81 3.99-1.48 11.52-1.48 16.75s.62 12.76 1.39 16.75c.76 3.99 2.72 10.63 4.35 14.75 1.63 4.13 4.22 9.52 5.76 12 1.53 2.48 5.09 7.4 7.89 10.94 2.81 3.55 8.49 9.11 12.61 12.36 4.13 3.25 11.1 7.67 15.5 9.81 4.4 2.15 11.6 4.86 16 6.04 6.15 1.64 11.01 2.15 21 2.19 9.19.04 15.05-.46 20-1.69 3.85-.96 9.7-2.94 13-4.39 3.3-1.45 9.38-4.77 13.5-7.38 4.13-2.6 10.46-7.8 14.07-11.56 3.61-3.75 8.54-9.74 10.95-13.32 2.4-3.58 5.84-10.1 7.63-14.5s4.01-12.27 4.92-17.5c1.16-6.61 1.48-12.24 1.08-18.5-.32-4.95-1.49-12.6-2.6-17s-4.06-12.05-6.56-17c-2.51-4.95-6.79-11.81-9.52-15.25-2.73-3.44-8.46-9.03-12.72-12.42-4.26-3.39-11.8-8.08-16.75-10.42-4.95-2.34-11.7-4.99-15-5.89-3.54-.96-11.32-1.79-19-2.03-7.15-.21-15.02-.02-17.5.42zM430 779.06c-1.93.47-4.62 2.02-6 3.43-1.86 1.92-2.59 3.91-2.87 7.8-.21 2.86.39 9.04 1.32 13.71.94 4.67 3.05 11.88 4.7 16 1.66 4.13 4.95 10.42 7.32 14s7.28 9.31 10.92 12.75c3.63 3.44 10.1 8.29 14.36 10.78 4.26 2.48 11.35 5.66 15.75 7.05 4.4 1.39 12.27 2.94 17.5 3.45 5.23.51 26.38.92 47 .92 20.63 0 41.77-.41 47-.92 5.23-.51 13.1-2.06 17.5-3.45 4.4-1.39 11.49-4.57 15.75-7.05 4.26-2.49 10.56-7.17 14-10.39 3.44-3.22 8.35-8.96 10.91-12.75 2.57-3.79 6.02-10.26 7.68-14.39 1.66-4.12 3.77-11.33 4.71-16 .93-4.67 1.53-10.85 1.32-13.71-.28-3.89-1.01-5.87-2.87-7.78-1.37-1.41-4.3-2.99-6.5-3.51-2.41-.57-46.08-.92-110-.87-58.3.04-107.57.46-109.5.93z"></path><path class="icon-110" d="M348 1001.98c1.38.45 6.32 1.98 11 3.39 4.68 1.42 11.65 4.42 15.5 6.69 3.85 2.26 9.44 6.21 12.42 8.78 2.99 2.56 7.64 7.58 10.33 11.16 2.7 3.58 6.43 9.65 8.29 13.5 1.87 3.85 4.31 10.6 5.44 15 1.12 4.4 2.04 9.91 2.03 12.25 0 2.34.22 4.92.49 5.75.44 1.32 15.39 1.5 126.5 1.5s126.06-.18 126.5-1.5c.27-.83.49-3.41.49-5.75-.01-2.34.91-7.85 2.03-12.25 1.13-4.4 3.57-11.15 5.44-15 1.86-3.85 5.59-9.92 8.29-13.5 2.69-3.58 7.34-8.6 10.33-11.16 2.98-2.57 8.57-6.52 12.42-8.78 3.85-2.27 10.83-5.27 15.5-6.69 4.67-1.41 9.63-2.94 11-3.39 1.38-.45-85.02-.82-192-.82s-193.37.37-192 .82z"></path></svg>