<svg xmlns="http://www.w3.org/2000/svg" viewBox="0 0 1080 1080" width="1080" height="1080"><style>tspan{white-space:pre}.icon-90{fill:#ffd10b}.icon-91{fill:#fff}.icon-92{fill:#4d657b}</style><path class="icon-90" d="M531.34 9.75c-4.43 5.36-13.85 16.27-20.95 24.24-7.09 7.97-19.87 21.64-28.39 30.38-8.52 8.73-23.15 22.93-32.5 31.54-9.35 8.61-21.73 19.73-27.5 24.7-5.77 4.97-16.12 13.5-23 18.95-6.87 5.46-20.7 15.77-30.73 22.93-10.02 7.16-24.42 16.89-32 21.63-7.57 4.74-20.29 12.36-28.27 16.93s-21.93 11.88-31 16.23c-9.07 4.36-22.35 10.32-29.5 13.25-7.15 2.92-17.5 6.95-23 8.94-5.5 1.99-16.75 5.61-25 8.04-8.25 2.43-19.72 5.54-25.5 6.9-5.78 1.37-17.03 3.6-25 4.96-7.97 1.36-19 3.01-24.5 3.67-5.5.65-17.42 1.47-26.5 1.82l-16.5.64c.14 45.73.72 66.88 1.37 76.5.65 9.63 1.86 24.93 2.68 34 .82 9.07 2.63 25.73 4.02 37 1.39 11.27 3.64 27.7 5.01 36.5 1.37 8.8 3.85 23.43 5.5 32.5s5.47 27.52 8.49 41c3.01 13.48 7.75 33.05 10.53 43.5 2.78 10.45 7.95 28.56 11.48 40.25 3.53 11.69 9.76 30.59 13.85 42 4.08 11.41 10.33 27.95 13.88 36.75 3.54 8.8 9.47 22.75 13.16 31 3.69 8.25 10.9 23.33 16 33.5 5.11 10.17 13.31 25.7 18.23 34.5 4.91 8.8 12.02 20.95 15.8 27 3.78 6.05 11.22 17.52 16.53 25.5 5.32 7.98 14.38 20.8 20.14 28.5 5.75 7.7 14.89 19.4 20.3 26 5.41 6.6 13.25 15.82 17.43 20.49 4.18 4.66 13.45 14.52 20.6 21.9 7.15 7.38 19.98 19.72 28.5 27.42 8.52 7.7 21.18 18.54 28.13 24.1 6.94 5.55 17.97 13.99 24.5 18.75 6.53 4.76 19.52 13.58 28.87 19.61 9.35 6.02 23.75 14.78 32 19.47 8.25 4.68 20.85 11.44 28 15.01 7.15 3.57 19.98 9.53 28.5 13.25 8.52 3.71 15.95 7.16 16.5 7.64.55.49 4.4.89 8.55.88 4.15-.01 7.98-.42 8.5-.9.52-.49 5.9-3.01 11.95-5.6 6.05-2.59 20.45-9.36 32-15.03 11.55-5.68 29.55-15.46 40-21.72 10.45-6.27 23.95-14.71 30-18.75 6.05-4.04 16.17-11.17 22.5-15.85 6.33-4.68 16-12.12 21.5-16.54s15.39-12.78 21.99-18.58c6.59-5.8 17.33-15.72 23.87-22.05 6.54-6.33 17.6-17.8 24.59-25.5 6.99-7.7 17.55-19.85 23.48-27 5.93-7.15 15.15-18.85 20.5-26 5.34-7.15 13.56-18.62 18.26-25.5 4.7-6.87 12.37-18.58 17.04-26 4.66-7.42 12.68-20.92 17.8-30 5.13-9.08 14.58-27.3 21.02-40.5 6.43-13.2 15.33-32.55 19.77-43 4.44-10.45 10.96-26.65 14.49-36 3.52-9.35 9.59-26.67 13.49-38.5 3.89-11.83 9.16-28.7 11.7-37.5 2.54-8.8 6.82-24.77 9.51-35.5 2.68-10.73 6.04-24.67 7.46-31 1.41-6.33 4.79-23.65 7.49-38.5 2.71-14.85 6.28-36.45 7.95-48 1.67-11.55 3.93-29.1 5.04-39 1.1-9.9 2.67-26.1 3.48-36 .81-9.9 1.98-28.35 2.59-41 .61-12.65.97-30.2.79-39l-.31-16c-14.73-.32-25.08-.92-32.5-1.53-7.42-.6-19.12-1.99-26-3.07-6.87-1.08-19.25-3.35-27.5-5.03-8.25-1.69-21.75-5.02-30-7.41-8.25-2.4-22.2-7.01-31-10.27-8.8-3.25-20.95-8.08-27-10.73-6.05-2.65-20-9.38-31-14.96s-26.3-13.9-34-18.48c-7.7-4.58-20.75-12.82-29-18.31-8.25-5.49-22.76-15.77-32.25-22.85-9.49-7.07-24.34-18.79-33-26.04-8.66-7.24-22.73-19.56-31.25-27.36-8.52-7.8-24.05-22.93-34.5-33.62-10.45-10.69-25.3-26.62-33.01-35.39-7.7-8.77-16.7-19.22-20-23.22-3.29-3.99-6.24-7.26-6.54-7.25-.31.01-4.18 4.41-8.61 9.77z"></path><path class="icon-91" d="M536.88 153.77c-1.44 2.05-8.41 10.26-15.49 18.23-7.08 7.97-18.05 19.84-24.38 26.36-6.33 6.53-17.36 17.18-24.51 23.68-7.15 6.49-17.95 15.93-24 20.96-6.05 5.04-15.05 12.21-20 15.95-4.95 3.74-15.3 11.07-23 16.29-7.7 5.22-19.62 12.76-26.5 16.75-6.87 3.99-17.68 9.85-24 13.02-6.32 3.16-14.87 7.22-19 9.01-4.12 1.8-13.12 5.39-20 8-6.87 2.6-18.35 6.35-25.5 8.32-7.15 1.96-18.62 4.7-25.5 6.07-6.87 1.38-16.1 2.94-20.5 3.48-4.4.54-14.26 1.35-21.91 1.8l-13.9.81c.95 39.52 1.72 57.07 2.31 64.5.6 7.43 1.98 21.6 3.07 31.5 1.1 9.9 3.13 25.43 4.53 34.5 1.39 9.07 3.88 23.48 5.54 32 1.65 8.52 4.59 22.25 6.51 30.5 1.93 8.25 5.52 22.42 7.98 31.5 2.46 9.08 6.75 23.48 9.54 32 2.78 8.52 7.76 22.7 11.07 31.5 3.31 8.8 8.94 22.75 12.51 31 3.57 8.25 9.87 21.75 13.99 30 4.13 8.25 10.21 19.73 13.52 25.5 3.3 5.77 8.49 14.55 11.53 19.5 3.03 4.95 8.08 12.83 11.22 17.5 3.14 4.67 9.89 14.13 15.01 21 5.11 6.88 14.05 18.13 19.86 25 5.81 6.88 18.01 19.92 27.1 29 9.09 9.08 22.89 21.67 30.65 28 7.76 6.33 19.23 15.18 25.49 19.68 6.26 4.5 18.13 12.34 26.38 17.44 8.25 5.09 23.1 13.37 33 18.4 9.9 5.03 23.06 11.24 29.25 13.81L540 931c14.34-6.07 25.02-10.94 33-14.73 7.98-3.8 19.45-9.76 25.5-13.24 6.05-3.47 17.3-10.44 25-15.47 7.7-5.03 18.5-12.5 24-16.6 5.5-4.09 14.27-11.01 19.5-15.38 5.23-4.36 14.39-12.46 20.36-18 5.97-5.55 16.39-16.16 23.17-23.58 6.77-7.42 16.28-18.44 21.14-24.49 4.86-6.04 13.65-17.74 19.54-26 5.9-8.25 15.56-23.11 21.48-33.01 5.93-9.9 15.07-26.55 20.33-37 5.26-10.45 12.99-27.1 17.18-37 4.19-9.9 10.31-25.42 13.61-34.5 3.3-9.08 8.09-23.25 10.65-31.5 2.56-8.25 6.64-22.65 9.07-32 2.43-9.35 5.75-22.85 7.37-30 1.62-7.15 4.55-22 6.5-33 1.96-11 4.67-28.32 6.02-38.5 1.36-10.18 3.17-25.93 4.02-35 .86-9.07 2.01-24.15 2.55-33.5.55-9.35 1-23.52 1-31.5l.02-14.5c-22.1-1.2-33.24-2.25-39.01-3.1-5.77-.86-15.67-2.62-22-3.93-6.33-1.3-16.9-3.97-23.5-5.93-6.6-1.96-17.62-5.63-24.5-8.16-6.87-2.53-20.15-8.28-29.5-12.79-9.35-4.51-21.27-10.59-26.5-13.51s-17.15-10.36-26.5-16.54c-9.35-6.17-21.95-14.98-28-19.57-6.05-4.59-16.39-12.87-22.98-18.41-6.59-5.53-17.39-15.04-24-21.13-6.61-6.09-18.85-18.24-27.19-27-8.35-8.76-18.84-20.21-23.32-25.43-4.48-5.22-9.35-11.18-10.83-13.23-1.47-2.05-2.91-3.73-3.18-3.73s-1.68 1.68-3.12 3.73z"></path><path class="icon-92" d="M516.5 281.56c-4.4.82-11.82 2.66-16.5 4.08-4.68 1.43-12.32 4.42-17 6.66s-13 7.08-18.5 10.77c-6.63 4.44-13.37 10.2-20 17.08-5.5 5.72-12.39 13.98-15.31 18.37-2.92 4.39-7.06 11.58-9.2 15.98-2.14 4.4-5.24 12.05-6.89 17-1.65 4.95-3.7 13.05-4.56 18-1.28 7.38-1.56 18.4-1.55 61.25.01 28.74.24 52.25.51 52.25s1.74-.86 3.25-1.92 4.55-2.71 6.75-3.66c2.2-.96 6.25-2.27 9-2.91l5-1.16c1.06-97.27 1.2-100.24 3.26-107.35 1.19-4.12 3.22-10.2 4.51-13.5 1.29-3.3 3.87-8.7 5.72-12 1.86-3.3 5.03-8.25 7.03-11 2.01-2.75 6.31-7.87 9.57-11.38 3.25-3.51 9.51-9.08 13.91-12.37 4.4-3.29 12.05-7.94 17-10.32 4.95-2.39 12.82-5.44 17.5-6.78 4.67-1.34 12.77-2.99 18-3.66 7.16-.91 12.33-.94 21-.12 6.33.6 15.55 2.24 20.5 3.65 4.95 1.41 12.38 4.15 16.5 6.1 4.13 1.94 10.42 5.49 14 7.87s9.6 7.18 13.39 10.67c3.79 3.49 9.58 9.94 12.88 14.34 3.29 4.4 7.79 11.6 9.99 16 2.21 4.4 4.65 9.8 5.44 12 .79 2.2 2.39 7.38 3.54 11.5 1.97 7.01 2.14 10.74 2.68 56.93l.58 49.42c7.75 1.8 11.8 3.11 14 4.07 2.2.95 5.24 2.6 6.75 3.66 1.51 1.06 2.98 1.92 3.25 1.92s.5-22.5.5-50c0-29.36-.43-53.2-1.05-57.75-.58-4.26-2.13-11.8-3.45-16.75-1.31-4.95-4.01-12.82-5.98-17.5-1.97-4.68-5.57-11.87-8.01-16-2.43-4.12-7.48-11.3-11.22-15.94-3.73-4.64-9.71-11.04-13.29-14.23-3.58-3.19-9.2-7.85-12.5-10.36-3.3-2.52-11.85-7.48-19-11.03-9.22-4.58-16.49-7.37-25-9.58-10.94-2.84-13.64-3.15-30.5-3.46-13.42-.24-20.69.07-26.5 1.16z"></path><path class="icon-90" d="M426.5 494.41c-2.75.7-6.8 2.05-9 3-2.2.95-6.81 3.72-10.25 6.16-3.44 2.44-8.02 6.79-10.19 9.68-2.17 2.89-5.03 7.73-6.37 10.75-1.34 3.02-2.94 7.86-3.56 10.75-.8 3.72-1.13 36.54-1.14 112.5 0 93.17.2 108.04 1.54 113.25.84 3.3 2.61 8.25 3.92 11 1.32 2.75 4.12 7.12 6.22 9.71 2.11 2.59 6.31 6.59 9.33 8.88 3.02 2.29 7.52 5.06 10 6.16 2.48 1.09 6.75 2.6 9.5 3.35 4.09 1.13 24.65 1.38 113.5 1.38 87.36 0 109.47-.26 113.5-1.34 2.75-.73 7.7-2.6 11-4.16 4.02-1.89 8.5-5.31 13.58-10.4 4.67-4.67 8.59-9.69 10.22-13.08 1.45-3.02 3.33-8.2 4.17-11.5 1.34-5.21 1.54-20.08 1.54-113.25-.01-75.42-.34-108.81-1.13-112.5-.62-2.89-2.35-7.95-3.85-11.25-1.49-3.3-4.51-8.25-6.69-11-2.18-2.75-7.09-7.14-10.9-9.75-3.82-2.61-9.64-5.76-12.94-7l-6-2.25c-196.76-.31-222.1-.07-226 .91z"></path><path class="icon-92" d="M531.5 559.07c-2.75.46-7.02 1.56-9.5 2.44-2.48.87-6.52 2.89-9 4.49-2.48 1.6-6.61 5.06-9.19 7.7-2.58 2.64-6.29 7.5-8.25 10.8-1.96 3.3-4.24 9.04-5.06 12.75-.83 3.71-1.5 9.34-1.51 12.5 0 3.16.68 8.34 1.5 11.5.83 3.16 2.92 8.56 4.65 12 1.89 3.79 5.56 8.61 9.3 12.25 3.4 3.3 8.85 7.35 12.12 9l5.94 3 .5 78.5h34l.01-78.5c10.5-5.39 15.93-9.38 19.01-12.46 3.03-3.05 6.94-8.24 8.69-11.54 1.75-3.3 3.93-8.92 4.86-12.5 1.23-4.74 1.53-8.67 1.11-14.5-.32-4.4-1.52-10.7-2.67-14-1.15-3.3-3.54-8.21-5.3-10.91-1.77-2.7-5.69-7.15-8.71-9.88-3.02-2.73-8.2-6.31-11.5-7.96-3.3-1.65-8.92-3.6-12.5-4.35-3.58-.75-8.08-1.32-10-1.27-1.92.06-5.75.48-8.5.94z"></path></svg>