<svg xmlns="http://www.w3.org/2000/svg" viewBox="0 0 1080 1080" width="1080" height="1080"><style>tspan{white-space:pre}.icon-100{fill:#7800e4}.icon-101{fill:#fff}</style><path class="icon-100" d="M450.61 4.25c-3.52 3.39-4.55 5.16-5.07 8.75-.35 2.48-.51 36.3-.34 75.18.29 68.86.35 70.74 2.3 73.38 1.1 1.48 3.27 3.65 4.82 4.82 2.58 1.94 4.27 2.14 19.75 2.37L489 169v28c-5.04.74-13.25 2.14-21.5 3.58-8.25 1.45-21.98 4.37-30.5 6.5-8.52 2.12-21.57 5.84-29 8.27-7.43 2.43-18.9 6.54-25.5 9.13-6.6 2.59-19.2 8.19-28 12.43s-20.95 10.55-27 14.02c-6.05 3.47-17.98 10.92-26.5 16.55-8.52 5.64-20.79 14.37-27.25 19.39-6.46 5.02-12.09 9.13-12.5 9.14-.41 0-4.91-4.16-9.99-9.25-5.09-5.09-9.24-9.71-9.23-10.26.01-.55 3.11-4.15 6.89-8 3.99-4.07 7.18-8.26 7.59-10 .4-1.65.42-4.57.04-6.5-.57-2.9-6.07-8.89-31.87-34.74l-31.18-31.25-11.81-.01c-75.83 75.65-86.98 87.38-87.81 90-.61 1.93-.79 5.07-.42 7 .57 2.89 6.01 8.85 31.36 34.28 22.71 22.79 31.59 31.06 34.18 31.87 2.65.83 4.47.78 7.5-.22 2.49-.81 6.65-3.87 11-8.07l7-6.77 19.69 19.41c-17 22.48-25.75 34.85-30.42 42-4.67 7.15-11.51 18.4-15.19 25-3.69 6.6-9.44 17.63-12.77 24.5-3.33 6.88-8.09 17.45-10.58 23.5-2.49 6.05-6.5 16.85-8.92 24-2.42 7.15-6.19 19.52-8.37 27.5-2.19 7.98-5.31 21.02-6.94 29-1.63 7.98-3.85 21.48-4.95 30-1.09 8.52-2.5 23.15-3.13 32.5-.69 10.07-.89 24.95-.51 36.5.35 10.73 1.3 25.8 2.11 33.5.82 7.7 2.4 19.63 3.52 26.5 1.12 6.88 3.37 18.58 5 26 1.63 7.42 4.92 20.02 7.32 28 2.4 7.98 6.06 19.23 8.13 25 2.07 5.77 6.44 16.8 9.71 24.5 3.27 7.7 9.13 20.08 13.02 27.5 3.9 7.42 10.01 18.45 13.59 24.5 3.58 6.05 8.77 14.38 11.52 18.5 2.75 4.13 9.05 12.9 13.99 19.5 4.94 6.6 12.39 16.05 16.55 21 4.16 4.95 13.65 15.25 21.1 22.89 7.44 7.64 19.16 18.84 26.03 24.88 6.88 6.05 18.35 15.38 25.5 20.74 7.15 5.37 18.18 13.1 24.5 17.19 6.32 4.09 16.68 10.39 23 13.99 6.32 3.6 16.23 8.92 22 11.81 5.77 2.89 17.48 8.15 26 11.69 8.52 3.54 22.02 8.63 30 11.31 7.98 2.67 19.68 6.24 26 7.91 6.32 1.68 16.9 4.17 23.5 5.53 6.6 1.36 20.1 3.58 30 4.93 9.9 1.35 22.5 2.95 28 3.55 5.5.61 19.34 1.09 30.75 1.09 13.52-.01 27.8-.72 41-2.05 11.14-1.12 27-3.17 35.25-4.56 8.25-1.39 24.45-4.94 36-7.89 11.55-2.95 26.63-7.39 33.5-9.86 6.88-2.47 15.42-5.6 19-6.96 3.58-1.36 13.48-5.69 22-9.62 8.52-3.93 20.67-10 27-13.5 6.33-3.49 17.35-10.06 24.5-14.59 7.15-4.54 19.08-12.76 26.5-18.28 7.42-5.52 19.35-15.08 26.5-21.24 7.15-6.16 19.75-18.13 28-26.6 8.25-8.47 19.55-21.01 25.11-27.88 5.57-6.86 13.92-17.88 18.57-24.48 4.64-6.6 10.17-14.7 12.29-18 2.11-3.3 5.85-9.37 8.29-13.5 2.45-4.12 7.53-13.35 11.29-20.5 3.76-7.15 9.28-18.62 12.27-25.5 2.98-6.87 7.68-18.58 10.43-26 2.76-7.42 6.82-19.8 9.04-27.5 2.21-7.7 5.18-18.95 6.6-25 1.42-6.05 3.69-17.52 5.04-25.5 1.36-7.98 3.18-21.25 4.06-29.5 1.07-10.05 1.6-24.58 1.62-44 .01-19.83-.5-34.06-1.62-45-.9-8.8-2.73-22.52-4.07-30.5-1.34-7.98-4.27-21.92-6.51-31-2.23-9.08-6.09-22.57-8.56-30-2.48-7.43-6.99-19.8-10.03-27.5-3.04-7.7-8.77-20.75-12.73-29-3.96-8.25-10.03-19.95-13.48-26-3.46-6.05-11.38-18.65-17.62-28-6.23-9.35-16.2-23.07-22.16-30.5-5.96-7.43-16.49-19.57-23.4-27-6.92-7.43-18.84-19.03-26.5-25.78-7.66-6.76-18.43-15.81-23.93-20.11-5.5-4.31-16.3-12.11-24-17.34-7.7-5.23-20.52-13.25-28.5-17.82-7.98-4.58-20.58-11.2-28-14.72-7.42-3.51-20.7-9.23-29.5-12.71-8.8-3.48-20.95-7.91-27-9.84-6.05-1.94-17.3-5.11-25-7.04-7.7-1.93-20.08-4.65-27.5-6.05-7.42-1.4-16.2-2.89-19.5-3.32l-6-.78L601 169c30.14.02 31.88-.18 35.93-2.24 2.78-1.42 5.1-3.56 6.25-5.76 1.72-3.3 1.83-7.73 1.82-76.25 0-70.75-.06-72.86-2-76.75-1.1-2.2-3.46-4.89-5.25-5.97-3.17-1.92-5.51-1.97-92.98-2L455.04 0l-4.43 4.25z"></path><path class="icon-101" d="M546.5 930C386.96 930 258 801.04 258 641.5S386.96 353 546.5 353 835 481.96 835 641.5 706.04 930 546.5 930z"></path><path class="icon-100" d="M539.02 402.7c-1.91.99-4.51 3.37-5.78 5.3l-2.3 3.5c.07 258.14.1 260.05 2.06 263.25 1.1 1.79 3.46 4.04 5.25 5 3.03 1.63 9.65 1.75 97.75 1.75 92.7 0 94.56-.04 97.9-2 1.86-1.1 4.34-3.27 5.5-4.82 1.38-1.86 2.08-4.25 2.05-7-.03-2.3-.93-5.7-2-7.57-1.07-1.86-3.53-4.22-5.45-5.25-3.34-1.78-7.45-1.87-89.25-1.86H559c0-216.91-.25-240.63-1.32-243.25-.72-1.79-2.86-4.34-4.75-5.68-1.88-1.33-5.01-2.59-6.93-2.8-2.09-.22-4.9.35-6.98 1.43z"></path></svg>